  0
SECTION
  2
HEADER
  9
$ACADVER
  1
AC1024
  9
$ACADMAINTVER
 70
6
  9
$DWGCODEPAGE
  3
ANSI_1252
  9
$LASTSAVEDBY
  1
ezdxf
  9
$INSBASE
 10
0.0
 20
0.0
 30
0.0
  9
$EXTMIN
 10
1e+20
 20
1e+20
 30
1e+20
  9
$EXTMAX
 10
-1e+20
 20
-1e+20
 30
-1e+20
  9
$LIMMIN
 10
0.0
 20
0.0
  9
$LIMMAX
 10
420.0
 20
297.0
  9
$ORTHOMODE
 70
0
  9
$REGENMODE
 70
1
  9
$FILLMODE
 70
1
  9
$QTEXTMODE
 70
0
  9
$MIRRTEXT
 70
1
  9
$LTSCALE
 40
1.0
  9
$ATTMODE
 70
1
  9
$TEXTSIZE
 40
2.5
  9
$TRACEWID
 40
1.0
  9
$TEXTSTYLE
  7
Standard
  9
$CLAYER
  8
0
  9
$CELTYPE
  6
ByLayer
  9
$CECOLOR
 62
256
  9
$CELTSCALE
 40
1.0
  9
$DISPSILH
 70
0
  9
$DIMSCALE
 40
1.0
  9
$DIMASZ
 40
2.5
  9
$DIMEXO
 40
0.625
  9
$DIMDLI
 40
3.75
  9
$DIMRND
 40
0.0
  9
$DIMDLE
 40
0.0
  9
$DIMEXE
 40
1.25
  9
$DIMTP
 40
0.0
  9
$DIMTM
 40
0.0
  9
$DIMTXT
 40
2.5
  9
$DIMCEN
 40
2.5
  9
$DIMTSZ
 40
0.0
  9
$DIMTOL
 70
0
  9
$DIMLIM
 70
0
  9
$DIMTIH
 70
0
  9
$DIMTOH
 70
0
  9
$DIMSE1
 70
0
  9
$DIMSE2
 70
0
  9
$DIMTAD
 70
1
  9
$DIMZIN
 70
8
  9
$DIMBLK
  1

  9
$DIMASO
 70
1
  9
$DIMSHO
 70
1
  9
$DIMPOST
  1

  9
$DIMAPOST
  1

  9
$DIMALT
 70
0
  9
$DIMALTD
 70
3
  9
$DIMALTF
 40
0.03937007874
  9
$DIMLFAC
 40
1.0
  9
$DIMTOFL
 70
1
  9
$DIMTVP
 40
0.0
  9
$DIMTIX
 70
0
  9
$DIMSOXD
 70
0
  9
$DIMSAH
 70
0
  9
$DIMBLK1
  1

  9
$DIMBLK2
  1

  9
$DIMSTYLE
  2
ISO-25
  9
$DIMCLRD
 70
0
  9
$DIMCLRE
 70
0
  9
$DIMCLRT
 70
0
  9
$DIMTFAC
 40
1.0
  9
$DIMGAP
 40
0.625
  9
$DIMJUST
 70
0
  9
$DIMSD1
 70
0
  9
$DIMSD2
 70
0
  9
$DIMTOLJ
 70
0
  9
$DIMTZIN
 70
8
  9
$DIMALTZ
 70
0
  9
$DIMALTTZ
 70
0
  9
$DIMUPT
 70
0
  9
$DIMDEC
 70
2
  9
$DIMTDEC
 70
2
  9
$DIMALTU
 70
2
  9
$DIMALTTD
 70
3
  9
$DIMTXSTY
  7
Standard
  9
$DIMAUNIT
 70
0
  9
$DIMADEC
 70
0
  9
$DIMALTRND
 40
0.0
  9
$DIMAZIN
 70
0
  9
$DIMDSEP
 70
44
  9
$DIMATFIT
 70
3
  9
$DIMFRAC
 70
0
  9
$DIMLDRBLK
  1

  9
$DIMLUNIT
 70
2
  9
$DIMLWD
 70
-2
  9
$DIMLWE
 70
-2
  9
$DIMTMOVE
 70
0
  9
$DIMFXL
 40
1.0
  9
$DIMFXLON
 70
0
  9
$DIMJOGANG
 40
0.785398163397
  9
$DIMTFILL
 70
0
  9
$DIMTFILLCLR
 70
0
  9
$DIMARCSYM
 70
0
  9
$DIMLTYPE
  6

  9
$DIMLTEX1
  6

  9
$DIMLTEX2
  6

  9
$DIMTXTDIRECTION
 70
0
  9
$LUNITS
 70
2
  9
$LUPREC
 70
4
  9
$SKETCHINC
 40
1.0
  9
$FILLETRAD
 40
10.0
  9
$AUNITS
 70
0
  9
$AUPREC
 70
2
  9
$MENU
  1
.
  9
$ELEVATION
 40
0.0
  9
$PELEVATION
 40
0.0
  9
$THICKNESS
 40
0.0
  9
$LIMCHECK
 70
0
  9
$CHAMFERA
 40
0.0
  9
$CHAMFERB
 40
0.0
  9
$CHAMFERC
 40
0.0
  9
$CHAMFERD
 40
0.0
  9
$SKPOLY
 70
0
  9
$TDCREATE
 40
2460597.8862962965
  9
$TDUCREATE
 40
2458532.153996898
  9
$TDUPDATE
 40
2460597.8862962965
  9
$TDUUPDATE
 40
2458532.1544311
  9
$TDINDWG
 40
0.0
  9
$TDUSRTIMER
 40
0.0
  9
$USRTIMER
 70
1
  9
$ANGBASE
 50
0.0
  9
$ANGDIR
 70
0
  9
$PDMODE
 70
0
  9
$PDSIZE
 40
0.0
  9
$PLINEWID
 40
0.0
  9
$SPLFRAME
 70
0
  9
$SPLINETYPE
 70
6
  9
$SPLINESEGS
 70
8
  9
$HANDSEED
  5
68
  9
$SURFTAB1
 70
6
  9
$SURFTAB2
 70
6
  9
$SURFTYPE
 70
6
  9
$SURFU
 70
6
  9
$SURFV
 70
6
  9
$UCSBASE
  2

  9
$UCSNAME
  2

  9
$UCSORG
 10
0.0
 20
0.0
 30
0.0
  9
$UCSXDIR
 10
1.0
 20
0.0
 30
0.0
  9
$UCSYDIR
 10
0.0
 20
1.0
 30
0.0
  9
$UCSORTHOREF
  2

  9
$UCSORTHOVIEW
 70
0
  9
$UCSORGTOP
 10
0.0
 20
0.0
 30
0.0
  9
$UCSORGBOTTOM
 10
0.0
 20
0.0
 30
0.0
  9
$UCSORGLEFT
 10
0.0
 20
0.0
 30
0.0
  9
$UCSORGRIGHT
 10
0.0
 20
0.0
 30
0.0
  9
$UCSORGFRONT
 10
0.0
 20
0.0
 30
0.0
  9
$UCSORGBACK
 10
0.0
 20
0.0
 30
0.0
  9
$PUCSBASE
  2

  9
$PUCSNAME
  2

  9
$PUCSORG
 10
0.0
 20
0.0
 30
0.0
  9
$PUCSXDIR
 10
1.0
 20
0.0
 30
0.0
  9
$PUCSYDIR
 10
0.0
 20
1.0
 30
0.0
  9
$PUCSORTHOREF
  2

  9
$PUCSORTHOVIEW
 70
0
  9
$PUCSORGTOP
 10
0.0
 20
0.0
 30
0.0
  9
$PUCSORGBOTTOM
 10
0.0
 20
0.0
 30
0.0
  9
$PUCSORGLEFT
 10
0.0
 20
0.0
 30
0.0
  9
$PUCSORGRIGHT
 10
0.0
 20
0.0
 30
0.0
  9
$PUCSORGFRONT
 10
0.0
 20
0.0
 30
0.0
  9
$PUCSORGBACK
 10
0.0
 20
0.0
 30
0.0
  9
$USERI1
 70
0
  9
$USERI2
 70
0
  9
$USERI3
 70
0
  9
$USERI4
 70
0
  9
$USERI5
 70
0
  9
$USERR1
 40
0.0
  9
$USERR2
 40
0.0
  9
$USERR3
 40
0.0
  9
$USERR4
 40
0.0
  9
$USERR5
 40
0.0
  9
$WORLDVIEW
 70
1
  9
$SHADEDGE
 70
3
  9
$SHADEDIF
 70
70
  9
$TILEMODE
 70
1
  9
$MAXACTVP
 70
64
  9
$PINSBASE
 10
0.0
 20
0.0
 30
0.0
  9
$PLIMCHECK
 70
0
  9
$PEXTMIN
 10
1e+20
 20
1e+20
 30
1e+20
  9
$PEXTMAX
 10
-1e+20
 20
-1e+20
 30
-1e+20
  9
$PLIMMIN
 10
0.0
 20
0.0
  9
$PLIMMAX
 10
420.0
 20
297.0
  9
$UNITMODE
 70
0
  9
$VISRETAIN
 70
1
  9
$PLINEGEN
 70
0
  9
$PSLTSCALE
 70
1
  9
$TREEDEPTH
 70
3020
  9
$CMLSTYLE
  2
Standard
  9
$CMLJUST
 70
0
  9
$CMLSCALE
 40
20.0
  9
$PROXYGRAPHICS
 70
1
  9
$MEASUREMENT
 70
1
  9
$CELWEIGHT
370
-1
  9
$ENDCAPS
280
0
  9
$JOINSTYLE
280
0
  9
$LWDISPLAY
290
0
  9
$INSUNITS
 70
6
  9
$HYPERLINKBASE
  1

  9
$STYLESHEET
  1

  9
$XEDIT
290
1
  9
$CEPSNTYPE
380
0
  9
$PSTYLEMODE
290
1
  9
$FINGERPRINTGUID
  2
{E401848E-4A92-49D5-90C8-801E40086450}
  9
$VERSIONGUID
  2
{8AEDCAD1-933E-4041-9439-35EF7DF16FF0}
  9
$EXTNAMES
290
1
  9
$PSVPSCALE
 40
0.0
  9
$OLESTARTUP
290
0
  9
$SORTENTS
280
127
  9
$INDEXCTL
280
0
  9
$HIDETEXT
280
1
  9
$XCLIPFRAME
280
1
  9
$HALOGAP
280
0
  9
$OBSCOLOR
 70
257
  9
$OBSLTYPE
280
0
  9
$INTERSECTIONDISPLAY
280
0
  9
$INTERSECTIONCOLOR
 70
257
  9
$DIMASSOC
280
2
  9
$PROJECTNAME
  1

  9
$CAMERADISPLAY
290
0
  9
$LENSLENGTH
 40
50.0
  9
$CAMERAHEIGHT
 40
0.0
  9
$STEPSPERSEC
 40
24.0
  9
$STEPSIZE
 40
100.0
  9
$3DDWFPREC
 40
2.0
  9
$PSOLWIDTH
 40
0.005
  9
$PSOLHEIGHT
 40
0.08
  9
$LOFTANG1
 40
1.570796326795
  9
$LOFTANG2
 40
1.570796326795
  9
$LOFTMAG1
 40
0.0
  9
$LOFTMAG2
 40
0.0
  9
$LOFTPARAM
 70
7
  9
$LOFTNORMALS
280
1
  9
$LATITUDE
 40
37.795
  9
$LONGITUDE
 40
-122.394
  9
$NORTHDIRECTION
 40
0.0
  9
$TIMEZONE
 70
-8000
  9
$LIGHTGLYPHDISPLAY
280
1
  9
$TILEMODELIGHTSYNCH
280
1
  9
$CMATERIAL
347
20
  9
$SOLIDHIST
280
0
  9
$SHOWHIST
280
1
  9
$DWFFRAME
280
2
  9
$DGNFRAME
280
2
  9
$REALWORLDSCALE
290
1
  9
$INTERFERECOLOR
 62
256
  9
$CSHADOW
280
0
  9
$SHADOWPLANELOCATION
 40
0.0
  0
ENDSEC
  0
SECTION
  2
CLASSES
  0
CLASS
  1
ACDBDICTIONARYWDFLT
  2
AcDbDictionaryWithDefault
  3
ObjectDBX Classes
 90
0
 91
0
280
0
281
0
  0
CLASS
  1
SUN
  2
AcDbSun
  3
SCENEOE
 90
1153
 91
0
280
0
281
0
  0
CLASS
  1
VISUALSTYLE
  2
AcDbVisualStyle
  3
ObjectDBX Classes
 90
4095
 91
0
280
0
281
0
  0
CLASS
  1
MATERIAL
  2
AcDbMaterial
  3
ObjectDBX Classes
 90
1153
 91
0
280
0
281
0
  0
CLASS
  1
SCALE
  2
AcDbScale
  3
ObjectDBX Classes
 90
1153
 91
0
280
0
281
0
  0
CLASS
  1
TABLESTYLE
  2
AcDbTableStyle
  3
ObjectDBX Classes
 90
4095
 91
0
280
0
281
0
  0
CLASS
  1
MLEADERSTYLE
  2
AcDbMLeaderStyle
  3
ACDB_MLEADERSTYLE_CLASS
 90
4095
 91
0
280
0
281
0
  0
CLASS
  1
DICTIONARYVAR
  2
AcDbDictionaryVar
  3
ObjectDBX Classes
 90
0
 91
0
280
0
281
0
  0
CLASS
  1
CELLSTYLEMAP
  2
AcDbCellStyleMap
  3
ObjectDBX Classes
 90
1152
 91
0
280
0
281
0
  0
CLASS
  1
MENTALRAYRENDERSETTINGS
  2
AcDbMentalRayRenderSettings
  3
SCENEOE
 90
1024
 91
0
280
0
281
0
  0
CLASS
  1
ACDBDETAILVIEWSTYLE
  2
AcDbDetailViewStyle
  3
ObjectDBX Classes
 90
1025
 91
0
280
0
281
0
  0
CLASS
  1
ACDBSECTIONVIEWSTYLE
  2
AcDbSectionViewStyle
  3
ObjectDBX Classes
 90
1025
 91
0
280
0
281
0
  0
CLASS
  1
RASTERVARIABLES
  2
AcDbRasterVariables
  3
ISM
 90
0
 91
0
280
0
281
0
  0
CLASS
  1
LAYOUT
  2
AcDbLayout
  3
ObjectDBX Classes
 90
0
 91
0
280
0
281
0
  0
CLASS
  1
ACDBPLACEHOLDER
  2
AcDbPlaceHolder
  3
ObjectDBX Classes
 90
0
 91
0
280
0
281
0
  0
ENDSEC
  0
SECTION
  2
TABLES
  0
TABLE
  2
VPORT
  5
8
330
0
100
AcDbSymbolTable
 70
1
  0
VPORT
  5
23
330
8
100
AcDbSymbolTableRecord
100
AcDbViewportTableRecord
  2
*Active
 70
0
 10
0.0
 20
0.0
 11
1.0
 21
1.0
 12
0.0
 22
0.0
 13
0.0
 23
0.0
 14
0.5
 24
0.5
 15
0.5
 25
0.5
 16
0.0
 26
0.0
 36
1.0
 17
0.0
 27
0.0
 37
0.0
 40
1000.0
 41
1.34
 42
50.0
 43
0.0
 44
0.0
 50
0.0
 51
0.0
 71
0
 72
1000
 73
1
 74
3
 75
0
 76
0
 77
0
 78
0
281
0
 65
0
146
0.0
  0
ENDTAB
  0
TABLE
  2
LTYPE
  5
2
330
0
100
AcDbSymbolTable
 70
3
  0
LTYPE
  5
24
330
2
100
AcDbSymbolTableRecord
100
AcDbLinetypeTableRecord
  2
ByBlock
 70
0
  3

 72
65
 73
0
 40
0.0
  0
LTYPE
  5
25
330
2
100
AcDbSymbolTableRecord
100
AcDbLinetypeTableRecord
  2
ByLayer
 70
0
  3

 72
65
 73
0
 40
0.0
  0
LTYPE
  5
26
330
2
100
AcDbSymbolTableRecord
100
AcDbLinetypeTableRecord
  2
Continuous
 70
0
  3

 72
65
 73
0
 40
0.0
  0
ENDTAB
  0
TABLE
  2
LAYER
  5
1
330
0
100
AcDbSymbolTable
 70
2
  0
LAYER
  5
27
330
1
100
AcDbSymbolTableRecord
100
AcDbLayerTableRecord
  2
0
 70
0
 62
7
  6
Continuous
370
-3
390
13
347
21
  0
LAYER
  5
28
330
1
100
AcDbSymbolTableRecord
100
AcDbLayerTableRecord
  2
Defpoints
 70
0
 62
7
  6
Continuous
290
0
370
-3
390
13
347
21
  0
ENDTAB
  0
TABLE
  2
STYLE
  5
5
330
0
100
AcDbSymbolTable
 70
1
  0
STYLE
  5
29
330
5
100
AcDbSymbolTableRecord
100
AcDbTextStyleTableRecord
  2
Standard
 70
0
 40
0.0
 41
1.0
 50
0.0
 71
0
 42
2.5
  3
txt
  4

  0
ENDTAB
  0
TABLE
  2
VIEW
  5
7
330
0
100
AcDbSymbolTable
 70
0
  0
ENDTAB
  0
TABLE
  2
UCS
  5
6
330
0
100
AcDbSymbolTable
 70
0
  0
ENDTAB
  0
TABLE
  2
APPID
  5
3
330
0
100
AcDbSymbolTable
 70
3
  0
APPID
  5
2A
330
3
100
AcDbSymbolTableRecord
100
AcDbRegAppTableRecord
  2
ACAD
 70
0
  0
APPID
  5
65
330
3
100
AcDbSymbolTableRecord
100
AcDbRegAppTableRecord
  2
HATCHBACKGROUNDCOLOR
 70
0
  0
APPID
  5
66
330
3
100
AcDbSymbolTableRecord
100
AcDbRegAppTableRecord
  2
EZDXF
 70
0
  0
ENDTAB
  0
TABLE
  2
DIMSTYLE
  5
4
330
0
100
AcDbSymbolTable
 70
1
100
AcDbDimStyleTable
  0
DIMSTYLE
105
2B
330
4
100
AcDbSymbolTableRecord
100
AcDbDimStyleTableRecord
  2
Standard
 70
0
 40
1.0
 41
2.5
 42
0.625
 43
3.75
 44
1.25
 45
0.0
 46
0.0
 47
0.0
 48
0.0
 49
2.5
140
2.5
141
2.5
142
0.0
143
0.03937007874
144
1.0
145
0.0
146
1.0
147
0.625
148
0.0
 69
0
 70
0
 71
0
 72
0
 73
0
 74
0
 75
0
 76
0
 77
1
 78
8
 79
3
170
0
171
3
172
1
173
0
174
0
175
0
176
0
177
0
178
0
179
2
271
2
272
2
273
2
274
3
275
0
276
0
277
2
278
44
279
0
280
0
281
0
282
0
283
0
284
8
285
0
286
0
288
0
289
3
290
0
371
-2
372
-2
  0
ENDTAB
  0
TABLE
  2
BLOCK_RECORD
  5
9
330
0
100
AcDbSymbolTable
 70
2
  0
BLOCK_RECORD
  5
17
330
9
100
AcDbSymbolTableRecord
100
AcDbBlockTableRecord
  2
*Model_Space
340
1A
 70
0
280
1
281
0
  0
BLOCK_RECORD
  5
1B
330
9
100
AcDbSymbolTableRecord
100
AcDbBlockTableRecord
  2
*Paper_Space
340
1E
 70
0
280
1
281
0
  0
ENDTAB
  0
ENDSEC
  0
SECTION
  2
BLOCKS
  0
BLOCK
  5
18
330
17
100
AcDbEntity
  8
0
100
AcDbBlockBegin
  2
*Model_Space
 70
0
 10
0.0
 20
0.0
 30
0.0
  3
*Model_Space
  1

  0
ENDBLK
  5
19
330
17
100
AcDbEntity
  8
0
100
AcDbBlockEnd
  0
BLOCK
  5
1C
330
1B
100
AcDbEntity
  8
0
100
AcDbBlockBegin
  2
*Paper_Space
 70
0
 10
0.0
 20
0.0
 30
0.0
  3
*Paper_Space
  1

  0
ENDBLK
  5
1D
330
1B
100
AcDbEntity
  8
0
100
AcDbBlockEnd
  0
ENDSEC
  0
SECTION
  2
ENTITIES
  0
LWPOLYLINE
  5
2F
330
17
100
AcDbEntity
  8
0
100
AcDbPolyline
 90
172
 70
0
 10
56.300000000000004
 20
5.6000000000000005
 10
56.300000000000004
 20
5.5
 10
56.300000000000004
 20
5.4
 10
56.300000000000004
 20
5.300000000000001
 10
56.300000000000004
 20
5.2
 10
56.300000000000004
 20
5.1000000000000005
 10
56.300000000000004
 20
5.0
 10
56.300000000000004
 20
4.9
 10
56.300000000000004
 20
4.800000000000001
 10
56.300000000000004
 20
4.7
 10
56.300000000000004
 20
4.6000000000000005
 10
56.300000000000004
 20
4.5
 10
56.300000000000004
 20
4.4
 10
56.300000000000004
 20
4.3
 10
56.300000000000004
 20
4.2
 10
56.300000000000004
 20
4.1000000000000005
 10
56.300000000000004
 20
4.0
 10
56.300000000000004
 20
3.9000000000000004
 10
56.300000000000004
 20
3.8000000000000003
 10
56.300000000000004
 20
3.7
 10
56.300000000000004
 20
3.6
 10
56.300000000000004
 20
3.5
 10
56.300000000000004
 20
3.4000000000000004
 10
56.300000000000004
 20
3.3000000000000003
 10
56.300000000000004
 20
3.2
 10
56.300000000000004
 20
3.1
 10
56.300000000000004
 20
3.0
 10
56.300000000000004
 20
2.9000000000000004
 10
56.300000000000004
 20
2.8000000000000003
 10
56.300000000000004
 20
2.7
 10
56.300000000000004
 20
2.6
 10
56.300000000000004
 20
2.5
 10
56.300000000000004
 20
2.4000000000000004
 10
56.300000000000004
 20
2.3000000000000003
 10
56.300000000000004
 20
2.2
 10
56.300000000000004
 20
2.1
 10
56.300000000000004
 20
2.0
 10
56.300000000000004
 20
1.9000000000000001
 10
56.300000000000004
 20
1.8
 10
56.300000000000004
 20
1.7000000000000002
 10
56.300000000000004
 20
1.6
 10
56.300000000000004
 20
1.5
 10
56.300000000000004
 20
1.4000000000000001
 10
56.300000000000004
 20
1.3
 10
56.300000000000004
 20
1.2000000000000002
 10
56.300000000000004
 20
1.1
 10
56.300000000000004
 20
1.0
 10
56.300000000000004
 20
0.9
 10
56.300000000000004
 20
0.8
 10
56.300000000000004
 20
0.7000000000000001
 10
56.300000000000004
 20
0.6000000000000001
 10
56.400000000000006
 20
0.6000000000000001
 10
56.5
 20
0.6000000000000001
 10
56.6
 20
0.6000000000000001
 10
56.7
 20
0.6000000000000001
 10
56.800000000000004
 20
0.6000000000000001
 10
56.900000000000006
 20
0.6000000000000001
 10
57.0
 20
0.6000000000000001
 10
57.1
 20
0.7000000000000001
 10
57.2
 20
0.7000000000000001
 10
57.300000000000004
 20
0.7000000000000001
 10
57.400000000000006
 20
0.7000000000000001
 10
57.5
 20
0.7000000000000001
 10
57.6
 20
0.8
 10
57.7
 20
0.8
 10
57.800000000000004
 20
0.8
 10
57.900000000000006
 20
0.9
 10
58.0
 20
0.9
 10
58.1
 20
0.9
 10
58.2
 20
1.0
 10
58.300000000000004
 20
1.0
 10
58.400000000000006
 20
1.1
 10
58.5
 20
1.1
 10
58.6
 20
1.2000000000000002
 10
58.7
 20
1.2000000000000002
 10
58.800000000000004
 20
1.3
 10
58.900000000000006
 20
1.3
 10
59.0
 20
1.4000000000000001
 10
59.1
 20
1.5
 10
59.2
 20
1.5
 10
59.300000000000004
 20
1.6
 10
59.400000000000006
 20
1.7000000000000002
 10
59.5
 20
1.8
 10
59.6
 20
1.8
 10
59.7
 20
1.9000000000000001
 10
59.800000000000004
 20
2.0
 10
59.900000000000006
 20
2.1
 10
60.0
 20
2.2
 10
60.1
 20
2.3000000000000003
 10
60.1
 20
2.4000000000000004
 10
60.2
 20
2.5
 10
60.300000000000004
 20
2.6
 10
60.400000000000006
 20
2.7
 10
60.400000000000006
 20
2.8000000000000003
 10
60.5
 20
2.9000000000000004
 10
60.6
 20
3.0
 10
60.6
 20
3.1
 10
60.7
 20
3.2
 10
60.7
 20
3.3000000000000003
 10
60.800000000000004
 20
3.4000000000000004
 10
60.800000000000004
 20
3.5
 10
60.900000000000006
 20
3.6
 10
60.900000000000006
 20
3.7
 10
60.900000000000006
 20
3.8000000000000003
 10
61.0
 20
3.9000000000000004
 10
61.0
 20
4.0
 10
61.1
 20
4.1000000000000005
 10
61.1
 20
4.2
 10
61.1
 20
4.3
 10
61.1
 20
4.4
 10
61.2
 20
4.5
 10
61.2
 20
4.6000000000000005
 10
61.2
 20
4.7
 10
61.2
 20
4.800000000000001
 10
61.2
 20
4.9
 10
61.2
 20
5.0
 10
61.2
 20
5.1000000000000005
 10
61.2
 20
5.2
 10
61.300000000000004
 20
5.300000000000001
 10
61.300000000000004
 20
5.4
 10
61.300000000000004
 20
5.5
 10
61.300000000000004
 20
5.6000000000000005
 10
61.2
 20
5.6000000000000005
 10
61.1
 20
5.6000000000000005
 10
61.0
 20
5.6000000000000005
 10
60.900000000000006
 20
5.6000000000000005
 10
60.800000000000004
 20
5.6000000000000005
 10
60.7
 20
5.6000000000000005
 10
60.6
 20
5.6000000000000005
 10
60.5
 20
5.6000000000000005
 10
60.400000000000006
 20
5.6000000000000005
 10
60.300000000000004
 20
5.6000000000000005
 10
60.2
 20
5.6000000000000005
 10
60.1
 20
5.6000000000000005
 10
60.0
 20
5.6000000000000005
 10
59.900000000000006
 20
5.6000000000000005
 10
59.800000000000004
 20
5.6000000000000005
 10
59.7
 20
5.6000000000000005
 10
59.6
 20
5.6000000000000005
 10
59.5
 20
5.6000000000000005
 10
59.400000000000006
 20
5.6000000000000005
 10
59.300000000000004
 20
5.6000000000000005
 10
59.2
 20
5.6000000000000005
 10
59.1
 20
5.6000000000000005
 10
59.0
 20
5.6000000000000005
 10
58.900000000000006
 20
5.6000000000000005
 10
58.800000000000004
 20
5.6000000000000005
 10
58.7
 20
5.6000000000000005
 10
58.6
 20
5.6000000000000005
 10
58.5
 20
5.6000000000000005
 10
58.400000000000006
 20
5.6000000000000005
 10
58.300000000000004
 20
5.6000000000000005
 10
58.2
 20
5.6000000000000005
 10
58.1
 20
5.6000000000000005
 10
58.0
 20
5.6000000000000005
 10
57.900000000000006
 20
5.6000000000000005
 10
57.800000000000004
 20
5.6000000000000005
 10
57.7
 20
5.6000000000000005
 10
57.6
 20
5.6000000000000005
 10
57.5
 20
5.6000000000000005
 10
57.400000000000006
 20
5.6000000000000005
 10
57.300000000000004
 20
5.6000000000000005
 10
57.2
 20
5.6000000000000005
 10
57.1
 20
5.6000000000000005
 10
57.0
 20
5.6000000000000005
 10
56.900000000000006
 20
5.6000000000000005
 10
56.800000000000004
 20
5.6000000000000005
 10
56.7
 20
5.6000000000000005
 10
56.6
 20
5.6000000000000005
 10
56.5
 20
5.6000000000000005
 10
56.400000000000006
 20
5.6000000000000005
 10
56.300000000000004
 20
5.6000000000000005
  0
LWPOLYLINE
  5
30
330
17
100
AcDbEntity
  8
0
100
AcDbPolyline
 90
170
 70
0
 10
55.7
 20
5.6000000000000005
 10
55.6
 20
5.5
 10
55.5
 20
5.5
 10
55.400000000000006
 20
5.5
 10
55.300000000000004
 20
5.5
 10
55.2
 20
5.5
 10
55.1
 20
5.5
 10
55.0
 20
5.5
 10
54.900000000000006
 20
5.5
 10
54.800000000000004
 20
5.4
 10
54.7
 20
5.4
 10
54.6
 20
5.4
 10
54.5
 20
5.4
 10
54.400000000000006
 20
5.4
 10
54.300000000000004
 20
5.300000000000001
 10
54.2
 20
5.300000000000001
 10
54.1
 20
5.300000000000001
 10
54.0
 20
5.2
 10
53.900000000000006
 20
5.2
 10
53.800000000000004
 20
5.1000000000000005
 10
53.7
 20
5.1000000000000005
 10
53.6
 20
5.1000000000000005
 10
53.5
 20
5.0
 10
53.400000000000006
 20
4.9
 10
53.300000000000004
 20
4.9
 10
53.2
 20
4.800000000000001
 10
53.1
 20
4.800000000000001
 10
53.0
 20
4.7
 10
52.900000000000006
 20
4.6000000000000005
 10
52.800000000000004
 20
4.6000000000000005
 10
52.7
 20
4.5
 10
52.6
 20
4.4
 10
52.5
 20
4.3
 10
52.400000000000006
 20
4.2
 10
52.300000000000004
 20
4.1000000000000005
 10
52.2
 20
4.0
 10
52.1
 20
3.9000000000000004
 10
52.0
 20
3.8000000000000003
 10
51.900000000000006
 20
3.7
 10
51.800000000000004
 20
3.6
 10
51.7
 20
3.5
 10
51.7
 20
3.4000000000000004
 10
51.6
 20
3.3000000000000003
 10
51.6
 20
3.2
 10
51.5
 20
3.1
 10
51.400000000000006
 20
3.0
 10
51.400000000000006
 20
2.9000000000000004
 10
51.300000000000004
 20
2.8000000000000003
 10
51.300000000000004
 20
2.7
 10
51.2
 20
2.6
 10
51.2
 20
2.5
 10
51.1
 20
2.4000000000000004
 10
51.1
 20
2.3000000000000003
 10
51.1
 20
2.2
 10
51.0
 20
2.1
 10
51.0
 20
2.0
 10
51.0
 20
1.9000000000000001
 10
51.0
 20
1.8
 10
50.900000000000006
 20
1.7000000000000002
 10
50.900000000000006
 20
1.6
 10
50.900000000000006
 20
1.5
 10
50.900000000000006
 20
1.4000000000000001
 10
50.900000000000006
 20
1.3
 10
50.900000000000006
 20
1.2000000000000002
 10
50.900000000000006
 20
1.1
 10
50.800000000000004
 20
1.0
 10
50.800000000000004
 20
0.9
 10
50.800000000000004
 20
0.8
 10
50.800000000000004
 20
0.7000000000000001
 10
50.800000000000004
 20
0.6000000000000001
 10
50.900000000000006
 20
0.6000000000000001
 10
51.0
 20
0.6000000000000001
 10
51.1
 20
0.6000000000000001
 10
51.2
 20
0.6000000000000001
 10
51.300000000000004
 20
0.6000000000000001
 10
51.400000000000006
 20
0.6000000000000001
 10
51.5
 20
0.6000000000000001
 10
51.6
 20
0.6000000000000001
 10
51.7
 20
0.6000000000000001
 10
51.800000000000004
 20
0.6000000000000001
 10
51.900000000000006
 20
0.6000000000000001
 10
52.0
 20
0.6000000000000001
 10
52.1
 20
0.6000000000000001
 10
52.2
 20
0.6000000000000001
 10
52.300000000000004
 20
0.6000000000000001
 10
52.400000000000006
 20
0.6000000000000001
 10
52.5
 20
0.6000000000000001
 10
52.6
 20
0.6000000000000001
 10
52.7
 20
0.6000000000000001
 10
52.800000000000004
 20
0.6000000000000001
 10
52.900000000000006
 20
0.6000000000000001
 10
53.0
 20
0.6000000000000001
 10
53.1
 20
0.6000000000000001
 10
53.2
 20
0.6000000000000001
 10
53.300000000000004
 20
0.6000000000000001
 10
53.400000000000006
 20
0.6000000000000001
 10
53.5
 20
0.6000000000000001
 10
53.6
 20
0.6000000000000001
 10
53.7
 20
0.6000000000000001
 10
53.800000000000004
 20
0.6000000000000001
 10
53.900000000000006
 20
0.6000000000000001
 10
54.0
 20
0.6000000000000001
 10
54.1
 20
0.6000000000000001
 10
54.2
 20
0.6000000000000001
 10
54.300000000000004
 20
0.6000000000000001
 10
54.400000000000006
 20
0.6000000000000001
 10
54.5
 20
0.6000000000000001
 10
54.6
 20
0.6000000000000001
 10
54.7
 20
0.6000000000000001
 10
54.800000000000004
 20
0.6000000000000001
 10
54.900000000000006
 20
0.6000000000000001
 10
55.0
 20
0.6000000000000001
 10
55.1
 20
0.6000000000000001
 10
55.2
 20
0.6000000000000001
 10
55.300000000000004
 20
0.6000000000000001
 10
55.400000000000006
 20
0.6000000000000001
 10
55.5
 20
0.6000000000000001
 10
55.6
 20
0.6000000000000001
 10
55.7
 20
0.6000000000000001
 10
55.800000000000004
 20
0.6000000000000001
 10
55.800000000000004
 20
0.7000000000000001
 10
55.800000000000004
 20
0.8
 10
55.800000000000004
 20
0.9
 10
55.800000000000004
 20
1.0
 10
55.800000000000004
 20
1.1
 10
55.800000000000004
 20
1.2000000000000002
 10
55.800000000000004
 20
1.3
 10
55.800000000000004
 20
1.4000000000000001
 10
55.800000000000004
 20
1.5
 10
55.800000000000004
 20
1.6
 10
55.800000000000004
 20
1.7000000000000002
 10
55.800000000000004
 20
1.8
 10
55.800000000000004
 20
1.9000000000000001
 10
55.800000000000004
 20
2.0
 10
55.800000000000004
 20
2.1
 10
55.800000000000004
 20
2.2
 10
55.800000000000004
 20
2.3000000000000003
 10
55.800000000000004
 20
2.4000000000000004
 10
55.800000000000004
 20
2.5
 10
55.800000000000004
 20
2.6
 10
55.800000000000004
 20
2.7
 10
55.800000000000004
 20
2.8000000000000003
 10
55.800000000000004
 20
2.9000000000000004
 10
55.800000000000004
 20
3.0
 10
55.800000000000004
 20
3.1
 10
55.800000000000004
 20
3.2
 10
55.800000000000004
 20
3.3000000000000003
 10
55.800000000000004
 20
3.4000000000000004
 10
55.800000000000004
 20
3.5
 10
55.800000000000004
 20
3.6
 10
55.800000000000004
 20
3.7
 10
55.800000000000004
 20
3.8000000000000003
 10
55.800000000000004
 20
3.9000000000000004
 10
55.800000000000004
 20
4.0
 10
55.800000000000004
 20
4.1000000000000005
 10
55.800000000000004
 20
4.2
 10
55.800000000000004
 20
4.3
 10
55.800000000000004
 20
4.4
 10
55.800000000000004
 20
4.5
 10
55.800000000000004
 20
4.6000000000000005
 10
55.800000000000004
 20
4.7
 10
55.800000000000004
 20
4.800000000000001
 10
55.800000000000004
 20
4.9
 10
55.800000000000004
 20
5.0
 10
55.800000000000004
 20
5.1000000000000005
 10
55.800000000000004
 20
5.2
 10
55.800000000000004
 20
5.300000000000001
 10
55.800000000000004
 20
5.4
 10
55.800000000000004
 20
5.5
 10
55.7
 20
5.6000000000000005
  0
LWPOLYLINE
  5
31
330
17
100
AcDbEntity
  8
0
100
AcDbPolyline
 90
105
 70
0
 10
44.5
 20
8.0
 10
44.5
 20
7.9
 10
44.5
 20
7.800000000000001
 10
44.5
 20
7.7
 10
44.5
 20
7.6000000000000005
 10
44.400000000000006
 20
7.5
 10
44.300000000000004
 20
7.5
 10
44.2
 20
7.5
 10
44.1
 20
7.5
 10
44.0
 20
7.4
 10
43.900000000000006
 20
7.4
 10
43.900000000000006
 20
7.300000000000001
 10
43.800000000000004
 20
7.2
 10
43.7
 20
7.300000000000001
 10
43.7
 20
7.4
 10
43.7
 20
7.5
 10
43.6
 20
7.5
 10
43.5
 20
7.6000000000000005
 10
43.5
 20
7.7
 10
43.5
 20
7.800000000000001
 10
43.5
 20
7.9
 10
43.400000000000006
 20
7.9
 10
43.300000000000004
 20
7.9
 10
43.300000000000004
 20
7.800000000000001
 10
43.300000000000004
 20
7.7
 10
43.300000000000004
 20
7.6000000000000005
 10
43.2
 20
7.5
 10
43.1
 20
7.5
 10
43.1
 20
7.4
 10
43.1
 20
7.300000000000001
 10
43.2
 20
7.300000000000001
 10
43.300000000000004
 20
7.2
 10
43.300000000000004
 20
7.1000000000000005
 10
43.300000000000004
 20
7.0
 10
43.300000000000004
 20
6.9
 10
43.300000000000004
 20
6.800000000000001
 10
43.300000000000004
 20
6.7
 10
43.300000000000004
 20
6.6000000000000005
 10
43.300000000000004
 20
6.5
 10
43.300000000000004
 20
6.4
 10
43.300000000000004
 20
6.300000000000001
 10
43.300000000000004
 20
6.2
 10
43.300000000000004
 20
6.1000000000000005
 10
43.300000000000004
 20
6.0
 10
43.400000000000006
 20
6.0
 10
43.5
 20
5.9
 10
43.6
 20
5.9
 10
43.7
 20
6.0
 10
43.7
 20
6.1000000000000005
 10
43.6
 20
6.1000000000000005
 10
43.5
 20
6.2
 10
43.5
 20
6.300000000000001
 10
43.5
 20
6.4
 10
43.5
 20
6.5
 10
43.5
 20
6.6000000000000005
 10
43.5
 20
6.7
 10
43.5
 20
6.800000000000001
 10
43.5
 20
6.9
 10
43.5
 20
7.0
 10
43.5
 20
7.1000000000000005
 10
43.5
 20
7.2
 10
43.6
 20
7.300000000000001
 10
43.7
 20
7.300000000000001
 10
43.800000000000004
 20
7.2
 10
43.800000000000004
 20
7.1000000000000005
 10
43.800000000000004
 20
7.0
 10
43.800000000000004
 20
6.9
 10
43.800000000000004
 20
6.800000000000001
 10
43.800000000000004
 20
6.7
 10
43.800000000000004
 20
6.6000000000000005
 10
43.800000000000004
 20
6.5
 10
43.800000000000004
 20
6.4
 10
43.800000000000004
 20
6.300000000000001
 10
43.900000000000006
 20
6.2
 10
43.900000000000006
 20
6.1000000000000005
 10
44.0
 20
6.0
 10
44.1
 20
5.9
 10
44.2
 20
5.9
 10
44.300000000000004
 20
5.9
 10
44.400000000000006
 20
6.0
 10
44.5
 20
6.0
 10
44.6
 20
6.0
 10
44.7
 20
6.0
 10
44.7
 20
6.1000000000000005
 10
44.7
 20
6.2
 10
44.7
 20
6.300000000000001
 10
44.7
 20
6.4
 10
44.7
 20
6.5
 10
44.7
 20
6.6000000000000005
 10
44.7
 20
6.7
 10
44.7
 20
6.800000000000001
 10
44.7
 20
6.9
 10
44.7
 20
7.0
 10
44.7
 20
7.1000000000000005
 10
44.7
 20
7.2
 10
44.7
 20
7.300000000000001
 10
44.7
 20
7.4
 10
44.7
 20
7.5
 10
44.7
 20
7.6000000000000005
 10
44.7
 20
7.7
 10
44.7
 20
7.800000000000001
 10
44.7
 20
7.9
 10
44.7
 20
8.0
 10
44.6
 20
8.0
 10
44.5
 20
8.0
  0
LWPOLYLINE
  5
32
330
17
100
AcDbEntity
  8
0
100
AcDbPolyline
 90
28
 70
0
 10
44.1
 20
7.2
 10
44.2
 20
7.300000000000001
 10
44.300000000000004
 20
7.300000000000001
 10
44.400000000000006
 20
7.300000000000001
 10
44.5
 20
7.2
 10
44.5
 20
7.1000000000000005
 10
44.5
 20
7.0
 10
44.5
 20
6.9
 10
44.5
 20
6.800000000000001
 10
44.5
 20
6.7
 10
44.5
 20
6.6000000000000005
 10
44.5
 20
6.5
 10
44.5
 20
6.4
 10
44.5
 20
6.300000000000001
 10
44.400000000000006
 20
6.2
 10
44.300000000000004
 20
6.1000000000000005
 10
44.2
 20
6.1000000000000005
 10
44.1
 20
6.2
 10
44.0
 20
6.300000000000001
 10
44.0
 20
6.4
 10
44.0
 20
6.5
 10
44.0
 20
6.6000000000000005
 10
44.0
 20
6.7
 10
44.0
 20
6.800000000000001
 10
44.0
 20
6.9
 10
44.0
 20
7.0
 10
44.0
 20
7.1000000000000005
 10
44.1
 20
7.2
  0
LWPOLYLINE
  5
33
330
17
100
AcDbEntity
  8
0
100
AcDbPolyline
 90
60
 70
0
 10
42.1
 20
8.0
 10
42.1
 20
7.9
 10
42.1
 20
7.800000000000001
 10
42.1
 20
7.7
 10
42.1
 20
7.6000000000000005
 10
42.1
 20
7.5
 10
42.1
 20
7.4
 10
42.1
 20
7.300000000000001
 10
42.1
 20
7.2
 10
42.1
 20
7.1000000000000005
 10
42.1
 20
7.0
 10
42.1
 20
6.9
 10
42.1
 20
6.800000000000001
 10
42.1
 20
6.7
 10
42.1
 20
6.6000000000000005
 10
42.1
 20
6.5
 10
42.1
 20
6.4
 10
42.1
 20
6.300000000000001
 10
42.1
 20
6.2
 10
42.1
 20
6.1000000000000005
 10
42.1
 20
6.0
 10
42.2
 20
6.0
 10
42.300000000000004
 20
6.0
 10
42.400000000000006
 20
6.0
 10
42.5
 20
6.0
 10
42.6
 20
6.0
 10
42.7
 20
6.0
 10
42.800000000000004
 20
6.0
 10
42.900000000000006
 20
6.0
 10
43.0
 20
6.0
 10
43.1
 20
6.0
 10
43.1
 20
6.1000000000000005
 10
43.1
 20
6.2
 10
43.0
 20
6.2
 10
42.900000000000006
 20
6.2
 10
42.800000000000004
 20
6.2
 10
42.7
 20
6.2
 10
42.6
 20
6.2
 10
42.5
 20
6.2
 10
42.400000000000006
 20
6.2
 10
42.300000000000004
 20
6.300000000000001
 10
42.300000000000004
 20
6.4
 10
42.300000000000004
 20
6.5
 10
42.300000000000004
 20
6.6000000000000005
 10
42.300000000000004
 20
6.7
 10
42.300000000000004
 20
6.800000000000001
 10
42.300000000000004
 20
6.9
 10
42.300000000000004
 20
7.0
 10
42.300000000000004
 20
7.1000000000000005
 10
42.300000000000004
 20
7.2
 10
42.300000000000004
 20
7.300000000000001
 10
42.300000000000004
 20
7.4
 10
42.300000000000004
 20
7.5
 10
42.300000000000004
 20
7.6000000000000005
 10
42.300000000000004
 20
7.7
 10
42.300000000000004
 20
7.800000000000001
 10
42.300000000000004
 20
7.9
 10
42.300000000000004
 20
8.0
 10
42.2
 20
8.0
 10
42.1
 20
8.0
  0
LWPOLYLINE
  5
34
330
17
100
AcDbEntity
  8
0
100
AcDbPolyline
 90
162
 70
0
 10
38.6
 20
8.0
 10
38.6
 20
7.9
 10
38.6
 20
7.800000000000001
 10
38.6
 20
7.7
 10
38.6
 20
7.6000000000000005
 10
38.6
 20
7.5
 10
38.6
 20
7.4
 10
38.6
 20
7.300000000000001
 10
38.6
 20
7.2
 10
38.6
 20
7.1000000000000005
 10
38.6
 20
7.0
 10
38.6
 20
6.9
 10
38.6
 20
6.800000000000001
 10
38.6
 20
6.7
 10
38.6
 20
6.6000000000000005
 10
38.6
 20
6.5
 10
38.6
 20
6.4
 10
38.6
 20
6.300000000000001
 10
38.6
 20
6.2
 10
38.6
 20
6.1000000000000005
 10
38.6
 20
6.0
 10
38.7
 20
6.0
 10
38.800000000000004
 20
6.0
 10
38.800000000000004
 20
6.1000000000000005
 10
38.800000000000004
 20
6.2
 10
38.800000000000004
 20
6.300000000000001
 10
38.800000000000004
 20
6.4
 10
38.800000000000004
 20
6.5
 10
38.800000000000004
 20
6.6000000000000005
 10
38.800000000000004
 20
6.7
 10
38.800000000000004
 20
6.800000000000001
 10
38.900000000000006
 20
6.9
 10
39.0
 20
6.9
 10
39.1
 20
6.9
 10
39.2
 20
6.9
 10
39.300000000000004
 20
6.9
 10
39.400000000000006
 20
6.9
 10
39.5
 20
7.0
 10
39.6
 20
7.1000000000000005
 10
39.7
 20
7.2
 10
39.800000000000004
 20
7.300000000000001
 10
39.900000000000006
 20
7.2
 10
39.900000000000006
 20
7.1000000000000005
 10
39.900000000000006
 20
7.0
 10
39.900000000000006
 20
6.9
 10
39.900000000000006
 20
6.800000000000001
 10
39.900000000000006
 20
6.7
 10
39.900000000000006
 20
6.6000000000000005
 10
39.900000000000006
 20
6.5
 10
39.900000000000006
 20
6.4
 10
39.900000000000006
 20
6.300000000000001
 10
39.900000000000006
 20
6.2
 10
39.900000000000006
 20
6.1000000000000005
 10
39.900000000000006
 20
6.0
 10
40.0
 20
6.0
 10
40.1
 20
5.9
 10
40.2
 20
5.9
 10
40.300000000000004
 20
5.9
 10
40.300000000000004
 20
6.0
 10
40.300000000000004
 20
6.1000000000000005
 10
40.2
 20
6.1000000000000005
 10
40.1
 20
6.2
 10
40.1
 20
6.300000000000001
 10
40.1
 20
6.4
 10
40.1
 20
6.5
 10
40.1
 20
6.6000000000000005
 10
40.1
 20
6.7
 10
40.1
 20
6.800000000000001
 10
40.1
 20
6.9
 10
40.1
 20
7.0
 10
40.1
 20
7.1000000000000005
 10
40.1
 20
7.2
 10
40.2
 20
7.300000000000001
 10
40.300000000000004
 20
7.300000000000001
 10
40.400000000000006
 20
7.2
 10
40.5
 20
7.1000000000000005
 10
40.5
 20
7.0
 10
40.5
 20
6.9
 10
40.5
 20
6.800000000000001
 10
40.6
 20
6.7
 10
40.6
 20
6.6000000000000005
 10
40.6
 20
6.5
 10
40.6
 20
6.4
 10
40.7
 20
6.300000000000001
 10
40.7
 20
6.2
 10
40.7
 20
6.1000000000000005
 10
40.7
 20
6.0
 10
40.7
 20
5.9
 10
40.7
 20
5.800000000000001
 10
40.6
 20
5.7
 10
40.5
 20
5.7
 10
40.400000000000006
 20
5.6000000000000005
 10
40.400000000000006
 20
5.5
 10
40.5
 20
5.5
 10
40.6
 20
5.5
 10
40.7
 20
5.5
 10
40.800000000000004
 20
5.5
 10
40.800000000000004
 20
5.6000000000000005
 10
40.900000000000006
 20
5.7
 10
40.900000000000006
 20
5.800000000000001
 10
40.900000000000006
 20
5.9
 10
41.0
 20
6.0
 10
41.0
 20
6.1000000000000005
 10
41.0
 20
6.2
 10
41.0
 20
6.300000000000001
 10
41.1
 20
6.4
 10
41.1
 20
6.5
 10
41.1
 20
6.6000000000000005
 10
41.2
 20
6.7
 10
41.2
 20
6.800000000000001
 10
41.2
 20
6.9
 10
41.2
 20
7.0
 10
41.300000000000004
 20
7.1000000000000005
 10
41.300000000000004
 20
7.2
 10
41.300000000000004
 20
7.300000000000001
 10
41.300000000000004
 20
7.4
 10
41.300000000000004
 20
7.5
 10
41.2
 20
7.5
 10
41.1
 20
7.4
 10
41.1
 20
7.300000000000001
 10
41.1
 20
7.2
 10
41.0
 20
7.1000000000000005
 10
41.0
 20
7.0
 10
41.0
 20
6.9
 10
41.0
 20
6.800000000000001
 10
40.900000000000006
 20
6.7
 10
40.800000000000004
 20
6.7
 10
40.7
 20
6.800000000000001
 10
40.7
 20
6.9
 10
40.7
 20
7.0
 10
40.7
 20
7.1000000000000005
 10
40.6
 20
7.2
 10
40.6
 20
7.300000000000001
 10
40.6
 20
7.4
 10
40.6
 20
7.5
 10
40.5
 20
7.5
 10
40.400000000000006
 20
7.5
 10
40.300000000000004
 20
7.5
 10
40.2
 20
7.5
 10
40.1
 20
7.6000000000000005
 10
40.1
 20
7.7
 10
40.1
 20
7.800000000000001
 10
40.1
 20
7.9
 10
40.0
 20
7.9
 10
39.900000000000006
 20
7.9
 10
39.900000000000006
 20
7.800000000000001
 10
39.900000000000006
 20
7.7
 10
39.900000000000006
 20
7.6000000000000005
 10
39.800000000000004
 20
7.5
 10
39.7
 20
7.6000000000000005
 10
39.7
 20
7.7
 10
39.6
 20
7.800000000000001
 10
39.5
 20
7.9
 10
39.400000000000006
 20
7.9
 10
39.300000000000004
 20
8.0
 10
39.2
 20
8.0
 10
39.1
 20
8.0
 10
39.0
 20
8.0
 10
38.900000000000006
 20
8.0
 10
38.800000000000004
 20
8.0
 10
38.7
 20
8.0
 10
38.6
 20
8.0
  0
LWPOLYLINE
  5
35
330
17
100
AcDbEntity
  8
0
100
AcDbPolyline
 90
23
 70
0
 10
38.800000000000004
 20
7.7
 10
38.900000000000006
 20
7.800000000000001
 10
39.0
 20
7.800000000000001
 10
39.1
 20
7.800000000000001
 10
39.2
 20
7.800000000000001
 10
39.300000000000004
 20
7.800000000000001
 10
39.400000000000006
 20
7.7
 10
39.400000000000006
 20
7.6000000000000005
 10
39.5
 20
7.5
 10
39.5
 20
7.4
 10
39.400000000000006
 20
7.300000000000001
 10
39.400000000000006
 20
7.2
 10
39.300000000000004
 20
7.1000000000000005
 10
39.2
 20
7.1000000000000005
 10
39.1
 20
7.1000000000000005
 10
39.0
 20
7.1000000000000005
 10
38.900000000000006
 20
7.1000000000000005
 10
38.800000000000004
 20
7.2
 10
38.800000000000004
 20
7.300000000000001
 10
38.800000000000004
 20
7.4
 10
38.800000000000004
 20
7.5
 10
38.800000000000004
 20
7.6000000000000005
 10
38.800000000000004
 20
7.7
  0
LWPOLYLINE
  5
36
330
17
100
AcDbEntity
  8
0
100
AcDbPolyline
 90
87
 70
0
 10
36.9
 20
8.0
 10
36.800000000000004
 20
7.9
 10
36.7
 20
7.9
 10
36.7
 20
7.800000000000001
 10
36.6
 20
7.7
 10
36.6
 20
7.6000000000000005
 10
36.6
 20
7.5
 10
36.6
 20
7.4
 10
36.6
 20
7.300000000000001
 10
36.7
 20
7.2
 10
36.7
 20
7.1000000000000005
 10
36.800000000000004
 20
7.1000000000000005
 10
36.9
 20
7.0
 10
37.0
 20
6.9
 10
37.1
 20
6.9
 10
37.2
 20
6.9
 10
37.300000000000004
 20
6.800000000000001
 10
37.4
 20
6.7
 10
37.5
 20
6.6000000000000005
 10
37.5
 20
6.5
 10
37.5
 20
6.4
 10
37.5
 20
6.300000000000001
 10
37.4
 20
6.2
 10
37.300000000000004
 20
6.1000000000000005
 10
37.2
 20
6.1000000000000005
 10
37.1
 20
6.1000000000000005
 10
37.0
 20
6.1000000000000005
 10
36.9
 20
6.2
 10
36.800000000000004
 20
6.300000000000001
 10
36.800000000000004
 20
6.4
 10
36.800000000000004
 20
6.5
 10
36.800000000000004
 20
6.6000000000000005
 10
36.7
 20
6.6000000000000005
 10
36.6
 20
6.6000000000000005
 10
36.6
 20
6.5
 10
36.6
 20
6.4
 10
36.6
 20
6.300000000000001
 10
36.6
 20
6.2
 10
36.7
 20
6.1000000000000005
 10
36.800000000000004
 20
6.0
 10
36.9
 20
6.0
 10
37.0
 20
5.9
 10
37.1
 20
5.9
 10
37.2
 20
5.9
 10
37.300000000000004
 20
5.9
 10
37.4
 20
6.0
 10
37.5
 20
6.0
 10
37.6
 20
6.1000000000000005
 10
37.7
 20
6.2
 10
37.7
 20
6.300000000000001
 10
37.7
 20
6.4
 10
37.7
 20
6.5
 10
37.7
 20
6.6000000000000005
 10
37.7
 20
6.7
 10
37.7
 20
6.800000000000001
 10
37.6
 20
6.9
 10
37.5
 20
7.0
 10
37.4
 20
7.0
 10
37.300000000000004
 20
7.1000000000000005
 10
37.2
 20
7.1000000000000005
 10
37.1
 20
7.1000000000000005
 10
37.0
 20
7.2
 10
36.9
 20
7.300000000000001
 10
36.800000000000004
 20
7.4
 10
36.800000000000004
 20
7.5
 10
36.800000000000004
 20
7.6000000000000005
 10
36.9
 20
7.7
 10
37.0
 20
7.800000000000001
 10
37.1
 20
7.800000000000001
 10
37.2
 20
7.800000000000001
 10
37.300000000000004
 20
7.800000000000001
 10
37.4
 20
7.7
 10
37.4
 20
7.6000000000000005
 10
37.5
 20
7.5
 10
37.6
 20
7.5
 10
37.7
 20
7.5
 10
37.7
 20
7.6000000000000005
 10
37.6
 20
7.7
 10
37.6
 20
7.800000000000001
 10
37.6
 20
7.9
 10
37.5
 20
7.9
 10
37.4
 20
8.0
 10
37.300000000000004
 20
8.0
 10
37.2
 20
8.0
 10
37.1
 20
8.0
 10
37.0
 20
8.0
 10
36.9
 20
8.0
  0
LWPOLYLINE
  5
37
330
17
100
AcDbEntity
  8
0
100
AcDbPolyline
 90
87
 70
0
 10
35.4
 20
8.0
 10
35.4
 20
7.9
 10
35.4
 20
7.800000000000001
 10
35.4
 20
7.7
 10
35.4
 20
7.6000000000000005
 10
35.4
 20
7.5
 10
35.4
 20
7.4
 10
35.4
 20
7.300000000000001
 10
35.4
 20
7.2
 10
35.4
 20
7.1000000000000005
 10
35.4
 20
7.0
 10
35.4
 20
6.9
 10
35.4
 20
6.800000000000001
 10
35.4
 20
6.7
 10
35.4
 20
6.6000000000000005
 10
35.4
 20
6.5
 10
35.4
 20
6.4
 10
35.4
 20
6.300000000000001
 10
35.4
 20
6.2
 10
35.4
 20
6.1000000000000005
 10
35.4
 20
6.0
 10
35.5
 20
6.0
 10
35.6
 20
6.0
 10
35.7
 20
6.0
 10
35.800000000000004
 20
6.0
 10
35.9
 20
6.0
 10
36.0
 20
6.0
 10
36.1
 20
6.0
 10
36.2
 20
6.0
 10
36.300000000000004
 20
6.0
 10
36.4
 20
6.0
 10
36.4
 20
6.1000000000000005
 10
36.4
 20
6.2
 10
36.300000000000004
 20
6.2
 10
36.2
 20
6.2
 10
36.1
 20
6.2
 10
36.0
 20
6.2
 10
35.9
 20
6.2
 10
35.800000000000004
 20
6.2
 10
35.7
 20
6.2
 10
35.6
 20
6.300000000000001
 10
35.6
 20
6.4
 10
35.6
 20
6.5
 10
35.6
 20
6.6000000000000005
 10
35.6
 20
6.7
 10
35.6
 20
6.800000000000001
 10
35.7
 20
6.9
 10
35.800000000000004
 20
6.9
 10
35.9
 20
6.9
 10
36.0
 20
6.9
 10
36.1
 20
6.9
 10
36.2
 20
6.9
 10
36.300000000000004
 20
6.9
 10
36.300000000000004
 20
7.0
 10
36.300000000000004
 20
7.1000000000000005
 10
36.2
 20
7.1000000000000005
 10
36.1
 20
7.1000000000000005
 10
36.0
 20
7.1000000000000005
 10
35.9
 20
7.1000000000000005
 10
35.800000000000004
 20
7.1000000000000005
 10
35.7
 20
7.1000000000000005
 10
35.6
 20
7.2
 10
35.6
 20
7.300000000000001
 10
35.6
 20
7.4
 10
35.6
 20
7.5
 10
35.6
 20
7.6000000000000005
 10
35.6
 20
7.7
 10
35.7
 20
7.800000000000001
 10
35.800000000000004
 20
7.800000000000001
 10
35.9
 20
7.800000000000001
 10
36.0
 20
7.800000000000001
 10
36.1
 20
7.800000000000001
 10
36.2
 20
7.800000000000001
 10
36.300000000000004
 20
7.800000000000001
 10
36.4
 20
7.800000000000001
 10
36.4
 20
7.9
 10
36.4
 20
8.0
 10
36.300000000000004
 20
8.0
 10
36.2
 20
8.0
 10
36.1
 20
8.0
 10
36.0
 20
8.0
 10
35.9
 20
8.0
 10
35.800000000000004
 20
8.0
 10
35.7
 20
8.0
 10
35.6
 20
8.0
 10
35.5
 20
8.0
 10
35.4
 20
8.0
  0
LWPOLYLINE
  5
38
330
17
100
AcDbEntity
  8
0
100
AcDbPolyline
 90
83
 70
0
 10
34.2
 20
8.0
 10
34.1
 20
7.9
 10
34.0
 20
7.800000000000001
 10
34.0
 20
7.7
 10
33.9
 20
7.6000000000000005
 10
33.9
 20
7.5
 10
33.9
 20
7.4
 10
33.9
 20
7.300000000000001
 10
33.9
 20
7.2
 10
33.9
 20
7.1000000000000005
 10
33.9
 20
7.0
 10
33.9
 20
6.9
 10
33.9
 20
6.800000000000001
 10
33.9
 20
6.7
 10
33.9
 20
6.6000000000000005
 10
33.9
 20
6.5
 10
33.9
 20
6.4
 10
34.0
 20
6.300000000000001
 10
34.0
 20
6.2
 10
34.1
 20
6.1000000000000005
 10
34.2
 20
6.0
 10
34.300000000000004
 20
5.9
 10
34.4
 20
5.9
 10
34.5
 20
5.9
 10
34.6
 20
5.9
 10
34.7
 20
6.0
 10
34.800000000000004
 20
6.0
 10
34.9
 20
6.1000000000000005
 10
35.0
 20
6.2
 10
35.0
 20
6.300000000000001
 10
35.0
 20
6.4
 10
35.1
 20
6.5
 10
35.1
 20
6.6000000000000005
 10
35.1
 20
6.7
 10
35.0
 20
6.7
 10
34.9
 20
6.7
 10
34.800000000000004
 20
6.7
 10
34.800000000000004
 20
6.6000000000000005
 10
34.800000000000004
 20
6.5
 10
34.800000000000004
 20
6.4
 10
34.800000000000004
 20
6.300000000000001
 10
34.7
 20
6.2
 10
34.6
 20
6.1000000000000005
 10
34.5
 20
6.1000000000000005
 10
34.4
 20
6.1000000000000005
 10
34.300000000000004
 20
6.2
 10
34.2
 20
6.300000000000001
 10
34.2
 20
6.4
 10
34.1
 20
6.5
 10
34.1
 20
6.6000000000000005
 10
34.1
 20
6.7
 10
34.1
 20
6.800000000000001
 10
34.1
 20
6.9
 10
34.1
 20
7.0
 10
34.1
 20
7.1000000000000005
 10
34.1
 20
7.2
 10
34.1
 20
7.300000000000001
 10
34.1
 20
7.4
 10
34.1
 20
7.5
 10
34.2
 20
7.6000000000000005
 10
34.2
 20
7.7
 10
34.300000000000004
 20
7.800000000000001
 10
34.4
 20
7.800000000000001
 10
34.5
 20
7.9
 10
34.6
 20
7.800000000000001
 10
34.7
 20
7.7
 10
34.800000000000004
 20
7.6000000000000005
 10
34.800000000000004
 20
7.5
 10
34.800000000000004
 20
7.4
 10
34.9
 20
7.4
 10
35.0
 20
7.4
 10
35.0
 20
7.5
 10
35.0
 20
7.6000000000000005
 10
35.0
 20
7.7
 10
35.0
 20
7.800000000000001
 10
34.9
 20
7.9
 10
34.800000000000004
 20
8.0
 10
34.7
 20
8.0
 10
34.6
 20
8.0
 10
34.5
 20
8.0
 10
34.4
 20
8.0
 10
34.300000000000004
 20
8.0
 10
34.2
 20
8.0
  0
LWPOLYLINE
  5
39
330
17
100
AcDbEntity
  8
0
100
AcDbPolyline
 90
45
 70
0
 10
33.300000000000004
 20
8.0
 10
33.300000000000004
 20
7.9
 10
33.300000000000004
 20
7.800000000000001
 10
33.300000000000004
 20
7.7
 10
33.300000000000004
 20
7.6000000000000005
 10
33.300000000000004
 20
7.5
 10
33.300000000000004
 20
7.4
 10
33.300000000000004
 20
7.300000000000001
 10
33.300000000000004
 20
7.2
 10
33.300000000000004
 20
7.1000000000000005
 10
33.300000000000004
 20
7.0
 10
33.300000000000004
 20
6.9
 10
33.300000000000004
 20
6.800000000000001
 10
33.300000000000004
 20
6.7
 10
33.300000000000004
 20
6.6000000000000005
 10
33.300000000000004
 20
6.5
 10
33.300000000000004
 20
6.4
 10
33.300000000000004
 20
6.300000000000001
 10
33.300000000000004
 20
6.2
 10
33.300000000000004
 20
6.1000000000000005
 10
33.300000000000004
 20
6.0
 10
33.4
 20
6.0
 10
33.5
 20
6.0
 10
33.5
 20
6.1000000000000005
 10
33.5
 20
6.2
 10
33.5
 20
6.300000000000001
 10
33.5
 20
6.4
 10
33.5
 20
6.5
 10
33.5
 20
6.6000000000000005
 10
33.5
 20
6.7
 10
33.5
 20
6.800000000000001
 10
33.5
 20
6.9
 10
33.5
 20
7.0
 10
33.5
 20
7.1000000000000005
 10
33.5
 20
7.2
 10
33.5
 20
7.300000000000001
 10
33.5
 20
7.4
 10
33.5
 20
7.5
 10
33.5
 20
7.6000000000000005
 10
33.5
 20
7.7
 10
33.5
 20
7.800000000000001
 10
33.5
 20
7.9
 10
33.5
 20
8.0
 10
33.4
 20
8.0
 10
33.300000000000004
 20
8.0
  0
LWPOLYLINE
  5
3A
330
17
100
AcDbEntity
  8
0
100
AcDbPolyline
 90
77
 70
0
 10
31.8
 20
8.0
 10
31.8
 20
7.9
 10
31.8
 20
7.800000000000001
 10
31.8
 20
7.7
 10
31.8
 20
7.6000000000000005
 10
31.900000000000002
 20
7.5
 10
31.900000000000002
 20
7.4
 10
31.900000000000002
 20
7.300000000000001
 10
31.900000000000002
 20
7.2
 10
32.0
 20
7.1000000000000005
 10
32.0
 20
7.0
 10
32.0
 20
6.9
 10
32.1
 20
6.800000000000001
 10
32.1
 20
6.7
 10
32.1
 20
6.6000000000000005
 10
32.1
 20
6.5
 10
32.2
 20
6.4
 10
32.2
 20
6.300000000000001
 10
32.2
 20
6.2
 10
32.2
 20
6.1000000000000005
 10
32.300000000000004
 20
6.0
 10
32.4
 20
6.0
 10
32.5
 20
6.0
 10
32.6
 20
6.1000000000000005
 10
32.6
 20
6.2
 10
32.6
 20
6.300000000000001
 10
32.6
 20
6.4
 10
32.7
 20
6.5
 10
32.7
 20
6.6000000000000005
 10
32.7
 20
6.7
 10
32.7
 20
6.800000000000001
 10
32.800000000000004
 20
6.9
 10
32.800000000000004
 20
7.0
 10
32.800000000000004
 20
7.1000000000000005
 10
32.800000000000004
 20
7.2
 10
32.9
 20
7.300000000000001
 10
32.9
 20
7.4
 10
32.9
 20
7.5
 10
32.9
 20
7.6000000000000005
 10
33.0
 20
7.7
 10
33.0
 20
7.800000000000001
 10
33.0
 20
7.9
 10
33.0
 20
8.0
 10
32.9
 20
8.0
 10
32.800000000000004
 20
8.0
 10
32.800000000000004
 20
7.9
 10
32.800000000000004
 20
7.800000000000001
 10
32.800000000000004
 20
7.7
 10
32.7
 20
7.6000000000000005
 10
32.7
 20
7.5
 10
32.7
 20
7.4
 10
32.6
 20
7.300000000000001
 10
32.6
 20
7.2
 10
32.6
 20
7.1000000000000005
 10
32.6
 20
7.0
 10
32.5
 20
6.9
 10
32.5
 20
6.800000000000001
 10
32.5
 20
6.7
 10
32.5
 20
6.6000000000000005
 10
32.4
 20
6.5
 10
32.300000000000004
 20
6.6000000000000005
 10
32.300000000000004
 20
6.7
 10
32.300000000000004
 20
6.800000000000001
 10
32.2
 20
6.9
 10
32.2
 20
7.0
 10
32.2
 20
7.1000000000000005
 10
32.2
 20
7.2
 10
32.2
 20
7.300000000000001
 10
32.1
 20
7.4
 10
32.1
 20
7.5
 10
32.1
 20
7.6000000000000005
 10
32.1
 20
7.7
 10
32.0
 20
7.800000000000001
 10
32.0
 20
7.9
 10
32.0
 20
8.0
 10
31.900000000000002
 20
8.0
 10
31.8
 20
8.0
  0
LWPOLYLINE
  5
3B
330
17
100
AcDbEntity
  8
0
100
AcDbPolyline
 90
75
 70
0
 10
30.5
 20
8.0
 10
30.5
 20
7.9
 10
30.5
 20
7.800000000000001
 10
30.5
 20
7.7
 10
30.5
 20
7.6000000000000005
 10
30.5
 20
7.5
 10
30.5
 20
7.4
 10
30.5
 20
7.300000000000001
 10
30.5
 20
7.2
 10
30.5
 20
7.1000000000000005
 10
30.5
 20
7.0
 10
30.5
 20
6.9
 10
30.5
 20
6.800000000000001
 10
30.5
 20
6.7
 10
30.5
 20
6.6000000000000005
 10
30.5
 20
6.5
 10
30.5
 20
6.4
 10
30.5
 20
6.300000000000001
 10
30.5
 20
6.2
 10
30.5
 20
6.1000000000000005
 10
30.5
 20
6.0
 10
30.6
 20
6.0
 10
30.700000000000003
 20
6.0
 10
30.700000000000003
 20
6.1000000000000005
 10
30.700000000000003
 20
6.2
 10
30.700000000000003
 20
6.300000000000001
 10
30.700000000000003
 20
6.4
 10
30.700000000000003
 20
6.5
 10
30.700000000000003
 20
6.6000000000000005
 10
30.700000000000003
 20
6.7
 10
30.700000000000003
 20
6.800000000000001
 10
30.8
 20
6.9
 10
30.900000000000002
 20
6.9
 10
31.0
 20
6.9
 10
31.1
 20
6.9
 10
31.200000000000003
 20
6.800000000000001
 10
31.3
 20
6.7
 10
31.3
 20
6.6000000000000005
 10
31.3
 20
6.5
 10
31.3
 20
6.4
 10
31.3
 20
6.300000000000001
 10
31.3
 20
6.2
 10
31.3
 20
6.1000000000000005
 10
31.400000000000002
 20
6.0
 10
31.5
 20
6.0
 10
31.6
 20
6.0
 10
31.6
 20
6.1000000000000005
 10
31.5
 20
6.2
 10
31.5
 20
6.300000000000001
 10
31.5
 20
6.4
 10
31.5
 20
6.5
 10
31.5
 20
6.6000000000000005
 10
31.5
 20
6.7
 10
31.5
 20
6.800000000000001
 10
31.400000000000002
 20
6.9
 10
31.3
 20
7.0
 10
31.400000000000002
 20
7.1000000000000005
 10
31.5
 20
7.1000000000000005
 10
31.5
 20
7.2
 10
31.5
 20
7.300000000000001
 10
31.5
 20
7.4
 10
31.5
 20
7.5
 10
31.5
 20
7.6000000000000005
 10
31.5
 20
7.7
 10
31.5
 20
7.800000000000001
 10
31.400000000000002
 20
7.9
 10
31.3
 20
7.9
 10
31.200000000000003
 20
8.0
 10
31.1
 20
8.0
 10
31.0
 20
8.0
 10
30.900000000000002
 20
8.0
 10
30.8
 20
8.0
 10
30.700000000000003
 20
8.0
 10
30.6
 20
8.0
 10
30.5
 20
8.0
  0
LWPOLYLINE
  5
3C
330
17
100
AcDbEntity
  8
0
100
AcDbPolyline
 90
21
 70
0
 10
30.700000000000003
 20
7.7
 10
30.8
 20
7.800000000000001
 10
30.900000000000002
 20
7.800000000000001
 10
31.0
 20
7.800000000000001
 10
31.1
 20
7.800000000000001
 10
31.200000000000003
 20
7.7
 10
31.3
 20
7.6000000000000005
 10
31.3
 20
7.5
 10
31.3
 20
7.4
 10
31.3
 20
7.300000000000001
 10
31.200000000000003
 20
7.2
 10
31.1
 20
7.1000000000000005
 10
31.0
 20
7.1000000000000005
 10
30.900000000000002
 20
7.1000000000000005
 10
30.8
 20
7.1000000000000005
 10
30.700000000000003
 20
7.2
 10
30.700000000000003
 20
7.300000000000001
 10
30.700000000000003
 20
7.4
 10
30.700000000000003
 20
7.5
 10
30.700000000000003
 20
7.6000000000000005
 10
30.700000000000003
 20
7.7
  0
LWPOLYLINE
  5
3D
330
17
100
AcDbEntity
  8
0
100
AcDbPolyline
 90
83
 70
0
 10
29.3
 20
8.0
 10
29.3
 20
7.9
 10
29.3
 20
7.800000000000001
 10
29.3
 20
7.7
 10
29.3
 20
7.6000000000000005
 10
29.3
 20
7.5
 10
29.3
 20
7.4
 10
29.3
 20
7.300000000000001
 10
29.3
 20
7.2
 10
29.3
 20
7.1000000000000005
 10
29.3
 20
7.0
 10
29.3
 20
6.9
 10
29.3
 20
6.800000000000001
 10
29.3
 20
6.7
 10
29.3
 20
6.6000000000000005
 10
29.3
 20
6.5
 10
29.3
 20
6.4
 10
29.3
 20
6.300000000000001
 10
29.3
 20
6.2
 10
29.3
 20
6.1000000000000005
 10
29.3
 20
6.0
 10
29.400000000000002
 20
6.0
 10
29.5
 20
6.0
 10
29.6
 20
6.0
 10
29.700000000000003
 20
6.0
 10
29.8
 20
6.0
 10
29.900000000000002
 20
6.0
 10
30.0
 20
6.0
 10
30.1
 20
6.0
 10
30.200000000000003
 20
6.0
 10
30.200000000000003
 20
6.1000000000000005
 10
30.200000000000003
 20
6.2
 10
30.1
 20
6.2
 10
30.0
 20
6.2
 10
29.900000000000002
 20
6.2
 10
29.8
 20
6.2
 10
29.700000000000003
 20
6.2
 10
29.6
 20
6.2
 10
29.5
 20
6.300000000000001
 10
29.5
 20
6.4
 10
29.5
 20
6.5
 10
29.5
 20
6.6000000000000005
 10
29.5
 20
6.7
 10
29.5
 20
6.800000000000001
 10
29.6
 20
6.9
 10
29.700000000000003
 20
6.9
 10
29.8
 20
6.9
 10
29.900000000000002
 20
6.9
 10
30.0
 20
6.9
 10
30.1
 20
6.9
 10
30.200000000000003
 20
6.9
 10
30.200000000000003
 20
7.0
 10
30.200000000000003
 20
7.1000000000000005
 10
30.1
 20
7.1000000000000005
 10
30.0
 20
7.1000000000000005
 10
29.900000000000002
 20
7.1000000000000005
 10
29.8
 20
7.1000000000000005
 10
29.700000000000003
 20
7.1000000000000005
 10
29.6
 20
7.1000000000000005
 10
29.5
 20
7.2
 10
29.5
 20
7.300000000000001
 10
29.5
 20
7.4
 10
29.5
 20
7.5
 10
29.5
 20
7.6000000000000005
 10
29.5
 20
7.7
 10
29.6
 20
7.800000000000001
 10
29.700000000000003
 20
7.800000000000001
 10
29.8
 20
7.800000000000001
 10
29.900000000000002
 20
7.800000000000001
 10
30.0
 20
7.800000000000001
 10
30.1
 20
7.800000000000001
 10
30.200000000000003
 20
7.800000000000001
 10
30.200000000000003
 20
7.9
 10
30.200000000000003
 20
8.0
 10
30.1
 20
8.0
 10
30.0
 20
8.0
 10
29.900000000000002
 20
8.0
 10
29.8
 20
8.0
 10
29.700000000000003
 20
8.0
 10
29.6
 20
8.0
 10
29.5
 20
8.0
 10
29.400000000000002
 20
8.0
 10
29.3
 20
8.0
  0
LWPOLYLINE
  5
3E
330
17
100
AcDbEntity
  8
0
100
AcDbPolyline
 90
86
 70
0
 10
28.1
 20
8.0
 10
28.0
 20
7.9
 10
27.900000000000002
 20
7.800000000000001
 10
27.900000000000002
 20
7.7
 10
27.900000000000002
 20
7.6000000000000005
 10
27.900000000000002
 20
7.5
 10
27.900000000000002
 20
7.4
 10
27.900000000000002
 20
7.300000000000001
 10
27.900000000000002
 20
7.2
 10
28.0
 20
7.1000000000000005
 10
28.1
 20
7.0
 10
28.200000000000003
 20
7.0
 10
28.3
 20
6.9
 10
28.400000000000002
 20
6.9
 10
28.5
 20
6.800000000000001
 10
28.6
 20
6.800000000000001
 10
28.700000000000003
 20
6.7
 10
28.8
 20
6.6000000000000005
 10
28.8
 20
6.5
 10
28.8
 20
6.4
 10
28.700000000000003
 20
6.300000000000001
 10
28.6
 20
6.2
 10
28.5
 20
6.1000000000000005
 10
28.400000000000002
 20
6.1000000000000005
 10
28.3
 20
6.1000000000000005
 10
28.200000000000003
 20
6.2
 10
28.1
 20
6.300000000000001
 10
28.1
 20
6.4
 10
28.1
 20
6.5
 10
28.1
 20
6.6000000000000005
 10
28.0
 20
6.6000000000000005
 10
27.900000000000002
 20
6.6000000000000005
 10
27.900000000000002
 20
6.5
 10
27.900000000000002
 20
6.4
 10
27.900000000000002
 20
6.300000000000001
 10
27.900000000000002
 20
6.2
 10
28.0
 20
6.1000000000000005
 10
28.1
 20
6.0
 10
28.200000000000003
 20
5.9
 10
28.3
 20
5.9
 10
28.400000000000002
 20
5.9
 10
28.5
 20
5.9
 10
28.6
 20
5.9
 10
28.700000000000003
 20
6.0
 10
28.8
 20
6.0
 10
28.900000000000002
 20
6.1000000000000005
 10
29.0
 20
6.2
 10
29.0
 20
6.300000000000001
 10
29.0
 20
6.4
 10
29.0
 20
6.5
 10
29.0
 20
6.6000000000000005
 10
29.0
 20
6.7
 10
28.900000000000002
 20
6.800000000000001
 10
28.900000000000002
 20
6.9
 10
28.8
 20
6.9
 10
28.700000000000003
 20
7.0
 10
28.6
 20
7.0
 10
28.5
 20
7.1000000000000005
 10
28.400000000000002
 20
7.1000000000000005
 10
28.3
 20
7.2
 10
28.200000000000003
 20
7.300000000000001
 10
28.1
 20
7.4
 10
28.1
 20
7.5
 10
28.1
 20
7.6000000000000005
 10
28.200000000000003
 20
7.7
 10
28.3
 20
7.800000000000001
 10
28.400000000000002
 20
7.9
 10
28.5
 20
7.800000000000001
 10
28.6
 20
7.800000000000001
 10
28.700000000000003
 20
7.7
 10
28.700000000000003
 20
7.6000000000000005
 10
28.700000000000003
 20
7.5
 10
28.8
 20
7.5
 10
28.900000000000002
 20
7.5
 10
29.0
 20
7.5
 10
28.900000000000002
 20
7.6000000000000005
 10
28.900000000000002
 20
7.7
 10
28.900000000000002
 20
7.800000000000001
 10
28.8
 20
7.9
 10
28.700000000000003
 20
8.0
 10
28.6
 20
8.0
 10
28.5
 20
8.0
 10
28.400000000000002
 20
8.0
 10
28.3
 20
8.0
 10
28.200000000000003
 20
8.0
 10
28.1
 20
8.0
  0
LWPOLYLINE
  5
3F
330
17
100
AcDbEntity
  8
0
100
AcDbPolyline
 90
58
 70
0
 10
26.200000000000003
 20
8.0
 10
26.200000000000003
 20
7.9
 10
26.200000000000003
 20
7.800000000000001
 10
26.200000000000003
 20
7.7
 10
26.200000000000003
 20
7.6000000000000005
 10
26.200000000000003
 20
7.5
 10
26.200000000000003
 20
7.4
 10
26.200000000000003
 20
7.300000000000001
 10
26.200000000000003
 20
7.2
 10
26.200000000000003
 20
7.1000000000000005
 10
26.200000000000003
 20
7.0
 10
26.200000000000003
 20
6.9
 10
26.200000000000003
 20
6.800000000000001
 10
26.200000000000003
 20
6.7
 10
26.200000000000003
 20
6.6000000000000005
 10
26.200000000000003
 20
6.5
 10
26.200000000000003
 20
6.4
 10
26.200000000000003
 20
6.300000000000001
 10
26.200000000000003
 20
6.2
 10
26.200000000000003
 20
6.1000000000000005
 10
26.200000000000003
 20
6.0
 10
26.3
 20
6.0
 10
26.400000000000002
 20
6.0
 10
26.5
 20
6.0
 10
26.6
 20
6.0
 10
26.700000000000003
 20
6.0
 10
26.8
 20
6.0
 10
26.900000000000002
 20
6.0
 10
27.0
 20
6.0
 10
27.1
 20
6.0
 10
27.1
 20
6.1000000000000005
 10
27.1
 20
6.2
 10
27.0
 20
6.2
 10
26.900000000000002
 20
6.2
 10
26.8
 20
6.2
 10
26.700000000000003
 20
6.2
 10
26.6
 20
6.2
 10
26.5
 20
6.2
 10
26.400000000000002
 20
6.300000000000001
 10
26.400000000000002
 20
6.4
 10
26.400000000000002
 20
6.5
 10
26.400000000000002
 20
6.6000000000000005
 10
26.400000000000002
 20
6.7
 10
26.400000000000002
 20
6.800000000000001
 10
26.400000000000002
 20
6.9
 10
26.400000000000002
 20
7.0
 10
26.400000000000002
 20
7.1000000000000005
 10
26.400000000000002
 20
7.2
 10
26.400000000000002
 20
7.300000000000001
 10
26.400000000000002
 20
7.4
 10
26.400000000000002
 20
7.5
 10
26.400000000000002
 20
7.6000000000000005
 10
26.400000000000002
 20
7.7
 10
26.400000000000002
 20
7.800000000000001
 10
26.400000000000002
 20
7.9
 10
26.400000000000002
 20
8.0
 10
26.3
 20
8.0
 10
26.200000000000003
 20
8.0
  0
LWPOLYLINE
  5
40
330
17
100
AcDbEntity
  8
0
100
AcDbPolyline
 90
137
 70
0
 10
23.5
 20
8.0
 10
23.5
 20
7.9
 10
23.5
 20
7.800000000000001
 10
23.5
 20
7.7
 10
23.5
 20
7.6000000000000005
 10
23.5
 20
7.5
 10
23.5
 20
7.4
 10
23.5
 20
7.300000000000001
 10
23.5
 20
7.2
 10
23.5
 20
7.1000000000000005
 10
23.5
 20
7.0
 10
23.5
 20
6.9
 10
23.5
 20
6.800000000000001
 10
23.5
 20
6.7
 10
23.5
 20
6.6000000000000005
 10
23.5
 20
6.5
 10
23.5
 20
6.4
 10
23.5
 20
6.300000000000001
 10
23.5
 20
6.2
 10
23.5
 20
6.1000000000000005
 10
23.5
 20
6.0
 10
23.6
 20
6.0
 10
23.700000000000003
 20
6.0
 10
23.8
 20
6.0
 10
23.8
 20
6.1000000000000005
 10
23.8
 20
6.2
 10
23.8
 20
6.300000000000001
 10
23.8
 20
6.4
 10
23.8
 20
6.5
 10
23.8
 20
6.6000000000000005
 10
23.8
 20
6.7
 10
23.8
 20
6.800000000000001
 10
23.900000000000002
 20
6.9
 10
24.0
 20
6.9
 10
24.1
 20
6.9
 10
24.200000000000003
 20
6.800000000000001
 10
24.3
 20
6.7
 10
24.3
 20
6.6000000000000005
 10
24.3
 20
6.5
 10
24.3
 20
6.4
 10
24.400000000000002
 20
6.300000000000001
 10
24.400000000000002
 20
6.2
 10
24.400000000000002
 20
6.1000000000000005
 10
24.400000000000002
 20
6.0
 10
24.5
 20
6.0
 10
24.6
 20
6.0
 10
24.700000000000003
 20
6.0
 10
24.8
 20
6.0
 10
24.900000000000002
 20
6.0
 10
25.0
 20
6.0
 10
25.0
 20
6.1000000000000005
 10
25.0
 20
6.2
 10
25.0
 20
6.300000000000001
 10
25.1
 20
6.4
 10
25.1
 20
6.5
 10
25.200000000000003
 20
6.6000000000000005
 10
25.3
 20
6.6000000000000005
 10
25.400000000000002
 20
6.6000000000000005
 10
25.5
 20
6.6000000000000005
 10
25.6
 20
6.6000000000000005
 10
25.700000000000003
 20
6.5
 10
25.700000000000003
 20
6.4
 10
25.700000000000003
 20
6.300000000000001
 10
25.700000000000003
 20
6.2
 10
25.8
 20
6.1000000000000005
 10
25.8
 20
6.0
 10
25.900000000000002
 20
6.0
 10
26.0
 20
6.0
 10
26.0
 20
6.1000000000000005
 10
26.0
 20
6.2
 10
25.900000000000002
 20
6.300000000000001
 10
25.900000000000002
 20
6.4
 10
25.900000000000002
 20
6.5
 10
25.900000000000002
 20
6.6000000000000005
 10
25.8
 20
6.7
 10
25.8
 20
6.800000000000001
 10
25.8
 20
6.9
 10
25.8
 20
7.0
 10
25.700000000000003
 20
7.1000000000000005
 10
25.700000000000003
 20
7.2
 10
25.700000000000003
 20
7.300000000000001
 10
25.700000000000003
 20
7.4
 10
25.6
 20
7.5
 10
25.6
 20
7.6000000000000005
 10
25.6
 20
7.7
 10
25.6
 20
7.800000000000001
 10
25.5
 20
7.9
 10
25.5
 20
8.0
 10
25.400000000000002
 20
8.0
 10
25.3
 20
8.0
 10
25.200000000000003
 20
8.0
 10
25.200000000000003
 20
7.9
 10
25.200000000000003
 20
7.800000000000001
 10
25.200000000000003
 20
7.7
 10
25.1
 20
7.6000000000000005
 10
25.1
 20
7.5
 10
25.1
 20
7.4
 10
25.1
 20
7.300000000000001
 10
25.0
 20
7.2
 10
25.0
 20
7.1000000000000005
 10
25.0
 20
7.0
 10
25.0
 20
6.9
 10
24.900000000000002
 20
6.800000000000001
 10
24.900000000000002
 20
6.7
 10
24.900000000000002
 20
6.6000000000000005
 10
24.8
 20
6.5
 10
24.8
 20
6.4
 10
24.8
 20
6.300000000000001
 10
24.8
 20
6.2
 10
24.700000000000003
 20
6.1000000000000005
 10
24.6
 20
6.2
 10
24.6
 20
6.300000000000001
 10
24.6
 20
6.4
 10
24.5
 20
6.5
 10
24.5
 20
6.6000000000000005
 10
24.5
 20
6.7
 10
24.5
 20
6.800000000000001
 10
24.5
 20
6.9
 10
24.400000000000002
 20
7.0
 10
24.5
 20
7.1000000000000005
 10
24.5
 20
7.2
 10
24.6
 20
7.300000000000001
 10
24.6
 20
7.4
 10
24.6
 20
7.5
 10
24.6
 20
7.6000000000000005
 10
24.5
 20
7.7
 10
24.5
 20
7.800000000000001
 10
24.400000000000002
 20
7.9
 10
24.3
 20
7.9
 10
24.200000000000003
 20
8.0
 10
24.1
 20
8.0
 10
24.0
 20
8.0
 10
23.900000000000002
 20
8.0
 10
23.8
 20
8.0
 10
23.700000000000003
 20
8.0
 10
23.6
 20
8.0
 10
23.5
 20
8.0
  0
LWPOLYLINE
  5
41
330
17
100
AcDbEntity
  8
0
100
AcDbPolyline
 90
15
 70
0
 10
25.3
 20
7.300000000000001
 10
25.400000000000002
 20
7.4
 10
25.5
 20
7.300000000000001
 10
25.5
 20
7.2
 10
25.5
 20
7.1000000000000005
 10
25.5
 20
7.0
 10
25.6
 20
6.9
 10
25.5
 20
6.800000000000001
 10
25.400000000000002
 20
6.800000000000001
 10
25.3
 20
6.800000000000001
 10
25.200000000000003
 20
6.9
 10
25.200000000000003
 20
7.0
 10
25.200000000000003
 20
7.1000000000000005
 10
25.200000000000003
 20
7.2
 10
25.3
 20
7.300000000000001
  0
LWPOLYLINE
  5
42
330
17
100
AcDbEntity
  8
0
100
AcDbPolyline
 90
20
 70
0
 10
23.8
 20
7.7
 10
23.900000000000002
 20
7.800000000000001
 10
24.0
 20
7.800000000000001
 10
24.1
 20
7.800000000000001
 10
24.200000000000003
 20
7.800000000000001
 10
24.3
 20
7.7
 10
24.3
 20
7.6000000000000005
 10
24.400000000000002
 20
7.5
 10
24.400000000000002
 20
7.4
 10
24.3
 20
7.300000000000001
 10
24.200000000000003
 20
7.2
 10
24.1
 20
7.1000000000000005
 10
24.0
 20
7.1000000000000005
 10
23.900000000000002
 20
7.1000000000000005
 10
23.8
 20
7.2
 10
23.8
 20
7.300000000000001
 10
23.8
 20
7.4
 10
23.8
 20
7.5
 10
23.8
 20
7.6000000000000005
 10
23.8
 20
7.7
  0
LWPOLYLINE
  5
43
330
17
100
AcDbEntity
  8
0
100
AcDbPolyline
 90
93
 70
0
 10
22.1
 20
8.0
 10
22.1
 20
7.9
 10
22.1
 20
7.800000000000001
 10
22.1
 20
7.7
 10
22.1
 20
7.6000000000000005
 10
22.1
 20
7.5
 10
22.1
 20
7.4
 10
22.1
 20
7.300000000000001
 10
22.1
 20
7.2
 10
22.1
 20
7.1000000000000005
 10
22.1
 20
7.0
 10
22.1
 20
6.9
 10
22.1
 20
6.800000000000001
 10
22.1
 20
6.7
 10
22.1
 20
6.6000000000000005
 10
22.1
 20
6.5
 10
22.1
 20
6.4
 10
22.1
 20
6.300000000000001
 10
22.1
 20
6.2
 10
22.200000000000003
 20
6.1000000000000005
 10
22.3
 20
6.0
 10
22.400000000000002
 20
6.0
 10
22.5
 20
5.9
 10
22.6
 20
5.9
 10
22.700000000000003
 20
5.9
 10
22.8
 20
5.9
 10
22.900000000000002
 20
6.0
 10
23.0
 20
6.0
 10
23.1
 20
6.1000000000000005
 10
23.200000000000003
 20
6.2
 10
23.200000000000003
 20
6.300000000000001
 10
23.200000000000003
 20
6.4
 10
23.200000000000003
 20
6.5
 10
23.200000000000003
 20
6.6000000000000005
 10
23.200000000000003
 20
6.7
 10
23.200000000000003
 20
6.800000000000001
 10
23.200000000000003
 20
6.9
 10
23.200000000000003
 20
7.0
 10
23.200000000000003
 20
7.1000000000000005
 10
23.200000000000003
 20
7.2
 10
23.200000000000003
 20
7.300000000000001
 10
23.200000000000003
 20
7.4
 10
23.200000000000003
 20
7.5
 10
23.200000000000003
 20
7.6000000000000005
 10
23.200000000000003
 20
7.7
 10
23.200000000000003
 20
7.800000000000001
 10
23.200000000000003
 20
7.9
 10
23.200000000000003
 20
8.0
 10
23.1
 20
8.0
 10
23.0
 20
8.0
 10
23.0
 20
7.9
 10
23.0
 20
7.800000000000001
 10
23.0
 20
7.7
 10
23.0
 20
7.6000000000000005
 10
23.0
 20
7.5
 10
23.0
 20
7.4
 10
23.0
 20
7.300000000000001
 10
23.0
 20
7.2
 10
23.0
 20
7.1000000000000005
 10
23.0
 20
7.0
 10
23.0
 20
6.9
 10
23.0
 20
6.800000000000001
 10
23.0
 20
6.7
 10
23.0
 20
6.6000000000000005
 10
23.0
 20
6.5
 10
23.0
 20
6.4
 10
23.0
 20
6.300000000000001
 10
22.900000000000002
 20
6.2
 10
22.8
 20
6.1000000000000005
 10
22.700000000000003
 20
6.1000000000000005
 10
22.6
 20
6.1000000000000005
 10
22.5
 20
6.1000000000000005
 10
22.400000000000002
 20
6.2
 10
22.400000000000002
 20
6.300000000000001
 10
22.3
 20
6.4
 10
22.3
 20
6.5
 10
22.3
 20
6.6000000000000005
 10
22.3
 20
6.7
 10
22.3
 20
6.800000000000001
 10
22.3
 20
6.9
 10
22.3
 20
7.0
 10
22.3
 20
7.1000000000000005
 10
22.3
 20
7.2
 10
22.3
 20
7.300000000000001
 10
22.3
 20
7.4
 10
22.3
 20
7.5
 10
22.3
 20
7.6000000000000005
 10
22.3
 20
7.7
 10
22.3
 20
7.800000000000001
 10
22.3
 20
7.9
 10
22.3
 20
8.0
 10
22.200000000000003
 20
8.0
 10
22.1
 20
8.0
  0
LWPOLYLINE
  5
44
330
17
100
AcDbEntity
  8
0
100
AcDbPolyline
 90
61
 70
0
 10
20.8
 20
8.0
 10
20.8
 20
7.9
 10
20.8
 20
7.800000000000001
 10
20.900000000000002
 20
7.800000000000001
 10
21.0
 20
7.800000000000001
 10
21.1
 20
7.800000000000001
 10
21.200000000000003
 20
7.800000000000001
 10
21.3
 20
7.7
 10
21.3
 20
7.6000000000000005
 10
21.3
 20
7.5
 10
21.3
 20
7.4
 10
21.3
 20
7.300000000000001
 10
21.3
 20
7.2
 10
21.3
 20
7.1000000000000005
 10
21.3
 20
7.0
 10
21.3
 20
6.9
 10
21.3
 20
6.800000000000001
 10
21.3
 20
6.7
 10
21.3
 20
6.6000000000000005
 10
21.3
 20
6.5
 10
21.3
 20
6.4
 10
21.3
 20
6.300000000000001
 10
21.3
 20
6.2
 10
21.3
 20
6.1000000000000005
 10
21.3
 20
6.0
 10
21.400000000000002
 20
6.0
 10
21.5
 20
6.0
 10
21.5
 20
6.1000000000000005
 10
21.5
 20
6.2
 10
21.5
 20
6.300000000000001
 10
21.5
 20
6.4
 10
21.5
 20
6.5
 10
21.5
 20
6.6000000000000005
 10
21.5
 20
6.7
 10
21.5
 20
6.800000000000001
 10
21.5
 20
6.9
 10
21.5
 20
7.0
 10
21.5
 20
7.1000000000000005
 10
21.5
 20
7.2
 10
21.5
 20
7.300000000000001
 10
21.5
 20
7.4
 10
21.5
 20
7.5
 10
21.5
 20
7.6000000000000005
 10
21.5
 20
7.7
 10
21.6
 20
7.800000000000001
 10
21.700000000000003
 20
7.800000000000001
 10
21.8
 20
7.800000000000001
 10
21.900000000000002
 20
7.800000000000001
 10
21.900000000000002
 20
7.9
 10
21.900000000000002
 20
8.0
 10
21.8
 20
8.0
 10
21.700000000000003
 20
8.0
 10
21.6
 20
8.0
 10
21.5
 20
8.0
 10
21.400000000000002
 20
8.0
 10
21.3
 20
8.0
 10
21.200000000000003
 20
8.0
 10
21.1
 20
8.0
 10
21.0
 20
8.0
 10
20.900000000000002
 20
8.0
 10
20.8
 20
8.0
  0
LWPOLYLINE
  5
45
330
17
100
AcDbEntity
  8
0
100
AcDbPolyline
 90
58
 70
0
 10
20.0
 20
8.0
 10
20.0
 20
7.9
 10
20.0
 20
7.800000000000001
 10
20.0
 20
7.7
 10
20.0
 20
7.6000000000000005
 10
20.0
 20
7.5
 10
20.0
 20
7.4
 10
20.0
 20
7.300000000000001
 10
20.0
 20
7.2
 10
20.0
 20
7.1000000000000005
 10
20.0
 20
7.0
 10
20.0
 20
6.9
 10
20.0
 20
6.800000000000001
 10
20.0
 20
6.7
 10
20.0
 20
6.6000000000000005
 10
20.0
 20
6.5
 10
20.0
 20
6.4
 10
20.0
 20
6.300000000000001
 10
20.0
 20
6.2
 10
20.0
 20
6.1000000000000005
 10
20.0
 20
6.0
 10
20.1
 20
6.0
 10
20.200000000000003
 20
6.0
 10
20.3
 20
6.0
 10
20.400000000000002
 20
6.0
 10
20.5
 20
6.0
 10
20.6
 20
6.0
 10
20.700000000000003
 20
6.0
 10
20.8
 20
6.0
 10
20.900000000000002
 20
6.0
 10
20.900000000000002
 20
6.1000000000000005
 10
20.900000000000002
 20
6.2
 10
20.8
 20
6.2
 10
20.700000000000003
 20
6.2
 10
20.6
 20
6.2
 10
20.5
 20
6.2
 10
20.400000000000002
 20
6.2
 10
20.3
 20
6.2
 10
20.200000000000003
 20
6.300000000000001
 10
20.200000000000003
 20
6.4
 10
20.200000000000003
 20
6.5
 10
20.200000000000003
 20
6.6000000000000005
 10
20.200000000000003
 20
6.7
 10
20.200000000000003
 20
6.800000000000001
 10
20.200000000000003
 20
6.9
 10
20.200000000000003
 20
7.0
 10
20.200000000000003
 20
7.1000000000000005
 10
20.200000000000003
 20
7.2
 10
20.200000000000003
 20
7.300000000000001
 10
20.200000000000003
 20
7.4
 10
20.200000000000003
 20
7.5
 10
20.200000000000003
 20
7.6000000000000005
 10
20.200000000000003
 20
7.7
 10
20.200000000000003
 20
7.800000000000001
 10
20.200000000000003
 20
7.9
 10
20.200000000000003
 20
8.0
 10
20.1
 20
8.0
 10
20.0
 20
8.0
  0
LWPOLYLINE
  5
46
330
17
100
AcDbEntity
  8
0
100
AcDbPolyline
 90
93
 70
0
 10
18.5
 20
8.0
 10
18.5
 20
7.9
 10
18.5
 20
7.800000000000001
 10
18.5
 20
7.7
 10
18.5
 20
7.6000000000000005
 10
18.5
 20
7.5
 10
18.5
 20
7.4
 10
18.5
 20
7.300000000000001
 10
18.5
 20
7.2
 10
18.5
 20
7.1000000000000005
 10
18.5
 20
7.0
 10
18.5
 20
6.9
 10
18.5
 20
6.800000000000001
 10
18.5
 20
6.7
 10
18.5
 20
6.6000000000000005
 10
18.5
 20
6.5
 10
18.5
 20
6.4
 10
18.5
 20
6.300000000000001
 10
18.6
 20
6.2
 10
18.6
 20
6.1000000000000005
 10
18.7
 20
6.0
 10
18.8
 20
6.0
 10
18.900000000000002
 20
5.9
 10
19.0
 20
5.9
 10
19.1
 20
5.9
 10
19.200000000000003
 20
5.9
 10
19.3
 20
5.9
 10
19.400000000000002
 20
6.0
 10
19.5
 20
6.1000000000000005
 10
19.6
 20
6.2
 10
19.6
 20
6.300000000000001
 10
19.6
 20
6.4
 10
19.6
 20
6.5
 10
19.6
 20
6.6000000000000005
 10
19.6
 20
6.7
 10
19.6
 20
6.800000000000001
 10
19.6
 20
6.9
 10
19.6
 20
7.0
 10
19.6
 20
7.1000000000000005
 10
19.6
 20
7.2
 10
19.6
 20
7.300000000000001
 10
19.6
 20
7.4
 10
19.6
 20
7.5
 10
19.6
 20
7.6000000000000005
 10
19.6
 20
7.7
 10
19.6
 20
7.800000000000001
 10
19.6
 20
7.9
 10
19.6
 20
8.0
 10
19.5
 20
8.0
 10
19.400000000000002
 20
8.0
 10
19.400000000000002
 20
7.9
 10
19.400000000000002
 20
7.800000000000001
 10
19.400000000000002
 20
7.7
 10
19.400000000000002
 20
7.6000000000000005
 10
19.400000000000002
 20
7.5
 10
19.400000000000002
 20
7.4
 10
19.400000000000002
 20
7.300000000000001
 10
19.400000000000002
 20
7.2
 10
19.400000000000002
 20
7.1000000000000005
 10
19.400000000000002
 20
7.0
 10
19.400000000000002
 20
6.9
 10
19.400000000000002
 20
6.800000000000001
 10
19.400000000000002
 20
6.7
 10
19.400000000000002
 20
6.6000000000000005
 10
19.400000000000002
 20
6.5
 10
19.400000000000002
 20
6.4
 10
19.400000000000002
 20
6.300000000000001
 10
19.3
 20
6.2
 10
19.200000000000003
 20
6.1000000000000005
 10
19.1
 20
6.1000000000000005
 10
19.0
 20
6.1000000000000005
 10
18.900000000000002
 20
6.1000000000000005
 10
18.8
 20
6.2
 10
18.8
 20
6.300000000000001
 10
18.7
 20
6.4
 10
18.7
 20
6.5
 10
18.7
 20
6.6000000000000005
 10
18.7
 20
6.7
 10
18.7
 20
6.800000000000001
 10
18.7
 20
6.9
 10
18.7
 20
7.0
 10
18.7
 20
7.1000000000000005
 10
18.7
 20
7.2
 10
18.7
 20
7.300000000000001
 10
18.7
 20
7.4
 10
18.7
 20
7.5
 10
18.7
 20
7.6000000000000005
 10
18.7
 20
7.7
 10
18.7
 20
7.800000000000001
 10
18.7
 20
7.9
 10
18.7
 20
8.0
 10
18.6
 20
8.0
 10
18.5
 20
8.0
  0
LWPOLYLINE
  5
47
330
17
100
AcDbEntity
  8
0
100
AcDbPolyline
 90
82
 70
0
 10
17.3
 20
8.0
 10
17.2
 20
7.9
 10
17.2
 20
7.800000000000001
 10
17.1
 20
7.7
 10
17.1
 20
7.6000000000000005
 10
17.0
 20
7.5
 10
17.0
 20
7.4
 10
17.0
 20
7.300000000000001
 10
17.0
 20
7.2
 10
17.0
 20
7.1000000000000005
 10
17.0
 20
7.0
 10
17.0
 20
6.9
 10
17.0
 20
6.800000000000001
 10
17.0
 20
6.7
 10
17.0
 20
6.6000000000000005
 10
17.0
 20
6.5
 10
17.1
 20
6.4
 10
17.1
 20
6.300000000000001
 10
17.1
 20
6.2
 10
17.2
 20
6.1000000000000005
 10
17.3
 20
6.0
 10
17.400000000000002
 20
6.0
 10
17.5
 20
5.9
 10
17.6
 20
5.9
 10
17.7
 20
5.9
 10
17.8
 20
5.9
 10
17.900000000000002
 20
6.0
 10
18.0
 20
6.1000000000000005
 10
18.1
 20
6.2
 10
18.1
 20
6.300000000000001
 10
18.2
 20
6.4
 10
18.2
 20
6.5
 10
18.2
 20
6.6000000000000005
 10
18.2
 20
6.7
 10
18.1
 20
6.7
 10
18.0
 20
6.7
 10
18.0
 20
6.6000000000000005
 10
18.0
 20
6.5
 10
17.900000000000002
 20
6.4
 10
17.900000000000002
 20
6.300000000000001
 10
17.8
 20
6.2
 10
17.7
 20
6.1000000000000005
 10
17.6
 20
6.1000000000000005
 10
17.5
 20
6.1000000000000005
 10
17.400000000000002
 20
6.2
 10
17.3
 20
6.300000000000001
 10
17.3
 20
6.4
 10
17.3
 20
6.5
 10
17.3
 20
6.6000000000000005
 10
17.3
 20
6.7
 10
17.2
 20
6.800000000000001
 10
17.2
 20
6.9
 10
17.2
 20
7.0
 10
17.2
 20
7.1000000000000005
 10
17.2
 20
7.2
 10
17.3
 20
7.300000000000001
 10
17.3
 20
7.4
 10
17.3
 20
7.5
 10
17.3
 20
7.6000000000000005
 10
17.400000000000002
 20
7.7
 10
17.5
 20
7.800000000000001
 10
17.6
 20
7.9
 10
17.7
 20
7.800000000000001
 10
17.8
 20
7.800000000000001
 10
17.900000000000002
 20
7.7
 10
17.900000000000002
 20
7.6000000000000005
 10
17.900000000000002
 20
7.5
 10
18.0
 20
7.4
 10
18.1
 20
7.4
 10
18.2
 20
7.4
 10
18.2
 20
7.5
 10
18.2
 20
7.6000000000000005
 10
18.1
 20
7.7
 10
18.1
 20
7.800000000000001
 10
18.0
 20
7.9
 10
17.900000000000002
 20
8.0
 10
17.8
 20
8.0
 10
17.7
 20
8.0
 10
17.6
 20
8.0
 10
17.5
 20
8.0
 10
17.400000000000002
 20
8.0
 10
17.3
 20
8.0
  0
LWPOLYLINE
  5
48
330
17
100
AcDbEntity
  8
0
100
AcDbPolyline
 90
45
 70
0
 10
16.5
 20
8.0
 10
16.5
 20
7.9
 10
16.5
 20
7.800000000000001
 10
16.5
 20
7.7
 10
16.5
 20
7.6000000000000005
 10
16.5
 20
7.5
 10
16.5
 20
7.4
 10
16.5
 20
7.300000000000001
 10
16.5
 20
7.2
 10
16.5
 20
7.1000000000000005
 10
16.5
 20
7.0
 10
16.5
 20
6.9
 10
16.5
 20
6.800000000000001
 10
16.5
 20
6.7
 10
16.5
 20
6.6000000000000005
 10
16.5
 20
6.5
 10
16.5
 20
6.4
 10
16.5
 20
6.300000000000001
 10
16.5
 20
6.2
 10
16.5
 20
6.1000000000000005
 10
16.5
 20
6.0
 10
16.6
 20
6.0
 10
16.7
 20
6.0
 10
16.7
 20
6.1000000000000005
 10
16.7
 20
6.2
 10
16.7
 20
6.300000000000001
 10
16.7
 20
6.4
 10
16.7
 20
6.5
 10
16.7
 20
6.6000000000000005
 10
16.7
 20
6.7
 10
16.7
 20
6.800000000000001
 10
16.7
 20
6.9
 10
16.7
 20
7.0
 10
16.7
 20
7.1000000000000005
 10
16.7
 20
7.2
 10
16.7
 20
7.300000000000001
 10
16.7
 20
7.4
 10
16.7
 20
7.5
 10
16.7
 20
7.6000000000000005
 10
16.7
 20
7.7
 10
16.7
 20
7.800000000000001
 10
16.7
 20
7.9
 10
16.7
 20
8.0
 10
16.6
 20
8.0
 10
16.5
 20
8.0
  0
LWPOLYLINE
  5
49
330
17
100
AcDbEntity
  8
0
100
AcDbPolyline
 90
137
 70
0
 10
14.0
 20
8.0
 10
14.0
 20
7.9
 10
14.0
 20
7.800000000000001
 10
14.0
 20
7.7
 10
14.0
 20
7.6000000000000005
 10
14.0
 20
7.5
 10
14.0
 20
7.4
 10
14.0
 20
7.300000000000001
 10
14.0
 20
7.2
 10
14.0
 20
7.1000000000000005
 10
14.0
 20
7.0
 10
14.0
 20
6.9
 10
14.0
 20
6.800000000000001
 10
14.0
 20
6.7
 10
14.0
 20
6.6000000000000005
 10
14.0
 20
6.5
 10
14.0
 20
6.4
 10
14.0
 20
6.300000000000001
 10
14.0
 20
6.2
 10
14.0
 20
6.1000000000000005
 10
14.0
 20
6.0
 10
14.100000000000001
 20
6.0
 10
14.200000000000001
 20
6.0
 10
14.200000000000001
 20
6.1000000000000005
 10
14.200000000000001
 20
6.2
 10
14.200000000000001
 20
6.300000000000001
 10
14.200000000000001
 20
6.4
 10
14.200000000000001
 20
6.5
 10
14.200000000000001
 20
6.6000000000000005
 10
14.200000000000001
 20
6.7
 10
14.200000000000001
 20
6.800000000000001
 10
14.3
 20
6.9
 10
14.4
 20
6.9
 10
14.5
 20
6.9
 10
14.600000000000001
 20
6.9
 10
14.700000000000001
 20
6.800000000000001
 10
14.8
 20
6.7
 10
14.8
 20
6.6000000000000005
 10
14.8
 20
6.5
 10
14.8
 20
6.4
 10
14.8
 20
6.300000000000001
 10
14.8
 20
6.2
 10
14.8
 20
6.1000000000000005
 10
14.8
 20
6.0
 10
14.9
 20
6.0
 10
15.0
 20
6.0
 10
15.100000000000001
 20
6.0
 10
15.100000000000001
 20
6.1000000000000005
 10
15.0
 20
6.2
 10
15.0
 20
6.300000000000001
 10
15.0
 20
6.4
 10
15.0
 20
6.5
 10
15.0
 20
6.6000000000000005
 10
15.0
 20
6.7
 10
15.0
 20
6.800000000000001
 10
14.9
 20
6.9
 10
14.8
 20
7.0
 10
14.9
 20
7.1000000000000005
 10
15.0
 20
7.2
 10
15.0
 20
7.300000000000001
 10
15.0
 20
7.4
 10
15.0
 20
7.5
 10
15.0
 20
7.6000000000000005
 10
15.0
 20
7.7
 10
15.100000000000001
 20
7.800000000000001
 10
15.200000000000001
 20
7.800000000000001
 10
15.3
 20
7.800000000000001
 10
15.4
 20
7.800000000000001
 10
15.5
 20
7.800000000000001
 10
15.600000000000001
 20
7.7
 10
15.600000000000001
 20
7.6000000000000005
 10
15.600000000000001
 20
7.5
 10
15.600000000000001
 20
7.4
 10
15.600000000000001
 20
7.300000000000001
 10
15.600000000000001
 20
7.2
 10
15.600000000000001
 20
7.1000000000000005
 10
15.600000000000001
 20
7.0
 10
15.600000000000001
 20
6.9
 10
15.600000000000001
 20
6.800000000000001
 10
15.600000000000001
 20
6.7
 10
15.600000000000001
 20
6.6000000000000005
 10
15.600000000000001
 20
6.5
 10
15.600000000000001
 20
6.4
 10
15.600000000000001
 20
6.300000000000001
 10
15.600000000000001
 20
6.2
 10
15.600000000000001
 20
6.1000000000000005
 10
15.600000000000001
 20
6.0
 10
15.700000000000001
 20
6.0
 10
15.8
 20
6.0
 10
15.8
 20
6.1000000000000005
 10
15.8
 20
6.2
 10
15.8
 20
6.300000000000001
 10
15.8
 20
6.4
 10
15.8
 20
6.5
 10
15.8
 20
6.6000000000000005
 10
15.8
 20
6.7
 10
15.8
 20
6.800000000000001
 10
15.8
 20
6.9
 10
15.8
 20
7.0
 10
15.8
 20
7.1000000000000005
 10
15.8
 20
7.2
 10
15.8
 20
7.300000000000001
 10
15.8
 20
7.4
 10
15.8
 20
7.5
 10
15.8
 20
7.6000000000000005
 10
15.8
 20
7.7
 10
15.9
 20
7.800000000000001
 10
16.0
 20
7.800000000000001
 10
16.1
 20
7.800000000000001
 10
16.2
 20
7.800000000000001
 10
16.3
 20
7.800000000000001
 10
16.3
 20
7.9
 10
16.3
 20
8.0
 10
16.2
 20
8.0
 10
16.1
 20
8.0
 10
16.0
 20
8.0
 10
15.9
 20
8.0
 10
15.8
 20
8.0
 10
15.700000000000001
 20
8.0
 10
15.600000000000001
 20
8.0
 10
15.5
 20
8.0
 10
15.4
 20
8.0
 10
15.3
 20
8.0
 10
15.200000000000001
 20
8.0
 10
15.100000000000001
 20
8.0
 10
15.100000000000001
 20
7.9
 10
15.0
 20
7.800000000000001
 10
14.9
 20
7.9
 10
14.8
 20
7.9
 10
14.700000000000001
 20
8.0
 10
14.600000000000001
 20
8.0
 10
14.5
 20
8.0
 10
14.4
 20
8.0
 10
14.3
 20
8.0
 10
14.200000000000001
 20
8.0
 10
14.100000000000001
 20
8.0
 10
14.0
 20
8.0
  0
LWPOLYLINE
  5
4A
330
17
100
AcDbEntity
  8
0
100
AcDbPolyline
 90
21
 70
0
 10
14.200000000000001
 20
7.7
 10
14.3
 20
7.800000000000001
 10
14.4
 20
7.800000000000001
 10
14.5
 20
7.800000000000001
 10
14.600000000000001
 20
7.800000000000001
 10
14.700000000000001
 20
7.7
 10
14.8
 20
7.6000000000000005
 10
14.8
 20
7.5
 10
14.8
 20
7.4
 10
14.8
 20
7.300000000000001
 10
14.700000000000001
 20
7.2
 10
14.600000000000001
 20
7.1000000000000005
 10
14.5
 20
7.1000000000000005
 10
14.4
 20
7.1000000000000005
 10
14.3
 20
7.1000000000000005
 10
14.200000000000001
 20
7.2
 10
14.200000000000001
 20
7.300000000000001
 10
14.200000000000001
 20
7.4
 10
14.200000000000001
 20
7.5
 10
14.200000000000001
 20
7.6000000000000005
 10
14.200000000000001
 20
7.7
  0
LWPOLYLINE
  5
4B
330
17
100
AcDbEntity
  8
0
100
AcDbPolyline
 90
54
 70
0
 10
12.8
 20
8.0
 10
12.700000000000001
 20
7.9
 10
12.700000000000001
 20
7.800000000000001
 10
12.600000000000001
 20
7.7
 10
12.600000000000001
 20
7.6000000000000005
 10
12.600000000000001
 20
7.5
 10
12.5
 20
7.4
 10
12.5
 20
7.300000000000001
 10
12.5
 20
7.2
 10
12.5
 20
7.1000000000000005
 10
12.5
 20
7.0
 10
12.5
 20
6.9
 10
12.5
 20
6.800000000000001
 10
12.5
 20
6.7
 10
12.5
 20
6.6000000000000005
 10
12.5
 20
6.5
 10
12.600000000000001
 20
6.4
 10
12.600000000000001
 20
6.300000000000001
 10
12.600000000000001
 20
6.2
 10
12.700000000000001
 20
6.1000000000000005
 10
12.8
 20
6.0
 10
12.9
 20
6.0
 10
13.0
 20
5.9
 10
13.100000000000001
 20
5.9
 10
13.200000000000001
 20
5.9
 10
13.3
 20
5.9
 10
13.4
 20
6.0
 10
13.5
 20
6.0
 10
13.600000000000001
 20
6.1000000000000005
 10
13.600000000000001
 20
6.2
 10
13.700000000000001
 20
6.300000000000001
 10
13.700000000000001
 20
6.4
 10
13.700000000000001
 20
6.5
 10
13.700000000000001
 20
6.6000000000000005
 10
13.700000000000001
 20
6.7
 10
13.700000000000001
 20
6.800000000000001
 10
13.700000000000001
 20
6.9
 10
13.700000000000001
 20
7.0
 10
13.700000000000001
 20
7.1000000000000005
 10
13.700000000000001
 20
7.2
 10
13.700000000000001
 20
7.300000000000001
 10
13.700000000000001
 20
7.4
 10
13.700000000000001
 20
7.5
 10
13.700000000000001
 20
7.6000000000000005
 10
13.600000000000001
 20
7.7
 10
13.600000000000001
 20
7.800000000000001
 10
13.5
 20
7.9
 10
13.4
 20
8.0
 10
13.3
 20
8.0
 10
13.200000000000001
 20
8.0
 10
13.100000000000001
 20
8.0
 10
13.0
 20
8.0
 10
12.9
 20
8.0
 10
12.8
 20
8.0
  0
LWPOLYLINE
  5
4C
330
17
100
AcDbEntity
  8
0
100
AcDbPolyline
 90
40
 70
0
 10
13.0
 20
7.800000000000001
 10
13.100000000000001
 20
7.9
 10
13.200000000000001
 20
7.800000000000001
 10
13.3
 20
7.800000000000001
 10
13.4
 20
7.7
 10
13.4
 20
7.6000000000000005
 10
13.5
 20
7.5
 10
13.5
 20
7.4
 10
13.5
 20
7.300000000000001
 10
13.5
 20
7.2
 10
13.5
 20
7.1000000000000005
 10
13.5
 20
7.0
 10
13.5
 20
6.9
 10
13.5
 20
6.800000000000001
 10
13.5
 20
6.7
 10
13.5
 20
6.6000000000000005
 10
13.5
 20
6.5
 10
13.5
 20
6.4
 10
13.4
 20
6.300000000000001
 10
13.3
 20
6.2
 10
13.200000000000001
 20
6.1000000000000005
 10
13.100000000000001
 20
6.1000000000000005
 10
13.0
 20
6.1000000000000005
 10
12.9
 20
6.2
 10
12.8
 20
6.300000000000001
 10
12.8
 20
6.4
 10
12.8
 20
6.5
 10
12.8
 20
6.6000000000000005
 10
12.8
 20
6.7
 10
12.8
 20
6.800000000000001
 10
12.700000000000001
 20
6.9
 10
12.700000000000001
 20
7.0
 10
12.700000000000001
 20
7.1000000000000005
 10
12.8
 20
7.2
 10
12.8
 20
7.300000000000001
 10
12.8
 20
7.4
 10
12.8
 20
7.5
 10
12.8
 20
7.6000000000000005
 10
12.9
 20
7.7
 10
13.0
 20
7.800000000000001
  0
LWPOLYLINE
  5
4D
330
17
100
AcDbEntity
  8
0
100
AcDbPolyline
 90
93
 70
0
 10
11.100000000000001
 20
8.0
 10
11.100000000000001
 20
7.9
 10
11.100000000000001
 20
7.800000000000001
 10
11.100000000000001
 20
7.7
 10
11.100000000000001
 20
7.6000000000000005
 10
11.100000000000001
 20
7.5
 10
11.100000000000001
 20
7.4
 10
11.100000000000001
 20
7.300000000000001
 10
11.100000000000001
 20
7.2
 10
11.100000000000001
 20
7.1000000000000005
 10
11.100000000000001
 20
7.0
 10
11.100000000000001
 20
6.9
 10
11.100000000000001
 20
6.800000000000001
 10
11.100000000000001
 20
6.7
 10
11.100000000000001
 20
6.6000000000000005
 10
11.100000000000001
 20
6.5
 10
11.100000000000001
 20
6.4
 10
11.100000000000001
 20
6.300000000000001
 10
11.100000000000001
 20
6.2
 10
11.100000000000001
 20
6.1000000000000005
 10
11.100000000000001
 20
6.0
 10
11.200000000000001
 20
6.0
 10
11.3
 20
6.0
 10
11.3
 20
6.1000000000000005
 10
11.3
 20
6.2
 10
11.3
 20
6.300000000000001
 10
11.3
 20
6.4
 10
11.3
 20
6.5
 10
11.3
 20
6.6000000000000005
 10
11.3
 20
6.7
 10
11.3
 20
6.800000000000001
 10
11.4
 20
6.9
 10
11.5
 20
6.9
 10
11.600000000000001
 20
6.9
 10
11.700000000000001
 20
6.9
 10
11.8
 20
6.9
 10
11.9
 20
6.9
 10
12.0
 20
6.800000000000001
 10
12.0
 20
6.7
 10
12.0
 20
6.6000000000000005
 10
12.0
 20
6.5
 10
12.0
 20
6.4
 10
12.0
 20
6.300000000000001
 10
12.0
 20
6.2
 10
12.0
 20
6.1000000000000005
 10
12.0
 20
6.0
 10
12.100000000000001
 20
6.0
 10
12.200000000000001
 20
6.0
 10
12.200000000000001
 20
6.1000000000000005
 10
12.200000000000001
 20
6.2
 10
12.200000000000001
 20
6.300000000000001
 10
12.200000000000001
 20
6.4
 10
12.200000000000001
 20
6.5
 10
12.200000000000001
 20
6.6000000000000005
 10
12.200000000000001
 20
6.7
 10
12.200000000000001
 20
6.800000000000001
 10
12.200000000000001
 20
6.9
 10
12.200000000000001
 20
7.0
 10
12.200000000000001
 20
7.1000000000000005
 10
12.200000000000001
 20
7.2
 10
12.200000000000001
 20
7.300000000000001
 10
12.200000000000001
 20
7.4
 10
12.200000000000001
 20
7.5
 10
12.200000000000001
 20
7.6000000000000005
 10
12.200000000000001
 20
7.7
 10
12.200000000000001
 20
7.800000000000001
 10
12.200000000000001
 20
7.9
 10
12.200000000000001
 20
8.0
 10
12.100000000000001
 20
8.0
 10
12.0
 20
8.0
 10
12.0
 20
7.9
 10
12.0
 20
7.800000000000001
 10
12.0
 20
7.7
 10
12.0
 20
7.6000000000000005
 10
12.0
 20
7.5
 10
12.0
 20
7.4
 10
12.0
 20
7.300000000000001
 10
11.9
 20
7.2
 10
11.8
 20
7.2
 10
11.700000000000001
 20
7.2
 10
11.600000000000001
 20
7.2
 10
11.5
 20
7.2
 10
11.4
 20
7.2
 10
11.3
 20
7.300000000000001
 10
11.3
 20
7.4
 10
11.3
 20
7.5
 10
11.3
 20
7.6000000000000005
 10
11.3
 20
7.7
 10
11.3
 20
7.800000000000001
 10
11.3
 20
7.9
 10
11.3
 20
8.0
 10
11.200000000000001
 20
8.0
 10
11.100000000000001
 20
8.0
  0
LWPOLYLINE
  5
4E
330
17
100
AcDbEntity
  8
0
100
AcDbPolyline
 90
172
 70
0
 10
56.300000000000004
 20
11.0
 10
56.300000000000004
 20
10.9
 10
56.300000000000004
 20
10.8
 10
56.300000000000004
 20
10.700000000000001
 10
56.300000000000004
 20
10.600000000000001
 10
56.300000000000004
 20
10.5
 10
56.300000000000004
 20
10.4
 10
56.300000000000004
 20
10.3
 10
56.300000000000004
 20
10.200000000000001
 10
56.300000000000004
 20
10.100000000000001
 10
56.300000000000004
 20
10.0
 10
56.300000000000004
 20
9.9
 10
56.300000000000004
 20
9.8
 10
56.300000000000004
 20
9.700000000000001
 10
56.300000000000004
 20
9.600000000000001
 10
56.300000000000004
 20
9.5
 10
56.300000000000004
 20
9.4
 10
56.300000000000004
 20
9.3
 10
56.300000000000004
 20
9.200000000000001
 10
56.300000000000004
 20
9.1
 10
56.300000000000004
 20
9.0
 10
56.300000000000004
 20
8.9
 10
56.300000000000004
 20
8.8
 10
56.300000000000004
 20
8.700000000000001
 10
56.300000000000004
 20
8.6
 10
56.300000000000004
 20
8.5
 10
56.300000000000004
 20
8.4
 10
56.300000000000004
 20
8.3
 10
56.300000000000004
 20
8.200000000000001
 10
56.300000000000004
 20
8.1
 10
56.300000000000004
 20
8.0
 10
56.300000000000004
 20
7.9
 10
56.300000000000004
 20
7.800000000000001
 10
56.300000000000004
 20
7.7
 10
56.300000000000004
 20
7.6000000000000005
 10
56.300000000000004
 20
7.5
 10
56.300000000000004
 20
7.4
 10
56.300000000000004
 20
7.300000000000001
 10
56.300000000000004
 20
7.2
 10
56.300000000000004
 20
7.1000000000000005
 10
56.300000000000004
 20
7.0
 10
56.300000000000004
 20
6.9
 10
56.300000000000004
 20
6.800000000000001
 10
56.300000000000004
 20
6.7
 10
56.300000000000004
 20
6.6000000000000005
 10
56.300000000000004
 20
6.5
 10
56.300000000000004
 20
6.4
 10
56.300000000000004
 20
6.300000000000001
 10
56.300000000000004
 20
6.2
 10
56.300000000000004
 20
6.1000000000000005
 10
56.300000000000004
 20
6.0
 10
56.400000000000006
 20
6.0
 10
56.5
 20
6.0
 10
56.6
 20
6.0
 10
56.7
 20
6.0
 10
56.800000000000004
 20
6.0
 10
56.900000000000006
 20
6.0
 10
57.0
 20
6.0
 10
57.1
 20
6.0
 10
57.2
 20
6.0
 10
57.300000000000004
 20
6.0
 10
57.400000000000006
 20
6.0
 10
57.5
 20
6.0
 10
57.6
 20
6.0
 10
57.7
 20
6.0
 10
57.800000000000004
 20
6.0
 10
57.900000000000006
 20
6.0
 10
58.0
 20
6.0
 10
58.1
 20
6.0
 10
58.2
 20
6.0
 10
58.300000000000004
 20
6.0
 10
58.400000000000006
 20
6.0
 10
58.5
 20
6.0
 10
58.6
 20
6.0
 10
58.7
 20
6.0
 10
58.800000000000004
 20
6.0
 10
58.900000000000006
 20
6.0
 10
59.0
 20
6.0
 10
59.1
 20
6.0
 10
59.2
 20
6.0
 10
59.300000000000004
 20
6.0
 10
59.400000000000006
 20
6.0
 10
59.5
 20
6.0
 10
59.6
 20
6.0
 10
59.7
 20
6.0
 10
59.800000000000004
 20
6.0
 10
59.900000000000006
 20
6.0
 10
60.0
 20
6.0
 10
60.1
 20
6.0
 10
60.2
 20
6.0
 10
60.300000000000004
 20
6.0
 10
60.400000000000006
 20
6.0
 10
60.5
 20
6.0
 10
60.6
 20
6.0
 10
60.7
 20
6.0
 10
60.800000000000004
 20
6.0
 10
60.900000000000006
 20
6.0
 10
61.0
 20
6.0
 10
61.1
 20
6.0
 10
61.2
 20
6.0
 10
61.300000000000004
 20
6.0
 10
61.300000000000004
 20
6.1000000000000005
 10
61.300000000000004
 20
6.2
 10
61.300000000000004
 20
6.300000000000001
 10
61.2
 20
6.4
 10
61.2
 20
6.5
 10
61.2
 20
6.6000000000000005
 10
61.2
 20
6.7
 10
61.2
 20
6.800000000000001
 10
61.2
 20
6.9
 10
61.2
 20
7.0
 10
61.2
 20
7.1000000000000005
 10
61.1
 20
7.2
 10
61.1
 20
7.300000000000001
 10
61.1
 20
7.4
 10
61.1
 20
7.5
 10
61.0
 20
7.6000000000000005
 10
61.0
 20
7.7
 10
60.900000000000006
 20
7.800000000000001
 10
60.900000000000006
 20
7.9
 10
60.900000000000006
 20
8.0
 10
60.800000000000004
 20
8.1
 10
60.800000000000004
 20
8.200000000000001
 10
60.7
 20
8.3
 10
60.7
 20
8.4
 10
60.6
 20
8.5
 10
60.6
 20
8.6
 10
60.5
 20
8.700000000000001
 10
60.400000000000006
 20
8.8
 10
60.400000000000006
 20
8.9
 10
60.300000000000004
 20
9.0
 10
60.2
 20
9.1
 10
60.1
 20
9.200000000000001
 10
60.1
 20
9.3
 10
60.0
 20
9.4
 10
59.900000000000006
 20
9.5
 10
59.800000000000004
 20
9.600000000000001
 10
59.7
 20
9.700000000000001
 10
59.6
 20
9.8
 10
59.5
 20
9.8
 10
59.400000000000006
 20
9.9
 10
59.300000000000004
 20
10.0
 10
59.2
 20
10.100000000000001
 10
59.1
 20
10.100000000000001
 10
59.0
 20
10.200000000000001
 10
58.900000000000006
 20
10.3
 10
58.800000000000004
 20
10.3
 10
58.7
 20
10.4
 10
58.6
 20
10.4
 10
58.5
 20
10.5
 10
58.400000000000006
 20
10.5
 10
58.300000000000004
 20
10.600000000000001
 10
58.2
 20
10.600000000000001
 10
58.1
 20
10.700000000000001
 10
58.0
 20
10.700000000000001
 10
57.900000000000006
 20
10.700000000000001
 10
57.800000000000004
 20
10.8
 10
57.7
 20
10.8
 10
57.6
 20
10.8
 10
57.5
 20
10.9
 10
57.400000000000006
 20
10.9
 10
57.300000000000004
 20
10.9
 10
57.2
 20
10.9
 10
57.1
 20
10.9
 10
57.0
 20
11.0
 10
56.900000000000006
 20
11.0
 10
56.800000000000004
 20
11.0
 10
56.7
 20
11.0
 10
56.6
 20
11.0
 10
56.5
 20
11.0
 10
56.400000000000006
 20
11.0
 10
56.300000000000004
 20
11.0
  0
LWPOLYLINE
  5
4F
330
17
100
AcDbEntity
  8
0
100
AcDbPolyline
 90
201
 70
0
 10
50.800000000000004
 20
11.0
 10
50.800000000000004
 20
10.9
 10
50.800000000000004
 20
10.8
 10
50.800000000000004
 20
10.700000000000001
 10
50.800000000000004
 20
10.600000000000001
 10
50.800000000000004
 20
10.5
 10
50.800000000000004
 20
10.4
 10
50.800000000000004
 20
10.3
 10
50.800000000000004
 20
10.200000000000001
 10
50.800000000000004
 20
10.100000000000001
 10
50.800000000000004
 20
10.0
 10
50.800000000000004
 20
9.9
 10
50.800000000000004
 20
9.8
 10
50.800000000000004
 20
9.700000000000001
 10
50.800000000000004
 20
9.600000000000001
 10
50.800000000000004
 20
9.5
 10
50.800000000000004
 20
9.4
 10
50.800000000000004
 20
9.3
 10
50.800000000000004
 20
9.200000000000001
 10
50.800000000000004
 20
9.1
 10
50.800000000000004
 20
9.0
 10
50.800000000000004
 20
8.9
 10
50.800000000000004
 20
8.8
 10
50.800000000000004
 20
8.700000000000001
 10
50.800000000000004
 20
8.6
 10
50.800000000000004
 20
8.5
 10
50.800000000000004
 20
8.4
 10
50.800000000000004
 20
8.3
 10
50.800000000000004
 20
8.200000000000001
 10
50.800000000000004
 20
8.1
 10
50.800000000000004
 20
8.0
 10
50.800000000000004
 20
7.9
 10
50.800000000000004
 20
7.800000000000001
 10
50.800000000000004
 20
7.7
 10
50.800000000000004
 20
7.6000000000000005
 10
50.800000000000004
 20
7.5
 10
50.800000000000004
 20
7.4
 10
50.800000000000004
 20
7.300000000000001
 10
50.800000000000004
 20
7.2
 10
50.800000000000004
 20
7.1000000000000005
 10
50.800000000000004
 20
7.0
 10
50.800000000000004
 20
6.9
 10
50.800000000000004
 20
6.800000000000001
 10
50.800000000000004
 20
6.7
 10
50.800000000000004
 20
6.6000000000000005
 10
50.800000000000004
 20
6.5
 10
50.800000000000004
 20
6.4
 10
50.800000000000004
 20
6.300000000000001
 10
50.800000000000004
 20
6.2
 10
50.800000000000004
 20
6.1000000000000005
 10
50.800000000000004
 20
6.0
 10
50.900000000000006
 20
6.0
 10
51.0
 20
6.0
 10
51.1
 20
6.0
 10
51.2
 20
6.0
 10
51.300000000000004
 20
6.0
 10
51.400000000000006
 20
6.0
 10
51.5
 20
6.1000000000000005
 10
51.6
 20
6.1000000000000005
 10
51.7
 20
6.1000000000000005
 10
51.800000000000004
 20
6.1000000000000005
 10
51.900000000000006
 20
6.1000000000000005
 10
52.0
 20
6.1000000000000005
 10
52.1
 20
6.2
 10
52.2
 20
6.2
 10
52.300000000000004
 20
6.2
 10
52.400000000000006
 20
6.300000000000001
 10
52.5
 20
6.300000000000001
 10
52.6
 20
6.300000000000001
 10
52.7
 20
6.4
 10
52.800000000000004
 20
6.4
 10
52.900000000000006
 20
6.5
 10
53.0
 20
6.5
 10
53.1
 20
6.6000000000000005
 10
53.2
 20
6.6000000000000005
 10
53.300000000000004
 20
6.6000000000000005
 10
53.400000000000006
 20
6.6000000000000005
 10
53.5
 20
6.5
 10
53.6
 20
6.5
 10
53.7
 20
6.5
 10
53.800000000000004
 20
6.4
 10
53.900000000000006
 20
6.4
 10
54.0
 20
6.300000000000001
 10
54.1
 20
6.300000000000001
 10
54.2
 20
6.300000000000001
 10
54.300000000000004
 20
6.2
 10
54.400000000000006
 20
6.2
 10
54.5
 20
6.2
 10
54.6
 20
6.1000000000000005
 10
54.7
 20
6.1000000000000005
 10
54.800000000000004
 20
6.1000000000000005
 10
54.900000000000006
 20
6.1000000000000005
 10
55.0
 20
6.1000000000000005
 10
55.1
 20
6.0
 10
55.2
 20
6.0
 10
55.300000000000004
 20
6.0
 10
55.400000000000006
 20
6.0
 10
55.5
 20
6.0
 10
55.6
 20
6.0
 10
55.7
 20
6.0
 10
55.800000000000004
 20
6.0
 10
55.800000000000004
 20
6.1000000000000005
 10
55.800000000000004
 20
6.2
 10
55.800000000000004
 20
6.300000000000001
 10
55.800000000000004
 20
6.4
 10
55.800000000000004
 20
6.5
 10
55.800000000000004
 20
6.6000000000000005
 10
55.800000000000004
 20
6.7
 10
55.800000000000004
 20
6.800000000000001
 10
55.800000000000004
 20
6.9
 10
55.800000000000004
 20
7.0
 10
55.800000000000004
 20
7.1000000000000005
 10
55.800000000000004
 20
7.2
 10
55.800000000000004
 20
7.300000000000001
 10
55.800000000000004
 20
7.4
 10
55.800000000000004
 20
7.5
 10
55.800000000000004
 20
7.6000000000000005
 10
55.800000000000004
 20
7.7
 10
55.800000000000004
 20
7.800000000000001
 10
55.800000000000004
 20
7.9
 10
55.800000000000004
 20
8.0
 10
55.800000000000004
 20
8.1
 10
55.800000000000004
 20
8.200000000000001
 10
55.800000000000004
 20
8.3
 10
55.800000000000004
 20
8.4
 10
55.800000000000004
 20
8.5
 10
55.800000000000004
 20
8.6
 10
55.800000000000004
 20
8.700000000000001
 10
55.800000000000004
 20
8.8
 10
55.800000000000004
 20
8.9
 10
55.800000000000004
 20
9.0
 10
55.800000000000004
 20
9.1
 10
55.800000000000004
 20
9.200000000000001
 10
55.800000000000004
 20
9.3
 10
55.800000000000004
 20
9.4
 10
55.800000000000004
 20
9.5
 10
55.800000000000004
 20
9.600000000000001
 10
55.800000000000004
 20
9.700000000000001
 10
55.800000000000004
 20
9.8
 10
55.800000000000004
 20
9.9
 10
55.800000000000004
 20
10.0
 10
55.800000000000004
 20
10.100000000000001
 10
55.800000000000004
 20
10.200000000000001
 10
55.800000000000004
 20
10.3
 10
55.800000000000004
 20
10.4
 10
55.800000000000004
 20
10.5
 10
55.800000000000004
 20
10.600000000000001
 10
55.800000000000004
 20
10.700000000000001
 10
55.800000000000004
 20
10.8
 10
55.800000000000004
 20
10.9
 10
55.800000000000004
 20
11.0
 10
55.7
 20
11.0
 10
55.6
 20
11.0
 10
55.5
 20
11.0
 10
55.400000000000006
 20
11.0
 10
55.300000000000004
 20
11.0
 10
55.2
 20
11.0
 10
55.1
 20
11.0
 10
55.0
 20
11.0
 10
54.900000000000006
 20
11.0
 10
54.800000000000004
 20
11.0
 10
54.7
 20
11.0
 10
54.6
 20
11.0
 10
54.5
 20
11.0
 10
54.400000000000006
 20
11.0
 10
54.300000000000004
 20
11.0
 10
54.2
 20
11.0
 10
54.1
 20
11.0
 10
54.0
 20
11.0
 10
53.900000000000006
 20
11.0
 10
53.800000000000004
 20
11.0
 10
53.7
 20
11.0
 10
53.6
 20
11.0
 10
53.5
 20
11.0
 10
53.400000000000006
 20
11.0
 10
53.300000000000004
 20
11.0
 10
53.2
 20
11.0
 10
53.1
 20
11.0
 10
53.0
 20
11.0
 10
52.900000000000006
 20
11.0
 10
52.800000000000004
 20
11.0
 10
52.7
 20
11.0
 10
52.6
 20
11.0
 10
52.5
 20
11.0
 10
52.400000000000006
 20
11.0
 10
52.300000000000004
 20
11.0
 10
52.2
 20
11.0
 10
52.1
 20
11.0
 10
52.0
 20
11.0
 10
51.900000000000006
 20
11.0
 10
51.800000000000004
 20
11.0
 10
51.7
 20
11.0
 10
51.6
 20
11.0
 10
51.5
 20
11.0
 10
51.400000000000006
 20
11.0
 10
51.300000000000004
 20
11.0
 10
51.2
 20
11.0
 10
51.1
 20
11.0
 10
51.0
 20
11.0
 10
50.900000000000006
 20
11.0
 10
50.800000000000004
 20
11.0
  0
LWPOLYLINE
  5
50
330
17
100
AcDbEntity
  8
0
100
AcDbPolyline
 90
172
 70
0
 10
49.6
 20
11.0
 10
49.5
 20
10.9
 10
49.400000000000006
 20
10.9
 10
49.300000000000004
 20
10.9
 10
49.2
 20
10.9
 10
49.1
 20
10.9
 10
49.0
 20
10.8
 10
48.900000000000006
 20
10.8
 10
48.800000000000004
 20
10.8
 10
48.7
 20
10.700000000000001
 10
48.6
 20
10.700000000000001
 10
48.5
 20
10.600000000000001
 10
48.400000000000006
 20
10.600000000000001
 10
48.300000000000004
 20
10.600000000000001
 10
48.2
 20
10.5
 10
48.1
 20
10.5
 10
48.0
 20
10.4
 10
47.900000000000006
 20
10.4
 10
47.800000000000004
 20
10.3
 10
47.7
 20
10.200000000000001
 10
47.6
 20
10.200000000000001
 10
47.5
 20
10.100000000000001
 10
47.400000000000006
 20
10.0
 10
47.300000000000004
 20
10.0
 10
47.2
 20
9.9
 10
47.1
 20
9.8
 10
47.0
 20
9.700000000000001
 10
46.900000000000006
 20
9.600000000000001
 10
46.800000000000004
 20
9.5
 10
46.7
 20
9.4
 10
46.6
 20
9.3
 10
46.5
 20
9.200000000000001
 10
46.400000000000006
 20
9.1
 10
46.300000000000004
 20
9.0
 10
46.300000000000004
 20
8.9
 10
46.2
 20
8.8
 10
46.1
 20
8.700000000000001
 10
46.1
 20
8.6
 10
46.0
 20
8.5
 10
46.0
 20
8.4
 10
45.900000000000006
 20
8.3
 10
45.900000000000006
 20
8.200000000000001
 10
45.800000000000004
 20
8.1
 10
45.800000000000004
 20
8.0
 10
45.7
 20
7.9
 10
45.7
 20
7.800000000000001
 10
45.7
 20
7.7
 10
45.6
 20
7.6000000000000005
 10
45.6
 20
7.5
 10
45.6
 20
7.4
 10
45.5
 20
7.300000000000001
 10
45.5
 20
7.2
 10
45.5
 20
7.1000000000000005
 10
45.5
 20
7.0
 10
45.400000000000006
 20
6.9
 10
45.400000000000006
 20
6.800000000000001
 10
45.400000000000006
 20
6.7
 10
45.400000000000006
 20
6.6000000000000005
 10
45.400000000000006
 20
6.5
 10
45.400000000000006
 20
6.4
 10
45.400000000000006
 20
6.300000000000001
 10
45.400000000000006
 20
6.2
 10
45.400000000000006
 20
6.1000000000000005
 10
45.400000000000006
 20
6.0
 10
45.5
 20
6.0
 10
45.6
 20
6.0
 10
45.7
 20
6.0
 10
45.800000000000004
 20
6.0
 10
45.900000000000006
 20
6.0
 10
46.0
 20
6.0
 10
46.1
 20
6.0
 10
46.2
 20
6.0
 10
46.300000000000004
 20
6.0
 10
46.400000000000006
 20
6.0
 10
46.5
 20
6.0
 10
46.6
 20
6.0
 10
46.7
 20
6.0
 10
46.800000000000004
 20
6.0
 10
46.900000000000006
 20
6.0
 10
47.0
 20
6.0
 10
47.1
 20
6.0
 10
47.2
 20
6.0
 10
47.300000000000004
 20
6.0
 10
47.400000000000006
 20
6.0
 10
47.5
 20
6.0
 10
47.6
 20
6.0
 10
47.7
 20
6.0
 10
47.800000000000004
 20
6.0
 10
47.900000000000006
 20
6.0
 10
48.0
 20
6.0
 10
48.1
 20
6.0
 10
48.2
 20
6.0
 10
48.300000000000004
 20
6.0
 10
48.400000000000006
 20
6.0
 10
48.5
 20
6.0
 10
48.6
 20
6.0
 10
48.7
 20
6.0
 10
48.800000000000004
 20
6.0
 10
48.900000000000006
 20
6.0
 10
49.0
 20
6.0
 10
49.1
 20
6.0
 10
49.2
 20
6.0
 10
49.300000000000004
 20
6.0
 10
49.400000000000006
 20
6.0
 10
49.5
 20
6.0
 10
49.6
 20
6.0
 10
49.7
 20
6.0
 10
49.800000000000004
 20
6.0
 10
49.900000000000006
 20
6.0
 10
50.0
 20
6.0
 10
50.1
 20
6.0
 10
50.2
 20
6.0
 10
50.300000000000004
 20
6.0
 10
50.400000000000006
 20
6.0
 10
50.400000000000006
 20
6.1000000000000005
 10
50.400000000000006
 20
6.2
 10
50.400000000000006
 20
6.300000000000001
 10
50.400000000000006
 20
6.4
 10
50.400000000000006
 20
6.5
 10
50.400000000000006
 20
6.6000000000000005
 10
50.400000000000006
 20
6.7
 10
50.400000000000006
 20
6.800000000000001
 10
50.400000000000006
 20
6.9
 10
50.400000000000006
 20
7.0
 10
50.400000000000006
 20
7.1000000000000005
 10
50.400000000000006
 20
7.2
 10
50.400000000000006
 20
7.300000000000001
 10
50.400000000000006
 20
7.4
 10
50.400000000000006
 20
7.5
 10
50.400000000000006
 20
7.6000000000000005
 10
50.400000000000006
 20
7.7
 10
50.400000000000006
 20
7.800000000000001
 10
50.400000000000006
 20
7.9
 10
50.400000000000006
 20
8.0
 10
50.400000000000006
 20
8.1
 10
50.400000000000006
 20
8.200000000000001
 10
50.400000000000006
 20
8.3
 10
50.400000000000006
 20
8.4
 10
50.400000000000006
 20
8.5
 10
50.400000000000006
 20
8.6
 10
50.400000000000006
 20
8.700000000000001
 10
50.400000000000006
 20
8.8
 10
50.400000000000006
 20
8.9
 10
50.400000000000006
 20
9.0
 10
50.400000000000006
 20
9.1
 10
50.400000000000006
 20
9.200000000000001
 10
50.400000000000006
 20
9.3
 10
50.400000000000006
 20
9.4
 10
50.400000000000006
 20
9.5
 10
50.400000000000006
 20
9.600000000000001
 10
50.400000000000006
 20
9.700000000000001
 10
50.400000000000006
 20
9.8
 10
50.400000000000006
 20
9.9
 10
50.400000000000006
 20
10.0
 10
50.400000000000006
 20
10.100000000000001
 10
50.400000000000006
 20
10.200000000000001
 10
50.400000000000006
 20
10.3
 10
50.400000000000006
 20
10.4
 10
50.400000000000006
 20
10.5
 10
50.400000000000006
 20
10.600000000000001
 10
50.400000000000006
 20
10.700000000000001
 10
50.400000000000006
 20
10.8
 10
50.400000000000006
 20
10.9
 10
50.400000000000006
 20
11.0
 10
50.300000000000004
 20
11.0
 10
50.2
 20
11.0
 10
50.1
 20
11.0
 10
50.0
 20
11.0
 10
49.900000000000006
 20
11.0
 10
49.800000000000004
 20
11.0
 10
49.7
 20
11.0
 10
49.6
 20
11.0
  0
LWPOLYLINE
  5
51
330
17
100
AcDbEntity
  8
0
100
AcDbPolyline
 90
209
 70
0
 10
43.6
 20
15.200000000000001
 10
43.5
 20
15.100000000000001
 10
43.400000000000006
 20
15.100000000000001
 10
43.300000000000004
 20
15.100000000000001
 10
43.2
 20
15.0
 10
43.1
 20
14.9
 10
43.0
 20
14.8
 10
42.900000000000006
 20
14.700000000000001
 10
42.800000000000004
 20
14.600000000000001
 10
42.800000000000004
 20
14.5
 10
42.7
 20
14.4
 10
42.7
 20
14.3
 10
42.7
 20
14.200000000000001
 10
42.7
 20
14.100000000000001
 10
42.7
 20
14.0
 10
42.7
 20
13.9
 10
42.7
 20
13.8
 10
42.7
 20
13.700000000000001
 10
42.7
 20
13.600000000000001
 10
42.7
 20
13.5
 10
42.7
 20
13.4
 10
42.7
 20
13.3
 10
42.800000000000004
 20
13.200000000000001
 10
42.800000000000004
 20
13.100000000000001
 10
42.900000000000006
 20
13.0
 10
43.0
 20
12.9
 10
43.1
 20
12.8
 10
43.2
 20
12.8
 10
43.300000000000004
 20
12.700000000000001
 10
43.400000000000006
 20
12.700000000000001
 10
43.5
 20
12.600000000000001
 10
43.6
 20
12.600000000000001
 10
43.7
 20
12.600000000000001
 10
43.800000000000004
 20
12.5
 10
43.900000000000006
 20
12.5
 10
44.0
 20
12.5
 10
44.1
 20
12.5
 10
44.2
 20
12.4
 10
44.300000000000004
 20
12.4
 10
44.400000000000006
 20
12.3
 10
44.5
 20
12.3
 10
44.6
 20
12.200000000000001
 10
44.7
 20
12.100000000000001
 10
44.800000000000004
 20
12.0
 10
44.900000000000006
 20
11.9
 10
44.900000000000006
 20
11.8
 10
44.900000000000006
 20
11.700000000000001
 10
44.900000000000006
 20
11.600000000000001
 10
44.900000000000006
 20
11.5
 10
44.900000000000006
 20
11.4
 10
44.900000000000006
 20
11.3
 10
44.800000000000004
 20
11.200000000000001
 10
44.800000000000004
 20
11.100000000000001
 10
44.7
 20
11.0
 10
44.6
 20
10.9
 10
44.5
 20
10.9
 10
44.400000000000006
 20
10.8
 10
44.300000000000004
 20
10.8
 10
44.2
 20
10.8
 10
44.1
 20
10.8
 10
44.0
 20
10.8
 10
43.900000000000006
 20
10.8
 10
43.800000000000004
 20
10.8
 10
43.7
 20
10.8
 10
43.6
 20
10.9
 10
43.5
 20
10.9
 10
43.400000000000006
 20
11.0
 10
43.300000000000004
 20
11.100000000000001
 10
43.300000000000004
 20
11.200000000000001
 10
43.2
 20
11.3
 10
43.2
 20
11.4
 10
43.1
 20
11.5
 10
43.1
 20
11.600000000000001
 10
43.1
 20
11.700000000000001
 10
43.1
 20
11.8
 10
43.0
 20
11.9
 10
42.900000000000006
 20
11.9
 10
42.800000000000004
 20
11.9
 10
42.7
 20
11.9
 10
42.6
 20
11.9
 10
42.6
 20
11.8
 10
42.6
 20
11.700000000000001
 10
42.6
 20
11.600000000000001
 10
42.6
 20
11.5
 10
42.6
 20
11.4
 10
42.7
 20
11.3
 10
42.7
 20
11.200000000000001
 10
42.7
 20
11.100000000000001
 10
42.800000000000004
 20
11.0
 10
42.800000000000004
 20
10.9
 10
42.900000000000006
 20
10.8
 10
43.0
 20
10.700000000000001
 10
43.0
 20
10.600000000000001
 10
43.1
 20
10.5
 10
43.2
 20
10.5
 10
43.300000000000004
 20
10.4
 10
43.400000000000006
 20
10.4
 10
43.5
 20
10.3
 10
43.6
 20
10.3
 10
43.7
 20
10.3
 10
43.800000000000004
 20
10.200000000000001
 10
43.900000000000006
 20
10.200000000000001
 10
44.0
 20
10.200000000000001
 10
44.1
 20
10.200000000000001
 10
44.2
 20
10.200000000000001
 10
44.300000000000004
 20
10.3
 10
44.400000000000006
 20
10.3
 10
44.5
 20
10.3
 10
44.6
 20
10.4
 10
44.7
 20
10.4
 10
44.800000000000004
 20
10.4
 10
44.900000000000006
 20
10.5
 10
45.0
 20
10.600000000000001
 10
45.1
 20
10.700000000000001
 10
45.2
 20
10.8
 10
45.2
 20
10.9
 10
45.300000000000004
 20
11.0
 10
45.300000000000004
 20
11.100000000000001
 10
45.400000000000006
 20
11.200000000000001
 10
45.400000000000006
 20
11.3
 10
45.400000000000006
 20
11.4
 10
45.400000000000006
 20
11.5
 10
45.400000000000006
 20
11.600000000000001
 10
45.400000000000006
 20
11.700000000000001
 10
45.400000000000006
 20
11.8
 10
45.400000000000006
 20
11.9
 10
45.400000000000006
 20
12.0
 10
45.300000000000004
 20
12.100000000000001
 10
45.300000000000004
 20
12.200000000000001
 10
45.300000000000004
 20
12.3
 10
45.2
 20
12.4
 10
45.1
 20
12.5
 10
45.0
 20
12.600000000000001
 10
44.900000000000006
 20
12.700000000000001
 10
44.800000000000004
 20
12.700000000000001
 10
44.7
 20
12.8
 10
44.6
 20
12.8
 10
44.5
 20
12.9
 10
44.400000000000006
 20
12.9
 10
44.300000000000004
 20
12.9
 10
44.2
 20
13.0
 10
44.1
 20
13.0
 10
44.0
 20
13.0
 10
43.900000000000006
 20
13.100000000000001
 10
43.800000000000004
 20
13.100000000000001
 10
43.7
 20
13.200000000000001
 10
43.6
 20
13.200000000000001
 10
43.5
 20
13.3
 10
43.400000000000006
 20
13.3
 10
43.300000000000004
 20
13.4
 10
43.300000000000004
 20
13.5
 10
43.2
 20
13.600000000000001
 10
43.2
 20
13.700000000000001
 10
43.2
 20
13.8
 10
43.1
 20
13.9
 10
43.2
 20
14.0
 10
43.2
 20
14.100000000000001
 10
43.2
 20
14.200000000000001
 10
43.300000000000004
 20
14.3
 10
43.300000000000004
 20
14.4
 10
43.400000000000006
 20
14.5
 10
43.5
 20
14.5
 10
43.6
 20
14.600000000000001
 10
43.7
 20
14.600000000000001
 10
43.800000000000004
 20
14.600000000000001
 10
43.900000000000006
 20
14.600000000000001
 10
44.0
 20
14.600000000000001
 10
44.1
 20
14.600000000000001
 10
44.2
 20
14.600000000000001
 10
44.300000000000004
 20
14.600000000000001
 10
44.400000000000006
 20
14.5
 10
44.5
 20
14.5
 10
44.6
 20
14.4
 10
44.6
 20
14.3
 10
44.7
 20
14.200000000000001
 10
44.7
 20
14.100000000000001
 10
44.800000000000004
 20
14.0
 10
44.800000000000004
 20
13.9
 10
44.800000000000004
 20
13.8
 10
44.800000000000004
 20
13.700000000000001
 10
44.900000000000006
 20
13.700000000000001
 10
45.0
 20
13.700000000000001
 10
45.1
 20
13.700000000000001
 10
45.2
 20
13.700000000000001
 10
45.300000000000004
 20
13.700000000000001
 10
45.300000000000004
 20
13.8
 10
45.300000000000004
 20
13.9
 10
45.300000000000004
 20
14.0
 10
45.2
 20
14.100000000000001
 10
45.2
 20
14.200000000000001
 10
45.2
 20
14.3
 10
45.2
 20
14.4
 10
45.1
 20
14.5
 10
45.1
 20
14.600000000000001
 10
45.0
 20
14.700000000000001
 10
44.900000000000006
 20
14.8
 10
44.800000000000004
 20
14.9
 10
44.7
 20
15.0
 10
44.6
 20
15.0
 10
44.5
 20
15.100000000000001
 10
44.400000000000006
 20
15.100000000000001
 10
44.300000000000004
 20
15.100000000000001
 10
44.2
 20
15.200000000000001
 10
44.1
 20
15.200000000000001
 10
44.0
 20
15.200000000000001
 10
43.900000000000006
 20
15.200000000000001
 10
43.800000000000004
 20
15.200000000000001
 10
43.7
 20
15.200000000000001
 10
43.6
 20
15.200000000000001
  0
LWPOLYLINE
  5
52
330
17
100
AcDbEntity
  8
0
100
AcDbPolyline
 90
183
 70
0
 10
40.2
 20
15.200000000000001
 10
40.1
 20
15.100000000000001
 10
40.0
 20
15.100000000000001
 10
39.900000000000006
 20
15.100000000000001
 10
39.800000000000004
 20
15.0
 10
39.7
 20
15.0
 10
39.6
 20
14.9
 10
39.5
 20
14.8
 10
39.400000000000006
 20
14.700000000000001
 10
39.300000000000004
 20
14.600000000000001
 10
39.300000000000004
 20
14.5
 10
39.2
 20
14.4
 10
39.1
 20
14.3
 10
39.1
 20
14.200000000000001
 10
39.0
 20
14.100000000000001
 10
39.0
 20
14.0
 10
39.0
 20
13.9
 10
38.900000000000006
 20
13.8
 10
38.900000000000006
 20
13.700000000000001
 10
38.900000000000006
 20
13.600000000000001
 10
38.900000000000006
 20
13.5
 10
38.800000000000004
 20
13.4
 10
38.800000000000004
 20
13.3
 10
38.800000000000004
 20
13.200000000000001
 10
38.800000000000004
 20
13.100000000000001
 10
38.800000000000004
 20
13.0
 10
38.800000000000004
 20
12.9
 10
38.800000000000004
 20
12.8
 10
38.800000000000004
 20
12.700000000000001
 10
38.800000000000004
 20
12.600000000000001
 10
38.800000000000004
 20
12.5
 10
38.800000000000004
 20
12.4
 10
38.800000000000004
 20
12.3
 10
38.800000000000004
 20
12.200000000000001
 10
38.800000000000004
 20
12.100000000000001
 10
38.800000000000004
 20
12.0
 10
38.800000000000004
 20
11.9
 10
38.900000000000006
 20
11.8
 10
38.900000000000006
 20
11.700000000000001
 10
38.900000000000006
 20
11.600000000000001
 10
38.900000000000006
 20
11.5
 10
39.0
 20
11.4
 10
39.0
 20
11.3
 10
39.1
 20
11.200000000000001
 10
39.1
 20
11.100000000000001
 10
39.2
 20
11.0
 10
39.2
 20
10.9
 10
39.300000000000004
 20
10.8
 10
39.300000000000004
 20
10.700000000000001
 10
39.400000000000006
 20
10.600000000000001
 10
39.5
 20
10.600000000000001
 10
39.6
 20
10.5
 10
39.7
 20
10.4
 10
39.800000000000004
 20
10.4
 10
39.900000000000006
 20
10.3
 10
40.0
 20
10.3
 10
40.1
 20
10.3
 10
40.2
 20
10.200000000000001
 10
40.300000000000004
 20
10.200000000000001
 10
40.400000000000006
 20
10.200000000000001
 10
40.5
 20
10.200000000000001
 10
40.6
 20
10.200000000000001
 10
40.7
 20
10.3
 10
40.800000000000004
 20
10.3
 10
40.900000000000006
 20
10.3
 10
41.0
 20
10.3
 10
41.1
 20
10.4
 10
41.2
 20
10.5
 10
41.300000000000004
 20
10.5
 10
41.400000000000006
 20
10.600000000000001
 10
41.5
 20
10.700000000000001
 10
41.6
 20
10.8
 10
41.6
 20
10.9
 10
41.7
 20
11.0
 10
41.800000000000004
 20
11.100000000000001
 10
41.800000000000004
 20
11.200000000000001
 10
41.800000000000004
 20
11.3
 10
41.900000000000006
 20
11.4
 10
41.900000000000006
 20
11.5
 10
41.900000000000006
 20
11.600000000000001
 10
42.0
 20
11.700000000000001
 10
42.0
 20
11.8
 10
41.900000000000006
 20
11.8
 10
41.800000000000004
 20
11.8
 10
41.7
 20
11.8
 10
41.6
 20
11.8
 10
41.5
 20
11.8
 10
41.400000000000006
 20
11.700000000000001
 10
41.400000000000006
 20
11.600000000000001
 10
41.400000000000006
 20
11.5
 10
41.300000000000004
 20
11.4
 10
41.300000000000004
 20
11.3
 10
41.2
 20
11.200000000000001
 10
41.1
 20
11.100000000000001
 10
41.0
 20
11.0
 10
40.900000000000006
 20
10.9
 10
40.800000000000004
 20
10.9
 10
40.7
 20
10.8
 10
40.6
 20
10.8
 10
40.5
 20
10.8
 10
40.400000000000006
 20
10.8
 10
40.300000000000004
 20
10.8
 10
40.2
 20
10.8
 10
40.1
 20
10.8
 10
40.0
 20
10.9
 10
39.900000000000006
 20
11.0
 10
39.800000000000004
 20
11.0
 10
39.7
 20
11.100000000000001
 10
39.7
 20
11.200000000000001
 10
39.6
 20
11.3
 10
39.5
 20
11.4
 10
39.5
 20
11.5
 10
39.400000000000006
 20
11.600000000000001
 10
39.400000000000006
 20
11.700000000000001
 10
39.400000000000006
 20
11.8
 10
39.300000000000004
 20
11.9
 10
39.300000000000004
 20
12.0
 10
39.300000000000004
 20
12.100000000000001
 10
39.300000000000004
 20
12.200000000000001
 10
39.300000000000004
 20
12.3
 10
39.300000000000004
 20
12.4
 10
39.300000000000004
 20
12.5
 10
39.400000000000006
 20
12.600000000000001
 10
39.5
 20
12.600000000000001
 10
39.6
 20
12.600000000000001
 10
39.7
 20
12.600000000000001
 10
39.800000000000004
 20
12.600000000000001
 10
39.900000000000006
 20
12.600000000000001
 10
40.0
 20
12.600000000000001
 10
40.1
 20
12.600000000000001
 10
40.2
 20
12.600000000000001
 10
40.300000000000004
 20
12.600000000000001
 10
40.400000000000006
 20
12.600000000000001
 10
40.5
 20
12.600000000000001
 10
40.6
 20
12.600000000000001
 10
40.7
 20
12.600000000000001
 10
40.800000000000004
 20
12.600000000000001
 10
40.900000000000006
 20
12.600000000000001
 10
41.0
 20
12.600000000000001
 10
41.1
 20
12.600000000000001
 10
41.2
 20
12.600000000000001
 10
41.300000000000004
 20
12.600000000000001
 10
41.400000000000006
 20
12.600000000000001
 10
41.5
 20
12.600000000000001
 10
41.6
 20
12.600000000000001
 10
41.7
 20
12.600000000000001
 10
41.800000000000004
 20
12.600000000000001
 10
41.900000000000006
 20
12.600000000000001
 10
42.0
 20
12.600000000000001
 10
42.0
 20
12.700000000000001
 10
42.0
 20
12.8
 10
42.0
 20
12.9
 10
42.0
 20
13.0
 10
42.0
 20
13.100000000000001
 10
42.0
 20
13.200000000000001
 10
42.0
 20
13.3
 10
42.0
 20
13.4
 10
41.900000000000006
 20
13.5
 10
41.900000000000006
 20
13.600000000000001
 10
41.900000000000006
 20
13.700000000000001
 10
41.900000000000006
 20
13.8
 10
41.900000000000006
 20
13.9
 10
41.800000000000004
 20
14.0
 10
41.800000000000004
 20
14.100000000000001
 10
41.800000000000004
 20
14.200000000000001
 10
41.7
 20
14.3
 10
41.7
 20
14.4
 10
41.6
 20
14.5
 10
41.6
 20
14.600000000000001
 10
41.5
 20
14.700000000000001
 10
41.400000000000006
 20
14.8
 10
41.300000000000004
 20
14.9
 10
41.2
 20
15.0
 10
41.1
 20
15.0
 10
41.0
 20
15.100000000000001
 10
40.900000000000006
 20
15.100000000000001
 10
40.800000000000004
 20
15.100000000000001
 10
40.7
 20
15.200000000000001
 10
40.6
 20
15.200000000000001
 10
40.5
 20
15.200000000000001
 10
40.400000000000006
 20
15.200000000000001
 10
40.300000000000004
 20
15.200000000000001
 10
40.2
 20
15.200000000000001
  0
LWPOLYLINE
  5
53
330
17
100
AcDbEntity
  8
0
100
AcDbPolyline
 90
59
 70
0
 10
40.0
 20
14.5
 10
40.1
 20
14.600000000000001
 10
40.2
 20
14.600000000000001
 10
40.300000000000004
 20
14.600000000000001
 10
40.400000000000006
 20
14.600000000000001
 10
40.5
 20
14.600000000000001
 10
40.6
 20
14.600000000000001
 10
40.7
 20
14.600000000000001
 10
40.800000000000004
 20
14.600000000000001
 10
40.900000000000006
 20
14.5
 10
41.0
 20
14.4
 10
41.1
 20
14.3
 10
41.2
 20
14.200000000000001
 10
41.300000000000004
 20
14.100000000000001
 10
41.300000000000004
 20
14.0
 10
41.400000000000006
 20
13.9
 10
41.400000000000006
 20
13.8
 10
41.400000000000006
 20
13.700000000000001
 10
41.5
 20
13.600000000000001
 10
41.5
 20
13.5
 10
41.5
 20
13.4
 10
41.5
 20
13.3
 10
41.5
 20
13.200000000000001
 10
41.400000000000006
 20
13.100000000000001
 10
41.300000000000004
 20
13.100000000000001
 10
41.2
 20
13.100000000000001
 10
41.1
 20
13.100000000000001
 10
41.0
 20
13.100000000000001
 10
40.900000000000006
 20
13.100000000000001
 10
40.800000000000004
 20
13.100000000000001
 10
40.7
 20
13.100000000000001
 10
40.6
 20
13.100000000000001
 10
40.5
 20
13.100000000000001
 10
40.400000000000006
 20
13.100000000000001
 10
40.300000000000004
 20
13.100000000000001
 10
40.2
 20
13.100000000000001
 10
40.1
 20
13.100000000000001
 10
40.0
 20
13.100000000000001
 10
39.900000000000006
 20
13.100000000000001
 10
39.800000000000004
 20
13.100000000000001
 10
39.7
 20
13.100000000000001
 10
39.6
 20
13.100000000000001
 10
39.5
 20
13.100000000000001
 10
39.400000000000006
 20
13.100000000000001
 10
39.300000000000004
 20
13.200000000000001
 10
39.300000000000004
 20
13.3
 10
39.300000000000004
 20
13.4
 10
39.400000000000006
 20
13.5
 10
39.400000000000006
 20
13.600000000000001
 10
39.400000000000006
 20
13.700000000000001
 10
39.400000000000006
 20
13.8
 10
39.5
 20
13.9
 10
39.5
 20
14.0
 10
39.6
 20
14.100000000000001
 10
39.7
 20
14.200000000000001
 10
39.7
 20
14.3
 10
39.800000000000004
 20
14.4
 10
39.900000000000006
 20
14.5
 10
40.0
 20
14.5
  0
LWPOLYLINE
  5
54
330
17
100
AcDbEntity
  8
0
100
AcDbPolyline
 90
194
 70
0
 10
36.4
 20
15.200000000000001
 10
36.300000000000004
 20
15.100000000000001
 10
36.2
 20
15.100000000000001
 10
36.1
 20
15.100000000000001
 10
36.0
 20
15.0
 10
35.9
 20
15.0
 10
35.800000000000004
 20
14.9
 10
35.7
 20
14.8
 10
35.6
 20
14.700000000000001
 10
35.5
 20
14.600000000000001
 10
35.5
 20
14.5
 10
35.4
 20
14.4
 10
35.4
 20
14.3
 10
35.300000000000004
 20
14.200000000000001
 10
35.300000000000004
 20
14.100000000000001
 10
35.2
 20
14.0
 10
35.2
 20
13.9
 10
35.2
 20
13.8
 10
35.1
 20
13.700000000000001
 10
35.1
 20
13.600000000000001
 10
35.1
 20
13.5
 10
35.1
 20
13.4
 10
35.1
 20
13.3
 10
35.0
 20
13.200000000000001
 10
35.0
 20
13.100000000000001
 10
35.0
 20
13.0
 10
35.0
 20
12.9
 10
35.0
 20
12.8
 10
35.0
 20
12.700000000000001
 10
35.0
 20
12.600000000000001
 10
35.0
 20
12.5
 10
35.0
 20
12.4
 10
35.0
 20
12.3
 10
35.0
 20
12.200000000000001
 10
35.1
 20
12.100000000000001
 10
35.1
 20
12.0
 10
35.1
 20
11.9
 10
35.1
 20
11.8
 10
35.1
 20
11.700000000000001
 10
35.1
 20
11.600000000000001
 10
35.2
 20
11.5
 10
35.2
 20
11.4
 10
35.2
 20
11.3
 10
35.300000000000004
 20
11.200000000000001
 10
35.300000000000004
 20
11.100000000000001
 10
35.4
 20
11.0
 10
35.4
 20
10.9
 10
35.5
 20
10.8
 10
35.6
 20
10.700000000000001
 10
35.7
 20
10.600000000000001
 10
35.800000000000004
 20
10.5
 10
35.9
 20
10.4
 10
36.0
 20
10.4
 10
36.1
 20
10.3
 10
36.2
 20
10.3
 10
36.300000000000004
 20
10.3
 10
36.4
 20
10.3
 10
36.5
 20
10.200000000000001
 10
36.6
 20
10.200000000000001
 10
36.7
 20
10.200000000000001
 10
36.800000000000004
 20
10.200000000000001
 10
36.9
 20
10.200000000000001
 10
37.0
 20
10.3
 10
37.1
 20
10.3
 10
37.2
 20
10.3
 10
37.300000000000004
 20
10.4
 10
37.4
 20
10.4
 10
37.5
 20
10.5
 10
37.6
 20
10.600000000000001
 10
37.7
 20
10.700000000000001
 10
37.800000000000004
 20
10.8
 10
37.9
 20
10.9
 10
37.9
 20
11.0
 10
38.0
 20
11.100000000000001
 10
38.0
 20
11.200000000000001
 10
38.1
 20
11.3
 10
38.1
 20
11.4
 10
38.1
 20
11.5
 10
38.1
 20
11.600000000000001
 10
38.2
 20
11.700000000000001
 10
38.2
 20
11.8
 10
38.2
 20
11.9
 10
38.2
 20
12.0
 10
38.1
 20
12.0
 10
38.0
 20
12.0
 10
37.9
 20
12.0
 10
37.800000000000004
 20
12.0
 10
37.7
 20
12.0
 10
37.7
 20
11.9
 10
37.7
 20
11.8
 10
37.7
 20
11.700000000000001
 10
37.6
 20
11.600000000000001
 10
37.6
 20
11.5
 10
37.6
 20
11.4
 10
37.5
 20
11.3
 10
37.4
 20
11.200000000000001
 10
37.4
 20
11.100000000000001
 10
37.300000000000004
 20
11.0
 10
37.2
 20
10.9
 10
37.1
 20
10.9
 10
37.0
 20
10.8
 10
36.9
 20
10.8
 10
36.800000000000004
 20
10.8
 10
36.7
 20
10.8
 10
36.6
 20
10.8
 10
36.5
 20
10.8
 10
36.4
 20
10.8
 10
36.300000000000004
 20
10.9
 10
36.2
 20
10.9
 10
36.1
 20
11.0
 10
36.0
 20
11.100000000000001
 10
35.9
 20
11.200000000000001
 10
35.800000000000004
 20
11.3
 10
35.800000000000004
 20
11.4
 10
35.7
 20
11.5
 10
35.7
 20
11.600000000000001
 10
35.6
 20
11.700000000000001
 10
35.6
 20
11.8
 10
35.6
 20
11.9
 10
35.6
 20
12.0
 10
35.6
 20
12.100000000000001
 10
35.5
 20
12.200000000000001
 10
35.5
 20
12.3
 10
35.5
 20
12.4
 10
35.5
 20
12.5
 10
35.5
 20
12.600000000000001
 10
35.5
 20
12.700000000000001
 10
35.5
 20
12.8
 10
35.5
 20
12.9
 10
35.5
 20
13.0
 10
35.5
 20
13.100000000000001
 10
35.5
 20
13.200000000000001
 10
35.6
 20
13.3
 10
35.6
 20
13.4
 10
35.6
 20
13.5
 10
35.6
 20
13.600000000000001
 10
35.6
 20
13.700000000000001
 10
35.7
 20
13.8
 10
35.7
 20
13.9
 10
35.800000000000004
 20
14.0
 10
35.800000000000004
 20
14.100000000000001
 10
35.9
 20
14.200000000000001
 10
36.0
 20
14.3
 10
36.1
 20
14.4
 10
36.2
 20
14.5
 10
36.300000000000004
 20
14.600000000000001
 10
36.4
 20
14.600000000000001
 10
36.5
 20
14.600000000000001
 10
36.6
 20
14.600000000000001
 10
36.7
 20
14.600000000000001
 10
36.800000000000004
 20
14.600000000000001
 10
36.9
 20
14.600000000000001
 10
37.0
 20
14.600000000000001
 10
37.1
 20
14.5
 10
37.2
 20
14.5
 10
37.300000000000004
 20
14.4
 10
37.4
 20
14.3
 10
37.4
 20
14.200000000000001
 10
37.5
 20
14.100000000000001
 10
37.6
 20
14.0
 10
37.6
 20
13.9
 10
37.6
 20
13.8
 10
37.6
 20
13.700000000000001
 10
37.7
 20
13.600000000000001
 10
37.800000000000004
 20
13.5
 10
37.9
 20
13.5
 10
38.0
 20
13.5
 10
38.1
 20
13.5
 10
38.1
 20
13.600000000000001
 10
38.1
 20
13.700000000000001
 10
38.1
 20
13.8
 10
38.1
 20
13.9
 10
38.1
 20
14.0
 10
38.1
 20
14.100000000000001
 10
38.0
 20
14.200000000000001
 10
38.0
 20
14.3
 10
38.0
 20
14.4
 10
37.9
 20
14.5
 10
37.800000000000004
 20
14.600000000000001
 10
37.800000000000004
 20
14.700000000000001
 10
37.7
 20
14.8
 10
37.6
 20
14.9
 10
37.5
 20
15.0
 10
37.4
 20
15.0
 10
37.300000000000004
 20
15.100000000000001
 10
37.2
 20
15.100000000000001
 10
37.1
 20
15.100000000000001
 10
37.0
 20
15.200000000000001
 10
36.9
 20
15.200000000000001
 10
36.800000000000004
 20
15.200000000000001
 10
36.7
 20
15.200000000000001
 10
36.6
 20
15.200000000000001
 10
36.5
 20
15.200000000000001
 10
36.4
 20
15.200000000000001
  0
LWPOLYLINE
  5
55
330
17
100
AcDbEntity
  8
0
100
AcDbPolyline
 90
190
 70
0
 10
32.6
 20
15.200000000000001
 10
32.5
 20
15.100000000000001
 10
32.4
 20
15.100000000000001
 10
32.300000000000004
 20
15.100000000000001
 10
32.2
 20
15.100000000000001
 10
32.1
 20
15.0
 10
32.0
 20
14.9
 10
31.900000000000002
 20
14.9
 10
31.8
 20
14.8
 10
31.700000000000003
 20
14.700000000000001
 10
31.700000000000003
 20
14.600000000000001
 10
31.6
 20
14.5
 10
31.6
 20
14.4
 10
31.5
 20
14.3
 10
31.5
 20
14.200000000000001
 10
31.5
 20
14.100000000000001
 10
31.400000000000002
 20
14.0
 10
31.400000000000002
 20
13.9
 10
31.400000000000002
 20
13.8
 10
31.400000000000002
 20
13.700000000000001
 10
31.400000000000002
 20
13.600000000000001
 10
31.5
 20
13.600000000000001
 10
31.6
 20
13.600000000000001
 10
31.700000000000003
 20
13.600000000000001
 10
31.8
 20
13.600000000000001
 10
31.900000000000002
 20
13.600000000000001
 10
31.900000000000002
 20
13.700000000000001
 10
31.900000000000002
 20
13.8
 10
31.900000000000002
 20
13.9
 10
31.900000000000002
 20
14.0
 10
32.0
 20
14.100000000000001
 10
32.0
 20
14.200000000000001
 10
32.1
 20
14.3
 10
32.2
 20
14.4
 10
32.300000000000004
 20
14.5
 10
32.4
 20
14.600000000000001
 10
32.5
 20
14.600000000000001
 10
32.6
 20
14.600000000000001
 10
32.7
 20
14.600000000000001
 10
32.800000000000004
 20
14.600000000000001
 10
32.9
 20
14.600000000000001
 10
33.0
 20
14.600000000000001
 10
33.1
 20
14.600000000000001
 10
33.2
 20
14.600000000000001
 10
33.300000000000004
 20
14.600000000000001
 10
33.4
 20
14.5
 10
33.5
 20
14.4
 10
33.6
 20
14.3
 10
33.6
 20
14.200000000000001
 10
33.7
 20
14.100000000000001
 10
33.7
 20
14.0
 10
33.7
 20
13.9
 10
33.7
 20
13.8
 10
33.7
 20
13.700000000000001
 10
33.7
 20
13.600000000000001
 10
33.7
 20
13.5
 10
33.7
 20
13.4
 10
33.6
 20
13.3
 10
33.5
 20
13.200000000000001
 10
33.4
 20
13.200000000000001
 10
33.300000000000004
 20
13.200000000000001
 10
33.2
 20
13.200000000000001
 10
33.1
 20
13.100000000000001
 10
33.0
 20
13.100000000000001
 10
32.9
 20
13.100000000000001
 10
32.800000000000004
 20
13.100000000000001
 10
32.7
 20
13.100000000000001
 10
32.6
 20
13.0
 10
32.5
 20
13.0
 10
32.4
 20
13.0
 10
32.300000000000004
 20
13.0
 10
32.2
 20
13.0
 10
32.1
 20
12.9
 10
32.0
 20
12.9
 10
31.900000000000002
 20
12.8
 10
31.8
 20
12.8
 10
31.700000000000003
 20
12.700000000000001
 10
31.6
 20
12.600000000000001
 10
31.5
 20
12.5
 10
31.400000000000002
 20
12.4
 10
31.400000000000002
 20
12.3
 10
31.3
 20
12.200000000000001
 10
31.3
 20
12.100000000000001
 10
31.3
 20
12.0
 10
31.200000000000003
 20
11.9
 10
31.200000000000003
 20
11.8
 10
31.200000000000003
 20
11.700000000000001
 10
31.200000000000003
 20
11.600000000000001
 10
31.200000000000003
 20
11.5
 10
31.200000000000003
 20
11.4
 10
31.200000000000003
 20
11.3
 10
31.3
 20
11.200000000000001
 10
31.3
 20
11.100000000000001
 10
31.3
 20
11.0
 10
31.400000000000002
 20
10.9
 10
31.400000000000002
 20
10.8
 10
31.5
 20
10.700000000000001
 10
31.6
 20
10.600000000000001
 10
31.700000000000003
 20
10.5
 10
31.8
 20
10.4
 10
31.900000000000002
 20
10.4
 10
32.0
 20
10.3
 10
32.1
 20
10.3
 10
32.2
 20
10.3
 10
32.300000000000004
 20
10.200000000000001
 10
32.4
 20
10.200000000000001
 10
32.5
 20
10.200000000000001
 10
32.6
 20
10.200000000000001
 10
32.7
 20
10.3
 10
32.800000000000004
 20
10.3
 10
32.9
 20
10.3
 10
33.0
 20
10.4
 10
33.1
 20
10.4
 10
33.2
 20
10.5
 10
33.300000000000004
 20
10.5
 10
33.4
 20
10.600000000000001
 10
33.5
 20
10.700000000000001
 10
33.6
 20
10.8
 10
33.7
 20
10.8
 10
33.800000000000004
 20
10.700000000000001
 10
33.800000000000004
 20
10.600000000000001
 10
33.800000000000004
 20
10.5
 10
33.9
 20
10.4
 10
34.0
 20
10.3
 10
34.1
 20
10.3
 10
34.2
 20
10.3
 10
34.300000000000004
 20
10.3
 10
34.4
 20
10.3
 10
34.5
 20
10.3
 10
34.6
 20
10.4
 10
34.6
 20
10.5
 10
34.6
 20
10.600000000000001
 10
34.6
 20
10.700000000000001
 10
34.6
 20
10.8
 10
34.5
 20
10.8
 10
34.4
 20
10.8
 10
34.300000000000004
 20
10.8
 10
34.2
 20
10.9
 10
34.2
 20
11.0
 10
34.2
 20
11.100000000000001
 10
34.2
 20
11.200000000000001
 10
34.2
 20
11.3
 10
34.2
 20
11.4
 10
34.2
 20
11.5
 10
34.2
 20
11.600000000000001
 10
34.2
 20
11.700000000000001
 10
34.2
 20
11.8
 10
34.2
 20
11.9
 10
34.2
 20
12.0
 10
34.2
 20
12.100000000000001
 10
34.2
 20
12.200000000000001
 10
34.2
 20
12.3
 10
34.2
 20
12.4
 10
34.2
 20
12.5
 10
34.2
 20
12.600000000000001
 10
34.2
 20
12.700000000000001
 10
34.2
 20
12.8
 10
34.2
 20
12.9
 10
34.2
 20
13.0
 10
34.2
 20
13.100000000000001
 10
34.2
 20
13.200000000000001
 10
34.2
 20
13.3
 10
34.2
 20
13.4
 10
34.2
 20
13.5
 10
34.2
 20
13.600000000000001
 10
34.2
 20
13.700000000000001
 10
34.2
 20
13.8
 10
34.2
 20
13.9
 10
34.2
 20
14.0
 10
34.2
 20
14.100000000000001
 10
34.1
 20
14.200000000000001
 10
34.1
 20
14.3
 10
34.1
 20
14.4
 10
34.1
 20
14.5
 10
34.0
 20
14.600000000000001
 10
34.0
 20
14.700000000000001
 10
33.9
 20
14.8
 10
33.800000000000004
 20
14.9
 10
33.7
 20
15.0
 10
33.6
 20
15.0
 10
33.5
 20
15.100000000000001
 10
33.4
 20
15.100000000000001
 10
33.300000000000004
 20
15.100000000000001
 10
33.2
 20
15.200000000000001
 10
33.1
 20
15.200000000000001
 10
33.0
 20
15.200000000000001
 10
32.9
 20
15.200000000000001
 10
32.800000000000004
 20
15.200000000000001
 10
32.7
 20
15.200000000000001
 10
32.6
 20
15.200000000000001
  0
LWPOLYLINE
  5
56
330
17
100
AcDbEntity
  8
0
100
AcDbPolyline
 90
59
 70
0
 10
33.300000000000004
 20
12.600000000000001
 10
33.4
 20
12.700000000000001
 10
33.5
 20
12.700000000000001
 10
33.6
 20
12.700000000000001
 10
33.7
 20
12.600000000000001
 10
33.7
 20
12.5
 10
33.7
 20
12.4
 10
33.7
 20
12.3
 10
33.7
 20
12.200000000000001
 10
33.7
 20
12.100000000000001
 10
33.7
 20
12.0
 10
33.7
 20
11.9
 10
33.7
 20
11.8
 10
33.7
 20
11.700000000000001
 10
33.6
 20
11.600000000000001
 10
33.6
 20
11.5
 10
33.5
 20
11.4
 10
33.5
 20
11.3
 10
33.4
 20
11.200000000000001
 10
33.300000000000004
 20
11.100000000000001
 10
33.2
 20
11.0
 10
33.1
 20
10.9
 10
33.0
 20
10.9
 10
32.9
 20
10.9
 10
32.800000000000004
 20
10.8
 10
32.7
 20
10.8
 10
32.6
 20
10.8
 10
32.5
 20
10.8
 10
32.4
 20
10.8
 10
32.300000000000004
 20
10.8
 10
32.2
 20
10.8
 10
32.1
 20
10.9
 10
32.0
 20
11.0
 10
31.900000000000002
 20
11.100000000000001
 10
31.8
 20
11.200000000000001
 10
31.8
 20
11.3
 10
31.700000000000003
 20
11.4
 10
31.700000000000003
 20
11.5
 10
31.700000000000003
 20
11.600000000000001
 10
31.700000000000003
 20
11.700000000000001
 10
31.700000000000003
 20
11.8
 10
31.8
 20
11.9
 10
31.8
 20
12.0
 10
31.8
 20
12.100000000000001
 10
31.900000000000002
 20
12.200000000000001
 10
32.0
 20
12.3
 10
32.1
 20
12.4
 10
32.2
 20
12.4
 10
32.300000000000004
 20
12.5
 10
32.4
 20
12.5
 10
32.5
 20
12.5
 10
32.6
 20
12.5
 10
32.7
 20
12.600000000000001
 10
32.800000000000004
 20
12.600000000000001
 10
32.9
 20
12.600000000000001
 10
33.0
 20
12.600000000000001
 10
33.1
 20
12.600000000000001
 10
33.2
 20
12.600000000000001
 10
33.300000000000004
 20
12.600000000000001
  0
LWPOLYLINE
  5
57
330
17
100
AcDbEntity
  8
0
100
AcDbPolyline
 90
188
 70
0
 10
28.700000000000003
 20
15.200000000000001
 10
28.6
 20
15.100000000000001
 10
28.5
 20
15.100000000000001
 10
28.400000000000002
 20
15.0
 10
28.3
 20
15.0
 10
28.200000000000003
 20
14.9
 10
28.1
 20
14.8
 10
28.0
 20
14.700000000000001
 10
27.900000000000002
 20
14.600000000000001
 10
27.8
 20
14.700000000000001
 10
27.8
 20
14.8
 10
27.8
 20
14.9
 10
27.8
 20
15.0
 10
27.8
 20
15.100000000000001
 10
27.700000000000003
 20
15.100000000000001
 10
27.6
 20
15.100000000000001
 10
27.5
 20
15.100000000000001
 10
27.400000000000002
 20
15.100000000000001
 10
27.3
 20
15.100000000000001
 10
27.3
 20
15.0
 10
27.3
 20
14.9
 10
27.3
 20
14.8
 10
27.3
 20
14.700000000000001
 10
27.3
 20
14.600000000000001
 10
27.3
 20
14.5
 10
27.3
 20
14.4
 10
27.3
 20
14.3
 10
27.3
 20
14.200000000000001
 10
27.3
 20
14.100000000000001
 10
27.3
 20
14.0
 10
27.3
 20
13.9
 10
27.3
 20
13.8
 10
27.3
 20
13.700000000000001
 10
27.3
 20
13.600000000000001
 10
27.3
 20
13.5
 10
27.3
 20
13.4
 10
27.3
 20
13.3
 10
27.3
 20
13.200000000000001
 10
27.3
 20
13.100000000000001
 10
27.3
 20
13.0
 10
27.3
 20
12.9
 10
27.3
 20
12.8
 10
27.3
 20
12.700000000000001
 10
27.3
 20
12.600000000000001
 10
27.3
 20
12.5
 10
27.3
 20
12.4
 10
27.3
 20
12.3
 10
27.3
 20
12.200000000000001
 10
27.3
 20
12.100000000000001
 10
27.3
 20
12.0
 10
27.3
 20
11.9
 10
27.3
 20
11.8
 10
27.3
 20
11.700000000000001
 10
27.3
 20
11.600000000000001
 10
27.3
 20
11.5
 10
27.3
 20
11.4
 10
27.3
 20
11.3
 10
27.3
 20
11.200000000000001
 10
27.3
 20
11.100000000000001
 10
27.3
 20
11.0
 10
27.3
 20
10.9
 10
27.3
 20
10.8
 10
27.3
 20
10.700000000000001
 10
27.3
 20
10.600000000000001
 10
27.3
 20
10.5
 10
27.3
 20
10.4
 10
27.3
 20
10.3
 10
27.3
 20
10.200000000000001
 10
27.3
 20
10.100000000000001
 10
27.3
 20
10.0
 10
27.3
 20
9.9
 10
27.3
 20
9.8
 10
27.3
 20
9.700000000000001
 10
27.3
 20
9.600000000000001
 10
27.3
 20
9.5
 10
27.3
 20
9.4
 10
27.3
 20
9.3
 10
27.3
 20
9.200000000000001
 10
27.3
 20
9.1
 10
27.3
 20
9.0
 10
27.3
 20
8.9
 10
27.3
 20
8.8
 10
27.3
 20
8.700000000000001
 10
27.3
 20
8.6
 10
27.3
 20
8.5
 10
27.400000000000002
 20
8.5
 10
27.5
 20
8.5
 10
27.6
 20
8.5
 10
27.700000000000003
 20
8.5
 10
27.8
 20
8.5
 10
27.8
 20
8.6
 10
27.8
 20
8.700000000000001
 10
27.8
 20
8.8
 10
27.8
 20
8.9
 10
27.8
 20
9.0
 10
27.8
 20
9.1
 10
27.8
 20
9.200000000000001
 10
27.8
 20
9.3
 10
27.8
 20
9.4
 10
27.8
 20
9.5
 10
27.8
 20
9.600000000000001
 10
27.8
 20
9.700000000000001
 10
27.8
 20
9.8
 10
27.8
 20
9.9
 10
27.8
 20
10.0
 10
27.8
 20
10.100000000000001
 10
27.8
 20
10.200000000000001
 10
27.8
 20
10.3
 10
27.8
 20
10.4
 10
27.8
 20
10.5
 10
27.8
 20
10.600000000000001
 10
27.8
 20
10.700000000000001
 10
27.900000000000002
 20
10.8
 10
28.0
 20
10.700000000000001
 10
28.1
 20
10.600000000000001
 10
28.200000000000003
 20
10.5
 10
28.3
 20
10.4
 10
28.400000000000002
 20
10.4
 10
28.5
 20
10.3
 10
28.6
 20
10.3
 10
28.700000000000003
 20
10.3
 10
28.8
 20
10.200000000000001
 10
28.900000000000002
 20
10.200000000000001
 10
29.0
 20
10.200000000000001
 10
29.1
 20
10.200000000000001
 10
29.200000000000003
 20
10.200000000000001
 10
29.3
 20
10.3
 10
29.400000000000002
 20
10.3
 10
29.5
 20
10.3
 10
29.6
 20
10.4
 10
29.700000000000003
 20
10.4
 10
29.8
 20
10.5
 10
29.900000000000002
 20
10.600000000000001
 10
30.0
 20
10.700000000000001
 10
30.1
 20
10.8
 10
30.200000000000003
 20
10.9
 10
30.200000000000003
 20
11.0
 10
30.3
 20
11.100000000000001
 10
30.3
 20
11.200000000000001
 10
30.400000000000002
 20
11.3
 10
30.400000000000002
 20
11.4
 10
30.400000000000002
 20
11.5
 10
30.5
 20
11.600000000000001
 10
30.5
 20
11.700000000000001
 10
30.5
 20
11.8
 10
30.5
 20
11.9
 10
30.5
 20
12.0
 10
30.6
 20
12.100000000000001
 10
30.6
 20
12.200000000000001
 10
30.6
 20
12.3
 10
30.6
 20
12.4
 10
30.6
 20
12.5
 10
30.6
 20
12.600000000000001
 10
30.6
 20
12.700000000000001
 10
30.6
 20
12.8
 10
30.6
 20
12.9
 10
30.6
 20
13.0
 10
30.6
 20
13.100000000000001
 10
30.6
 20
13.200000000000001
 10
30.6
 20
13.3
 10
30.5
 20
13.4
 10
30.5
 20
13.5
 10
30.5
 20
13.600000000000001
 10
30.5
 20
13.700000000000001
 10
30.5
 20
13.8
 10
30.5
 20
13.9
 10
30.400000000000002
 20
14.0
 10
30.400000000000002
 20
14.100000000000001
 10
30.400000000000002
 20
14.200000000000001
 10
30.3
 20
14.3
 10
30.3
 20
14.4
 10
30.200000000000003
 20
14.5
 10
30.200000000000003
 20
14.600000000000001
 10
30.1
 20
14.700000000000001
 10
30.0
 20
14.8
 10
29.900000000000002
 20
14.9
 10
29.8
 20
15.0
 10
29.700000000000003
 20
15.0
 10
29.6
 20
15.100000000000001
 10
29.5
 20
15.100000000000001
 10
29.400000000000002
 20
15.100000000000001
 10
29.3
 20
15.200000000000001
 10
29.200000000000003
 20
15.200000000000001
 10
29.1
 20
15.200000000000001
 10
29.0
 20
15.200000000000001
 10
28.900000000000002
 20
15.200000000000001
 10
28.8
 20
15.200000000000001
 10
28.700000000000003
 20
15.200000000000001
  0
LWPOLYLINE
  5
58
330
17
100
AcDbEntity
  8
0
100
AcDbPolyline
 90
93
 70
0
 10
28.5
 20
14.5
 10
28.6
 20
14.600000000000001
 10
28.700000000000003
 20
14.600000000000001
 10
28.8
 20
14.600000000000001
 10
28.900000000000002
 20
14.600000000000001
 10
29.0
 20
14.600000000000001
 10
29.1
 20
14.600000000000001
 10
29.200000000000003
 20
14.600000000000001
 10
29.3
 20
14.600000000000001
 10
29.400000000000002
 20
14.5
 10
29.5
 20
14.4
 10
29.6
 20
14.4
 10
29.700000000000003
 20
14.3
 10
29.700000000000003
 20
14.200000000000001
 10
29.8
 20
14.100000000000001
 10
29.900000000000002
 20
14.0
 10
29.900000000000002
 20
13.9
 10
29.900000000000002
 20
13.8
 10
30.0
 20
13.700000000000001
 10
30.0
 20
13.600000000000001
 10
30.0
 20
13.5
 10
30.1
 20
13.4
 10
30.1
 20
13.3
 10
30.1
 20
13.200000000000001
 10
30.1
 20
13.100000000000001
 10
30.1
 20
13.0
 10
30.1
 20
12.9
 10
30.1
 20
12.8
 10
30.1
 20
12.700000000000001
 10
30.1
 20
12.600000000000001
 10
30.1
 20
12.5
 10
30.1
 20
12.4
 10
30.1
 20
12.3
 10
30.1
 20
12.200000000000001
 10
30.0
 20
12.100000000000001
 10
30.0
 20
12.0
 10
30.0
 20
11.9
 10
30.0
 20
11.8
 10
30.0
 20
11.700000000000001
 10
29.900000000000002
 20
11.600000000000001
 10
29.900000000000002
 20
11.5
 10
29.8
 20
11.4
 10
29.8
 20
11.3
 10
29.700000000000003
 20
11.200000000000001
 10
29.6
 20
11.100000000000001
 10
29.5
 20
11.0
 10
29.400000000000002
 20
10.9
 10
29.3
 20
10.9
 10
29.200000000000003
 20
10.8
 10
29.1
 20
10.8
 10
29.0
 20
10.8
 10
28.900000000000002
 20
10.8
 10
28.8
 20
10.8
 10
28.700000000000003
 20
10.8
 10
28.6
 20
10.8
 10
28.5
 20
10.9
 10
28.400000000000002
 20
11.0
 10
28.3
 20
11.100000000000001
 10
28.200000000000003
 20
11.200000000000001
 10
28.1
 20
11.3
 10
28.1
 20
11.4
 10
28.0
 20
11.5
 10
28.0
 20
11.600000000000001
 10
27.900000000000002
 20
11.700000000000001
 10
27.900000000000002
 20
11.8
 10
27.900000000000002
 20
11.9
 10
27.8
 20
12.0
 10
27.8
 20
12.100000000000001
 10
27.8
 20
12.200000000000001
 10
27.8
 20
12.3
 10
27.8
 20
12.4
 10
27.8
 20
12.5
 10
27.8
 20
12.600000000000001
 10
27.8
 20
12.700000000000001
 10
27.8
 20
12.8
 10
27.8
 20
12.9
 10
27.8
 20
13.0
 10
27.8
 20
13.100000000000001
 10
27.8
 20
13.200000000000001
 10
27.8
 20
13.3
 10
27.8
 20
13.4
 10
27.8
 20
13.5
 10
27.900000000000002
 20
13.600000000000001
 10
27.900000000000002
 20
13.700000000000001
 10
27.900000000000002
 20
13.8
 10
28.0
 20
13.9
 10
28.0
 20
14.0
 10
28.1
 20
14.100000000000001
 10
28.200000000000003
 20
14.200000000000001
 10
28.200000000000003
 20
14.3
 10
28.3
 20
14.4
 10
28.400000000000002
 20
14.5
 10
28.5
 20
14.5
  0
LWPOLYLINE
  5
59
330
17
100
AcDbEntity
  8
0
100
AcDbPolyline
 90
209
 70
0
 10
24.700000000000003
 20
15.200000000000001
 10
24.6
 20
15.100000000000001
 10
24.5
 20
15.100000000000001
 10
24.400000000000002
 20
15.100000000000001
 10
24.3
 20
15.0
 10
24.200000000000003
 20
14.9
 10
24.1
 20
14.8
 10
24.0
 20
14.700000000000001
 10
23.900000000000002
 20
14.600000000000001
 10
23.900000000000002
 20
14.5
 10
23.8
 20
14.4
 10
23.8
 20
14.3
 10
23.8
 20
14.200000000000001
 10
23.8
 20
14.100000000000001
 10
23.8
 20
14.0
 10
23.8
 20
13.9
 10
23.8
 20
13.8
 10
23.8
 20
13.700000000000001
 10
23.8
 20
13.600000000000001
 10
23.8
 20
13.5
 10
23.8
 20
13.4
 10
23.8
 20
13.3
 10
23.900000000000002
 20
13.200000000000001
 10
23.900000000000002
 20
13.100000000000001
 10
24.0
 20
13.0
 10
24.1
 20
12.9
 10
24.200000000000003
 20
12.8
 10
24.3
 20
12.8
 10
24.400000000000002
 20
12.700000000000001
 10
24.5
 20
12.700000000000001
 10
24.6
 20
12.600000000000001
 10
24.700000000000003
 20
12.600000000000001
 10
24.8
 20
12.600000000000001
 10
24.900000000000002
 20
12.5
 10
25.0
 20
12.5
 10
25.1
 20
12.5
 10
25.200000000000003
 20
12.5
 10
25.3
 20
12.4
 10
25.400000000000002
 20
12.4
 10
25.5
 20
12.3
 10
25.6
 20
12.3
 10
25.700000000000003
 20
12.200000000000001
 10
25.8
 20
12.100000000000001
 10
25.900000000000002
 20
12.0
 10
26.0
 20
11.9
 10
26.0
 20
11.8
 10
26.0
 20
11.700000000000001
 10
26.0
 20
11.600000000000001
 10
26.0
 20
11.5
 10
26.0
 20
11.4
 10
26.0
 20
11.3
 10
25.900000000000002
 20
11.200000000000001
 10
25.900000000000002
 20
11.100000000000001
 10
25.8
 20
11.0
 10
25.700000000000003
 20
10.9
 10
25.6
 20
10.9
 10
25.5
 20
10.8
 10
25.400000000000002
 20
10.8
 10
25.3
 20
10.8
 10
25.200000000000003
 20
10.8
 10
25.1
 20
10.8
 10
25.0
 20
10.8
 10
24.900000000000002
 20
10.8
 10
24.8
 20
10.8
 10
24.700000000000003
 20
10.9
 10
24.6
 20
10.9
 10
24.5
 20
11.0
 10
24.400000000000002
 20
11.100000000000001
 10
24.400000000000002
 20
11.200000000000001
 10
24.3
 20
11.3
 10
24.3
 20
11.4
 10
24.200000000000003
 20
11.5
 10
24.200000000000003
 20
11.600000000000001
 10
24.200000000000003
 20
11.700000000000001
 10
24.200000000000003
 20
11.8
 10
24.1
 20
11.9
 10
24.0
 20
11.9
 10
23.900000000000002
 20
11.9
 10
23.8
 20
11.9
 10
23.700000000000003
 20
11.9
 10
23.700000000000003
 20
11.8
 10
23.700000000000003
 20
11.700000000000001
 10
23.700000000000003
 20
11.600000000000001
 10
23.700000000000003
 20
11.5
 10
23.700000000000003
 20
11.4
 10
23.8
 20
11.3
 10
23.8
 20
11.200000000000001
 10
23.8
 20
11.100000000000001
 10
23.900000000000002
 20
11.0
 10
23.900000000000002
 20
10.9
 10
24.0
 20
10.8
 10
24.1
 20
10.700000000000001
 10
24.1
 20
10.600000000000001
 10
24.200000000000003
 20
10.5
 10
24.3
 20
10.5
 10
24.400000000000002
 20
10.4
 10
24.5
 20
10.4
 10
24.6
 20
10.3
 10
24.700000000000003
 20
10.3
 10
24.8
 20
10.3
 10
24.900000000000002
 20
10.200000000000001
 10
25.0
 20
10.200000000000001
 10
25.1
 20
10.200000000000001
 10
25.200000000000003
 20
10.200000000000001
 10
25.3
 20
10.200000000000001
 10
25.400000000000002
 20
10.3
 10
25.5
 20
10.3
 10
25.6
 20
10.3
 10
25.700000000000003
 20
10.4
 10
25.8
 20
10.4
 10
25.900000000000002
 20
10.4
 10
26.0
 20
10.5
 10
26.1
 20
10.600000000000001
 10
26.200000000000003
 20
10.700000000000001
 10
26.3
 20
10.8
 10
26.3
 20
10.9
 10
26.400000000000002
 20
11.0
 10
26.400000000000002
 20
11.100000000000001
 10
26.5
 20
11.200000000000001
 10
26.5
 20
11.3
 10
26.5
 20
11.4
 10
26.5
 20
11.5
 10
26.5
 20
11.600000000000001
 10
26.5
 20
11.700000000000001
 10
26.5
 20
11.8
 10
26.5
 20
11.9
 10
26.5
 20
12.0
 10
26.400000000000002
 20
12.100000000000001
 10
26.400000000000002
 20
12.200000000000001
 10
26.400000000000002
 20
12.3
 10
26.3
 20
12.4
 10
26.200000000000003
 20
12.5
 10
26.1
 20
12.600000000000001
 10
26.0
 20
12.700000000000001
 10
25.900000000000002
 20
12.700000000000001
 10
25.8
 20
12.8
 10
25.700000000000003
 20
12.8
 10
25.6
 20
12.9
 10
25.5
 20
12.9
 10
25.400000000000002
 20
12.9
 10
25.3
 20
13.0
 10
25.200000000000003
 20
13.0
 10
25.1
 20
13.0
 10
25.0
 20
13.100000000000001
 10
24.900000000000002
 20
13.100000000000001
 10
24.8
 20
13.200000000000001
 10
24.700000000000003
 20
13.200000000000001
 10
24.6
 20
13.3
 10
24.5
 20
13.3
 10
24.400000000000002
 20
13.4
 10
24.400000000000002
 20
13.5
 10
24.3
 20
13.600000000000001
 10
24.3
 20
13.700000000000001
 10
24.3
 20
13.8
 10
24.3
 20
13.9
 10
24.3
 20
14.0
 10
24.3
 20
14.100000000000001
 10
24.3
 20
14.200000000000001
 10
24.400000000000002
 20
14.3
 10
24.400000000000002
 20
14.4
 10
24.5
 20
14.5
 10
24.6
 20
14.5
 10
24.700000000000003
 20
14.600000000000001
 10
24.8
 20
14.600000000000001
 10
24.900000000000002
 20
14.600000000000001
 10
25.0
 20
14.600000000000001
 10
25.1
 20
14.600000000000001
 10
25.200000000000003
 20
14.600000000000001
 10
25.3
 20
14.600000000000001
 10
25.400000000000002
 20
14.600000000000001
 10
25.5
 20
14.5
 10
25.6
 20
14.5
 10
25.700000000000003
 20
14.4
 10
25.700000000000003
 20
14.3
 10
25.8
 20
14.200000000000001
 10
25.8
 20
14.100000000000001
 10
25.900000000000002
 20
14.0
 10
25.900000000000002
 20
13.9
 10
25.900000000000002
 20
13.8
 10
25.900000000000002
 20
13.700000000000001
 10
26.0
 20
13.700000000000001
 10
26.1
 20
13.700000000000001
 10
26.200000000000003
 20
13.700000000000001
 10
26.3
 20
13.700000000000001
 10
26.400000000000002
 20
13.700000000000001
 10
26.400000000000002
 20
13.8
 10
26.400000000000002
 20
13.9
 10
26.400000000000002
 20
14.0
 10
26.400000000000002
 20
14.100000000000001
 10
26.3
 20
14.200000000000001
 10
26.3
 20
14.3
 10
26.3
 20
14.4
 10
26.200000000000003
 20
14.5
 10
26.200000000000003
 20
14.600000000000001
 10
26.1
 20
14.700000000000001
 10
26.0
 20
14.8
 10
25.900000000000002
 20
14.9
 10
25.8
 20
15.0
 10
25.700000000000003
 20
15.0
 10
25.6
 20
15.100000000000001
 10
25.5
 20
15.100000000000001
 10
25.400000000000002
 20
15.100000000000001
 10
25.3
 20
15.200000000000001
 10
25.200000000000003
 20
15.200000000000001
 10
25.1
 20
15.200000000000001
 10
25.0
 20
15.200000000000001
 10
24.900000000000002
 20
15.200000000000001
 10
24.8
 20
15.200000000000001
 10
24.700000000000003
 20
15.200000000000001
  0
LWPOLYLINE
  5
5A
330
17
100
AcDbEntity
  8
0
100
AcDbPolyline
 90
230
 70
0
 10
21.3
 20
15.200000000000001
 10
21.200000000000003
 20
15.100000000000001
 10
21.1
 20
15.100000000000001
 10
21.0
 20
15.0
 10
20.900000000000002
 20
15.0
 10
20.8
 20
14.9
 10
20.700000000000003
 20
14.8
 10
20.700000000000003
 20
14.700000000000001
 10
20.6
 20
14.600000000000001
 10
20.5
 20
14.700000000000001
 10
20.5
 20
14.8
 10
20.5
 20
14.9
 10
20.5
 20
15.0
 10
20.5
 20
15.100000000000001
 10
20.400000000000002
 20
15.100000000000001
 10
20.3
 20
15.100000000000001
 10
20.200000000000003
 20
15.100000000000001
 10
20.1
 20
15.100000000000001
 10
20.0
 20
15.100000000000001
 10
19.900000000000002
 20
15.100000000000001
 10
19.8
 20
15.100000000000001
 10
19.700000000000003
 20
15.100000000000001
 10
19.6
 20
15.100000000000001
 10
19.5
 20
15.100000000000001
 10
19.400000000000002
 20
15.100000000000001
 10
19.3
 20
15.100000000000001
 10
19.200000000000003
 20
15.100000000000001
 10
19.200000000000003
 20
15.0
 10
19.200000000000003
 20
14.9
 10
19.200000000000003
 20
14.8
 10
19.200000000000003
 20
14.700000000000001
 10
19.200000000000003
 20
14.600000000000001
 10
19.200000000000003
 20
14.5
 10
19.200000000000003
 20
14.4
 10
19.200000000000003
 20
14.3
 10
19.200000000000003
 20
14.200000000000001
 10
19.200000000000003
 20
14.100000000000001
 10
19.200000000000003
 20
14.0
 10
19.200000000000003
 20
13.9
 10
19.200000000000003
 20
13.8
 10
19.200000000000003
 20
13.700000000000001
 10
19.200000000000003
 20
13.600000000000001
 10
19.200000000000003
 20
13.5
 10
19.200000000000003
 20
13.4
 10
19.200000000000003
 20
13.3
 10
19.200000000000003
 20
13.200000000000001
 10
19.200000000000003
 20
13.100000000000001
 10
19.200000000000003
 20
13.0
 10
19.200000000000003
 20
12.9
 10
19.200000000000003
 20
12.8
 10
19.200000000000003
 20
12.700000000000001
 10
19.200000000000003
 20
12.600000000000001
 10
19.200000000000003
 20
12.5
 10
19.200000000000003
 20
12.4
 10
19.200000000000003
 20
12.3
 10
19.200000000000003
 20
12.200000000000001
 10
19.200000000000003
 20
12.100000000000001
 10
19.200000000000003
 20
12.0
 10
19.200000000000003
 20
11.9
 10
19.200000000000003
 20
11.8
 10
19.200000000000003
 20
11.700000000000001
 10
19.200000000000003
 20
11.600000000000001
 10
19.200000000000003
 20
11.5
 10
19.200000000000003
 20
11.4
 10
19.200000000000003
 20
11.3
 10
19.200000000000003
 20
11.200000000000001
 10
19.200000000000003
 20
11.100000000000001
 10
19.200000000000003
 20
11.0
 10
19.200000000000003
 20
10.9
 10
19.200000000000003
 20
10.8
 10
19.200000000000003
 20
10.700000000000001
 10
19.200000000000003
 20
10.600000000000001
 10
19.200000000000003
 20
10.5
 10
19.200000000000003
 20
10.4
 10
19.3
 20
10.4
 10
19.400000000000002
 20
10.4
 10
19.5
 20
10.4
 10
19.6
 20
10.4
 10
19.700000000000003
 20
10.4
 10
19.8
 20
10.4
 10
19.900000000000002
 20
10.4
 10
20.0
 20
10.4
 10
20.1
 20
10.4
 10
20.200000000000003
 20
10.4
 10
20.3
 20
10.4
 10
20.400000000000002
 20
10.4
 10
20.5
 20
10.4
 10
20.6
 20
10.4
 10
20.6
 20
10.5
 10
20.6
 20
10.600000000000001
 10
20.6
 20
10.700000000000001
 10
20.6
 20
10.8
 10
20.6
 20
10.9
 10
20.6
 20
11.0
 10
20.6
 20
11.100000000000001
 10
20.6
 20
11.200000000000001
 10
20.6
 20
11.3
 10
20.6
 20
11.4
 10
20.6
 20
11.5
 10
20.6
 20
11.600000000000001
 10
20.6
 20
11.700000000000001
 10
20.6
 20
11.8
 10
20.6
 20
11.9
 10
20.6
 20
12.0
 10
20.6
 20
12.100000000000001
 10
20.6
 20
12.200000000000001
 10
20.6
 20
12.3
 10
20.6
 20
12.4
 10
20.6
 20
12.5
 10
20.6
 20
12.600000000000001
 10
20.6
 20
12.700000000000001
 10
20.6
 20
12.8
 10
20.6
 20
12.9
 10
20.6
 20
13.0
 10
20.6
 20
13.100000000000001
 10
20.700000000000003
 20
13.200000000000001
 10
20.700000000000003
 20
13.3
 10
20.700000000000003
 20
13.4
 10
20.8
 20
13.5
 10
20.900000000000002
 20
13.600000000000001
 10
21.0
 20
13.700000000000001
 10
21.1
 20
13.700000000000001
 10
21.200000000000003
 20
13.700000000000001
 10
21.3
 20
13.700000000000001
 10
21.400000000000002
 20
13.600000000000001
 10
21.5
 20
13.5
 10
21.5
 20
13.4
 10
21.6
 20
13.3
 10
21.6
 20
13.200000000000001
 10
21.6
 20
13.100000000000001
 10
21.6
 20
13.0
 10
21.6
 20
12.9
 10
21.6
 20
12.8
 10
21.6
 20
12.700000000000001
 10
21.6
 20
12.600000000000001
 10
21.6
 20
12.5
 10
21.6
 20
12.4
 10
21.6
 20
12.3
 10
21.6
 20
12.200000000000001
 10
21.6
 20
12.100000000000001
 10
21.6
 20
12.0
 10
21.6
 20
11.9
 10
21.6
 20
11.8
 10
21.6
 20
11.700000000000001
 10
21.6
 20
11.600000000000001
 10
21.6
 20
11.5
 10
21.6
 20
11.4
 10
21.6
 20
11.3
 10
21.6
 20
11.200000000000001
 10
21.6
 20
11.100000000000001
 10
21.6
 20
11.0
 10
21.6
 20
10.9
 10
21.6
 20
10.8
 10
21.6
 20
10.700000000000001
 10
21.6
 20
10.600000000000001
 10
21.6
 20
10.5
 10
21.6
 20
10.4
 10
21.700000000000003
 20
10.4
 10
21.8
 20
10.4
 10
21.900000000000002
 20
10.4
 10
22.0
 20
10.4
 10
22.1
 20
10.4
 10
22.200000000000003
 20
10.4
 10
22.3
 20
10.4
 10
22.400000000000002
 20
10.4
 10
22.5
 20
10.4
 10
22.6
 20
10.4
 10
22.700000000000003
 20
10.4
 10
22.8
 20
10.4
 10
22.900000000000002
 20
10.4
 10
23.0
 20
10.4
 10
23.1
 20
10.4
 10
23.1
 20
10.5
 10
23.1
 20
10.600000000000001
 10
23.1
 20
10.700000000000001
 10
23.1
 20
10.8
 10
23.1
 20
10.9
 10
23.1
 20
11.0
 10
23.1
 20
11.100000000000001
 10
23.1
 20
11.200000000000001
 10
23.1
 20
11.3
 10
23.1
 20
11.4
 10
23.1
 20
11.5
 10
23.1
 20
11.600000000000001
 10
23.1
 20
11.700000000000001
 10
23.1
 20
11.8
 10
23.1
 20
11.9
 10
23.1
 20
12.0
 10
23.1
 20
12.100000000000001
 10
23.1
 20
12.200000000000001
 10
23.1
 20
12.3
 10
23.1
 20
12.4
 10
23.1
 20
12.5
 10
23.1
 20
12.600000000000001
 10
23.1
 20
12.700000000000001
 10
23.1
 20
12.8
 10
23.1
 20
12.9
 10
23.1
 20
13.0
 10
23.1
 20
13.100000000000001
 10
23.1
 20
13.200000000000001
 10
23.1
 20
13.3
 10
23.1
 20
13.4
 10
23.1
 20
13.5
 10
23.1
 20
13.600000000000001
 10
23.1
 20
13.700000000000001
 10
23.1
 20
13.8
 10
23.0
 20
13.9
 10
23.0
 20
14.0
 10
23.0
 20
14.100000000000001
 10
23.0
 20
14.200000000000001
 10
23.0
 20
14.3
 10
22.900000000000002
 20
14.4
 10
22.900000000000002
 20
14.5
 10
22.8
 20
14.600000000000001
 10
22.8
 20
14.700000000000001
 10
22.700000000000003
 20
14.8
 10
22.6
 20
14.9
 10
22.5
 20
15.0
 10
22.400000000000002
 20
15.100000000000001
 10
22.3
 20
15.100000000000001
 10
22.200000000000003
 20
15.200000000000001
 10
22.1
 20
15.200000000000001
 10
22.0
 20
15.200000000000001
 10
21.900000000000002
 20
15.200000000000001
 10
21.8
 20
15.200000000000001
 10
21.700000000000003
 20
15.200000000000001
 10
21.6
 20
15.200000000000001
 10
21.5
 20
15.200000000000001
 10
21.400000000000002
 20
15.200000000000001
 10
21.3
 20
15.200000000000001
  0
LWPOLYLINE
  5
5B
330
17
100
AcDbEntity
  8
0
100
AcDbPolyline
 90
188
 70
0
 10
16.0
 20
15.200000000000001
 10
15.9
 20
15.100000000000001
 10
15.8
 20
15.100000000000001
 10
15.700000000000001
 20
15.100000000000001
 10
15.600000000000001
 20
15.0
 10
15.5
 20
14.9
 10
15.4
 20
14.9
 10
15.3
 20
14.8
 10
15.200000000000001
 20
14.700000000000001
 10
15.100000000000001
 20
14.600000000000001
 10
15.0
 20
14.5
 10
15.0
 20
14.4
 10
14.9
 20
14.3
 10
14.8
 20
14.200000000000001
 10
14.8
 20
14.100000000000001
 10
14.8
 20
14.0
 10
14.700000000000001
 20
13.9
 10
14.700000000000001
 20
13.8
 10
14.600000000000001
 20
13.700000000000001
 10
14.600000000000001
 20
13.600000000000001
 10
14.600000000000001
 20
13.5
 10
14.600000000000001
 20
13.4
 10
14.5
 20
13.3
 10
14.5
 20
13.200000000000001
 10
14.5
 20
13.100000000000001
 10
14.5
 20
13.0
 10
14.5
 20
12.9
 10
14.5
 20
12.8
 10
14.5
 20
12.700000000000001
 10
14.5
 20
12.600000000000001
 10
14.5
 20
12.5
 10
14.5
 20
12.4
 10
14.5
 20
12.3
 10
14.5
 20
12.200000000000001
 10
14.5
 20
12.100000000000001
 10
14.600000000000001
 20
12.0
 10
14.600000000000001
 20
11.9
 10
14.600000000000001
 20
11.8
 10
14.600000000000001
 20
11.700000000000001
 10
14.700000000000001
 20
11.600000000000001
 10
14.700000000000001
 20
11.5
 10
14.8
 20
11.4
 10
14.8
 20
11.3
 10
14.8
 20
11.200000000000001
 10
14.9
 20
11.100000000000001
 10
15.0
 20
11.0
 10
15.100000000000001
 20
10.9
 10
15.100000000000001
 20
10.8
 10
15.200000000000001
 20
10.700000000000001
 10
15.3
 20
10.700000000000001
 10
15.4
 20
10.600000000000001
 10
15.5
 20
10.5
 10
15.600000000000001
 20
10.5
 10
15.700000000000001
 20
10.4
 10
15.8
 20
10.4
 10
15.9
 20
10.3
 10
16.0
 20
10.3
 10
16.1
 20
10.3
 10
16.2
 20
10.3
 10
16.3
 20
10.200000000000001
 10
16.400000000000002
 20
10.200000000000001
 10
16.5
 20
10.200000000000001
 10
16.6
 20
10.200000000000001
 10
16.7
 20
10.200000000000001
 10
16.8
 20
10.200000000000001
 10
16.900000000000002
 20
10.200000000000001
 10
17.0
 20
10.3
 10
17.1
 20
10.3
 10
17.2
 20
10.3
 10
17.3
 20
10.3
 10
17.400000000000002
 20
10.4
 10
17.5
 20
10.4
 10
17.6
 20
10.5
 10
17.7
 20
10.5
 10
17.8
 20
10.600000000000001
 10
17.900000000000002
 20
10.700000000000001
 10
18.0
 20
10.700000000000001
 10
18.1
 20
10.8
 10
18.2
 20
10.9
 10
18.2
 20
11.0
 10
18.3
 20
11.100000000000001
 10
18.3
 20
11.200000000000001
 10
18.400000000000002
 20
11.3
 10
18.400000000000002
 20
11.4
 10
18.5
 20
11.5
 10
18.5
 20
11.600000000000001
 10
18.5
 20
11.700000000000001
 10
18.6
 20
11.8
 10
18.5
 20
11.8
 10
18.400000000000002
 20
11.8
 10
18.3
 20
11.8
 10
18.2
 20
11.8
 10
18.1
 20
11.8
 10
18.0
 20
11.8
 10
17.900000000000002
 20
11.8
 10
17.8
 20
11.8
 10
17.7
 20
11.8
 10
17.6
 20
11.8
 10
17.5
 20
11.8
 10
17.400000000000002
 20
11.8
 10
17.3
 20
11.8
 10
17.2
 20
11.8
 10
17.1
 20
11.8
 10
17.1
 20
11.700000000000001
 10
17.0
 20
11.600000000000001
 10
16.900000000000002
 20
11.5
 10
16.8
 20
11.4
 10
16.7
 20
11.4
 10
16.6
 20
11.4
 10
16.5
 20
11.4
 10
16.400000000000002
 20
11.5
 10
16.3
 20
11.600000000000001
 10
16.2
 20
11.700000000000001
 10
16.1
 20
11.8
 10
16.1
 20
11.9
 10
16.0
 20
12.0
 10
16.0
 20
12.100000000000001
 10
16.0
 20
12.200000000000001
 10
16.1
 20
12.3
 10
16.2
 20
12.3
 10
16.3
 20
12.3
 10
16.400000000000002
 20
12.3
 10
16.5
 20
12.3
 10
16.6
 20
12.3
 10
16.7
 20
12.3
 10
16.8
 20
12.3
 10
16.900000000000002
 20
12.3
 10
17.0
 20
12.3
 10
17.1
 20
12.3
 10
17.2
 20
12.3
 10
17.3
 20
12.3
 10
17.400000000000002
 20
12.3
 10
17.5
 20
12.3
 10
17.6
 20
12.3
 10
17.7
 20
12.3
 10
17.8
 20
12.3
 10
17.900000000000002
 20
12.3
 10
18.0
 20
12.3
 10
18.1
 20
12.3
 10
18.2
 20
12.3
 10
18.3
 20
12.3
 10
18.400000000000002
 20
12.3
 10
18.5
 20
12.3
 10
18.6
 20
12.3
 10
18.7
 20
12.3
 10
18.7
 20
12.4
 10
18.7
 20
12.5
 10
18.7
 20
12.600000000000001
 10
18.7
 20
12.700000000000001
 10
18.7
 20
12.8
 10
18.7
 20
12.9
 10
18.6
 20
13.0
 10
18.6
 20
13.100000000000001
 10
18.6
 20
13.200000000000001
 10
18.6
 20
13.3
 10
18.6
 20
13.4
 10
18.6
 20
13.5
 10
18.5
 20
13.600000000000001
 10
18.5
 20
13.700000000000001
 10
18.5
 20
13.8
 10
18.400000000000002
 20
13.9
 10
18.400000000000002
 20
14.0
 10
18.3
 20
14.100000000000001
 10
18.3
 20
14.200000000000001
 10
18.2
 20
14.3
 10
18.2
 20
14.4
 10
18.1
 20
14.5
 10
18.0
 20
14.600000000000001
 10
17.900000000000002
 20
14.700000000000001
 10
17.8
 20
14.8
 10
17.7
 20
14.9
 10
17.6
 20
15.0
 10
17.5
 20
15.0
 10
17.400000000000002
 20
15.100000000000001
 10
17.3
 20
15.100000000000001
 10
17.2
 20
15.200000000000001
 10
17.1
 20
15.200000000000001
 10
17.0
 20
15.200000000000001
 10
16.900000000000002
 20
15.200000000000001
 10
16.8
 20
15.200000000000001
 10
16.7
 20
15.200000000000001
 10
16.6
 20
15.200000000000001
 10
16.5
 20
15.200000000000001
 10
16.400000000000002
 20
15.200000000000001
 10
16.3
 20
15.200000000000001
 10
16.2
 20
15.200000000000001
 10
16.1
 20
15.200000000000001
 10
16.0
 20
15.200000000000001
  0
LWPOLYLINE
  5
5C
330
17
100
AcDbEntity
  8
0
100
AcDbPolyline
 90
30
 70
0
 10
16.400000000000002
 20
14.0
 10
16.5
 20
14.100000000000001
 10
16.6
 20
14.100000000000001
 10
16.7
 20
14.0
 10
16.8
 20
14.0
 10
16.900000000000002
 20
13.9
 10
17.0
 20
13.8
 10
17.1
 20
13.700000000000001
 10
17.2
 20
13.600000000000001
 10
17.2
 20
13.5
 10
17.2
 20
13.4
 10
17.1
 20
13.3
 10
17.0
 20
13.3
 10
16.900000000000002
 20
13.3
 10
16.8
 20
13.3
 10
16.7
 20
13.3
 10
16.6
 20
13.3
 10
16.5
 20
13.3
 10
16.400000000000002
 20
13.3
 10
16.3
 20
13.3
 10
16.2
 20
13.3
 10
16.1
 20
13.3
 10
16.0
 20
13.4
 10
16.0
 20
13.5
 10
16.0
 20
13.600000000000001
 10
16.0
 20
13.700000000000001
 10
16.1
 20
13.8
 10
16.2
 20
13.9
 10
16.3
 20
14.0
 10
16.400000000000002
 20
14.0
  0
LWPOLYLINE
  5
5D
330
17
100
AcDbEntity
  8
0
100
AcDbPolyline
 90
187
 70
0
 10
11.4
 20
15.200000000000001
 10
11.3
 20
15.100000000000001
 10
11.200000000000001
 20
15.100000000000001
 10
11.100000000000001
 20
15.0
 10
11.0
 20
15.0
 10
10.9
 20
14.9
 10
10.8
 20
14.8
 10
10.700000000000001
 20
14.700000000000001
 10
10.600000000000001
 20
14.600000000000001
 10
10.5
 20
14.5
 10
10.4
 20
14.4
 10
10.4
 20
14.3
 10
10.3
 20
14.200000000000001
 10
10.3
 20
14.100000000000001
 10
10.200000000000001
 20
14.0
 10
10.200000000000001
 20
13.9
 10
10.100000000000001
 20
13.8
 10
10.100000000000001
 20
13.700000000000001
 10
10.100000000000001
 20
13.600000000000001
 10
10.0
 20
13.5
 10
10.0
 20
13.4
 10
10.0
 20
13.3
 10
10.0
 20
13.200000000000001
 10
10.0
 20
13.100000000000001
 10
10.0
 20
13.0
 10
10.0
 20
12.9
 10
10.0
 20
12.8
 10
10.0
 20
12.700000000000001
 10
10.0
 20
12.600000000000001
 10
10.0
 20
12.5
 10
10.0
 20
12.4
 10
10.0
 20
12.3
 10
10.0
 20
12.200000000000001
 10
10.0
 20
12.100000000000001
 10
10.0
 20
12.0
 10
10.0
 20
11.9
 10
10.100000000000001
 20
11.8
 10
10.100000000000001
 20
11.700000000000001
 10
10.100000000000001
 20
11.600000000000001
 10
10.200000000000001
 20
11.5
 10
10.200000000000001
 20
11.4
 10
10.3
 20
11.3
 10
10.3
 20
11.200000000000001
 10
10.4
 20
11.100000000000001
 10
10.4
 20
11.0
 10
10.5
 20
10.9
 10
10.600000000000001
 20
10.8
 10
10.700000000000001
 20
10.700000000000001
 10
10.8
 20
10.600000000000001
 10
10.9
 20
10.600000000000001
 10
11.0
 20
10.5
 10
11.100000000000001
 20
10.4
 10
11.200000000000001
 20
10.4
 10
11.3
 20
10.4
 10
11.4
 20
10.3
 10
11.5
 20
10.3
 10
11.600000000000001
 20
10.3
 10
11.700000000000001
 20
10.200000000000001
 10
11.8
 20
10.200000000000001
 10
11.9
 20
10.200000000000001
 10
12.0
 20
10.200000000000001
 10
12.100000000000001
 20
10.200000000000001
 10
12.200000000000001
 20
10.200000000000001
 10
12.3
 20
10.200000000000001
 10
12.4
 20
10.3
 10
12.5
 20
10.3
 10
12.600000000000001
 20
10.3
 10
12.700000000000001
 20
10.3
 10
12.8
 20
10.4
 10
12.9
 20
10.4
 10
13.0
 20
10.4
 10
13.100000000000001
 20
10.5
 10
13.200000000000001
 20
10.5
 10
13.3
 20
10.600000000000001
 10
13.4
 20
10.700000000000001
 10
13.5
 20
10.8
 10
13.600000000000001
 20
10.9
 10
13.700000000000001
 20
11.0
 10
13.8
 20
11.100000000000001
 10
13.8
 20
11.200000000000001
 10
13.9
 20
11.3
 10
13.9
 20
11.4
 10
13.9
 20
11.5
 10
14.0
 20
11.600000000000001
 10
14.0
 20
11.700000000000001
 10
14.0
 20
11.8
 10
13.9
 20
11.8
 10
13.8
 20
11.8
 10
13.700000000000001
 20
11.8
 10
13.600000000000001
 20
11.8
 10
13.5
 20
11.8
 10
13.4
 20
11.8
 10
13.3
 20
11.8
 10
13.200000000000001
 20
11.8
 10
13.100000000000001
 20
11.8
 10
13.0
 20
11.8
 10
12.9
 20
11.8
 10
12.8
 20
11.8
 10
12.700000000000001
 20
11.8
 10
12.600000000000001
 20
11.8
 10
12.600000000000001
 20
11.700000000000001
 10
12.5
 20
11.600000000000001
 10
12.4
 20
11.5
 10
12.3
 20
11.5
 10
12.200000000000001
 20
11.4
 10
12.100000000000001
 20
11.4
 10
12.0
 20
11.4
 10
11.9
 20
11.5
 10
11.8
 20
11.5
 10
11.700000000000001
 20
11.600000000000001
 10
11.600000000000001
 20
11.700000000000001
 10
11.600000000000001
 20
11.8
 10
11.5
 20
11.9
 10
11.5
 20
12.0
 10
11.5
 20
12.100000000000001
 10
11.4
 20
12.200000000000001
 10
11.5
 20
12.3
 10
11.600000000000001
 20
12.3
 10
11.700000000000001
 20
12.3
 10
11.8
 20
12.3
 10
11.9
 20
12.3
 10
12.0
 20
12.3
 10
12.100000000000001
 20
12.3
 10
12.200000000000001
 20
12.3
 10
12.3
 20
12.3
 10
12.4
 20
12.3
 10
12.5
 20
12.3
 10
12.600000000000001
 20
12.3
 10
12.700000000000001
 20
12.3
 10
12.8
 20
12.3
 10
12.9
 20
12.3
 10
13.0
 20
12.3
 10
13.100000000000001
 20
12.3
 10
13.200000000000001
 20
12.3
 10
13.3
 20
12.3
 10
13.4
 20
12.3
 10
13.5
 20
12.3
 10
13.600000000000001
 20
12.3
 10
13.700000000000001
 20
12.3
 10
13.8
 20
12.3
 10
13.9
 20
12.3
 10
14.0
 20
12.3
 10
14.100000000000001
 20
12.3
 10
14.100000000000001
 20
12.4
 10
14.100000000000001
 20
12.5
 10
14.100000000000001
 20
12.600000000000001
 10
14.100000000000001
 20
12.700000000000001
 10
14.100000000000001
 20
12.8
 10
14.100000000000001
 20
12.9
 10
14.100000000000001
 20
13.0
 10
14.100000000000001
 20
13.100000000000001
 10
14.100000000000001
 20
13.200000000000001
 10
14.100000000000001
 20
13.3
 10
14.0
 20
13.4
 10
14.0
 20
13.5
 10
14.0
 20
13.600000000000001
 10
14.0
 20
13.700000000000001
 10
13.9
 20
13.8
 10
13.9
 20
13.9
 10
13.8
 20
14.0
 10
13.8
 20
14.100000000000001
 10
13.700000000000001
 20
14.200000000000001
 10
13.700000000000001
 20
14.3
 10
13.600000000000001
 20
14.4
 10
13.600000000000001
 20
14.5
 10
13.5
 20
14.600000000000001
 10
13.4
 20
14.700000000000001
 10
13.3
 20
14.8
 10
13.200000000000001
 20
14.9
 10
13.100000000000001
 20
14.9
 10
13.0
 20
15.0
 10
12.9
 20
15.100000000000001
 10
12.8
 20
15.100000000000001
 10
12.700000000000001
 20
15.100000000000001
 10
12.600000000000001
 20
15.200000000000001
 10
12.5
 20
15.200000000000001
 10
12.4
 20
15.200000000000001
 10
12.3
 20
15.200000000000001
 10
12.200000000000001
 20
15.200000000000001
 10
12.100000000000001
 20
15.200000000000001
 10
12.0
 20
15.200000000000001
 10
11.9
 20
15.200000000000001
 10
11.8
 20
15.200000000000001
 10
11.700000000000001
 20
15.200000000000001
 10
11.600000000000001
 20
15.200000000000001
 10
11.5
 20
15.200000000000001
 10
11.4
 20
15.200000000000001
  0
LWPOLYLINE
  5
5E
330
17
100
AcDbEntity
  8
0
100
AcDbPolyline
 90
32
 70
0
 10
11.9
 20
14.0
 10
12.0
 20
14.100000000000001
 10
12.100000000000001
 20
14.100000000000001
 10
12.200000000000001
 20
14.0
 10
12.3
 20
14.0
 10
12.4
 20
13.9
 10
12.5
 20
13.8
 10
12.600000000000001
 20
13.700000000000001
 10
12.600000000000001
 20
13.600000000000001
 10
12.600000000000001
 20
13.5
 10
12.700000000000001
 20
13.4
 10
12.600000000000001
 20
13.3
 10
12.5
 20
13.3
 10
12.4
 20
13.3
 10
12.3
 20
13.3
 10
12.200000000000001
 20
13.3
 10
12.100000000000001
 20
13.3
 10
12.0
 20
13.3
 10
11.9
 20
13.3
 10
11.8
 20
13.3
 10
11.700000000000001
 20
13.3
 10
11.600000000000001
 20
13.3
 10
11.5
 20
13.3
 10
11.4
 20
13.4
 10
11.5
 20
13.5
 10
11.5
 20
13.600000000000001
 10
11.5
 20
13.700000000000001
 10
11.600000000000001
 20
13.8
 10
11.600000000000001
 20
13.9
 10
11.700000000000001
 20
14.0
 10
11.8
 20
14.0
 10
11.9
 20
14.0
  0
LWPOLYLINE
  5
5F
330
17
100
AcDbEntity
  8
0
100
AcDbPolyline
 90
151
 70
0
 10
9.200000000000001
 20
15.200000000000001
 10
9.1
 20
15.100000000000001
 10
9.0
 20
15.0
 10
8.9
 20
15.0
 10
8.8
 20
14.9
 10
8.8
 20
14.8
 10
8.700000000000001
 20
14.700000000000001
 10
8.700000000000001
 20
14.600000000000001
 10
8.6
 20
14.5
 10
8.5
 20
14.600000000000001
 10
8.5
 20
14.700000000000001
 10
8.5
 20
14.8
 10
8.5
 20
14.9
 10
8.5
 20
15.0
 10
8.5
 20
15.100000000000001
 10
8.4
 20
15.100000000000001
 10
8.3
 20
15.100000000000001
 10
8.200000000000001
 20
15.100000000000001
 10
8.1
 20
15.100000000000001
 10
8.0
 20
15.100000000000001
 10
7.9
 20
15.100000000000001
 10
7.800000000000001
 20
15.100000000000001
 10
7.7
 20
15.100000000000001
 10
7.6000000000000005
 20
15.100000000000001
 10
7.5
 20
15.100000000000001
 10
7.4
 20
15.100000000000001
 10
7.300000000000001
 20
15.100000000000001
 10
7.2
 20
15.100000000000001
 10
7.2
 20
15.0
 10
7.2
 20
14.9
 10
7.2
 20
14.8
 10
7.2
 20
14.700000000000001
 10
7.2
 20
14.600000000000001
 10
7.2
 20
14.5
 10
7.2
 20
14.4
 10
7.2
 20
14.3
 10
7.2
 20
14.200000000000001
 10
7.2
 20
14.100000000000001
 10
7.2
 20
14.0
 10
7.2
 20
13.9
 10
7.2
 20
13.8
 10
7.2
 20
13.700000000000001
 10
7.2
 20
13.600000000000001
 10
7.2
 20
13.5
 10
7.2
 20
13.4
 10
7.2
 20
13.3
 10
7.2
 20
13.200000000000001
 10
7.2
 20
13.100000000000001
 10
7.2
 20
13.0
 10
7.2
 20
12.9
 10
7.2
 20
12.8
 10
7.2
 20
12.700000000000001
 10
7.2
 20
12.600000000000001
 10
7.2
 20
12.5
 10
7.2
 20
12.4
 10
7.2
 20
12.3
 10
7.2
 20
12.200000000000001
 10
7.2
 20
12.100000000000001
 10
7.2
 20
12.0
 10
7.2
 20
11.9
 10
7.2
 20
11.8
 10
7.2
 20
11.700000000000001
 10
7.2
 20
11.600000000000001
 10
7.2
 20
11.5
 10
7.2
 20
11.4
 10
7.2
 20
11.3
 10
7.2
 20
11.200000000000001
 10
7.2
 20
11.100000000000001
 10
7.2
 20
11.0
 10
7.2
 20
10.9
 10
7.2
 20
10.8
 10
7.2
 20
10.700000000000001
 10
7.2
 20
10.600000000000001
 10
7.2
 20
10.5
 10
7.2
 20
10.4
 10
7.300000000000001
 20
10.4
 10
7.4
 20
10.4
 10
7.5
 20
10.4
 10
7.6000000000000005
 20
10.4
 10
7.7
 20
10.4
 10
7.800000000000001
 20
10.4
 10
7.9
 20
10.4
 10
8.0
 20
10.4
 10
8.1
 20
10.4
 10
8.200000000000001
 20
10.4
 10
8.3
 20
10.4
 10
8.4
 20
10.4
 10
8.5
 20
10.4
 10
8.6
 20
10.4
 10
8.700000000000001
 20
10.4
 10
8.700000000000001
 20
10.5
 10
8.700000000000001
 20
10.600000000000001
 10
8.700000000000001
 20
10.700000000000001
 10
8.700000000000001
 20
10.8
 10
8.700000000000001
 20
10.9
 10
8.700000000000001
 20
11.0
 10
8.700000000000001
 20
11.100000000000001
 10
8.700000000000001
 20
11.200000000000001
 10
8.700000000000001
 20
11.3
 10
8.700000000000001
 20
11.4
 10
8.700000000000001
 20
11.5
 10
8.700000000000001
 20
11.600000000000001
 10
8.700000000000001
 20
11.700000000000001
 10
8.700000000000001
 20
11.8
 10
8.700000000000001
 20
11.9
 10
8.700000000000001
 20
12.0
 10
8.700000000000001
 20
12.100000000000001
 10
8.700000000000001
 20
12.200000000000001
 10
8.700000000000001
 20
12.3
 10
8.700000000000001
 20
12.4
 10
8.700000000000001
 20
12.5
 10
8.700000000000001
 20
12.600000000000001
 10
8.8
 20
12.700000000000001
 10
8.8
 20
12.8
 10
8.8
 20
12.9
 10
8.9
 20
13.0
 10
8.9
 20
13.100000000000001
 10
9.0
 20
13.200000000000001
 10
9.1
 20
13.3
 10
9.200000000000001
 20
13.3
 10
9.3
 20
13.3
 10
9.4
 20
13.4
 10
9.5
 20
13.4
 10
9.600000000000001
 20
13.3
 10
9.700000000000001
 20
13.3
 10
9.8
 20
13.3
 10
9.8
 20
13.4
 10
9.8
 20
13.5
 10
9.8
 20
13.600000000000001
 10
9.8
 20
13.700000000000001
 10
9.8
 20
13.8
 10
9.8
 20
13.9
 10
9.8
 20
14.0
 10
9.8
 20
14.100000000000001
 10
9.8
 20
14.200000000000001
 10
9.8
 20
14.3
 10
9.8
 20
14.4
 10
9.8
 20
14.5
 10
9.8
 20
14.600000000000001
 10
9.8
 20
14.700000000000001
 10
9.8
 20
14.8
 10
9.8
 20
14.9
 10
9.8
 20
15.0
 10
9.8
 20
15.100000000000001
 10
9.8
 20
15.200000000000001
 10
9.700000000000001
 20
15.200000000000001
 10
9.600000000000001
 20
15.200000000000001
 10
9.5
 20
15.200000000000001
 10
9.4
 20
15.200000000000001
 10
9.3
 20
15.200000000000001
 10
9.200000000000001
 20
15.200000000000001
  0
LWPOLYLINE
  5
60
330
17
100
AcDbEntity
  8
0
100
AcDbPolyline
 90
223
 70
0
 10
3.7
 20
15.200000000000001
 10
3.6
 20
15.100000000000001
 10
3.5
 20
15.100000000000001
 10
3.4000000000000004
 20
15.0
 10
3.3000000000000003
 20
15.0
 10
3.2
 20
14.9
 10
3.1
 20
14.8
 10
3.1
 20
14.700000000000001
 10
3.0
 20
14.600000000000001
 10
2.9000000000000004
 20
14.5
 10
2.9000000000000004
 20
14.4
 10
2.8000000000000003
 20
14.3
 10
2.8000000000000003
 20
14.200000000000001
 10
2.7
 20
14.100000000000001
 10
2.7
 20
14.0
 10
2.7
 20
13.9
 10
2.7
 20
13.8
 10
2.6
 20
13.700000000000001
 10
2.6
 20
13.600000000000001
 10
2.6
 20
13.5
 10
2.6
 20
13.4
 10
2.6
 20
13.3
 10
2.6
 20
13.200000000000001
 10
2.6
 20
13.100000000000001
 10
2.6
 20
13.0
 10
2.6
 20
12.9
 10
2.6
 20
12.8
 10
2.6
 20
12.700000000000001
 10
2.6
 20
12.600000000000001
 10
2.6
 20
12.5
 10
2.6
 20
12.4
 10
2.6
 20
12.3
 10
2.6
 20
12.200000000000001
 10
2.6
 20
12.100000000000001
 10
2.6
 20
12.0
 10
2.7
 20
11.9
 10
2.7
 20
11.8
 10
2.7
 20
11.700000000000001
 10
2.8000000000000003
 20
11.600000000000001
 10
2.8000000000000003
 20
11.5
 10
2.9000000000000004
 20
11.4
 10
2.9000000000000004
 20
11.3
 10
3.0
 20
11.200000000000001
 10
3.1
 20
11.100000000000001
 10
3.2
 20
11.0
 10
3.3000000000000003
 20
10.9
 10
3.4000000000000004
 20
10.8
 10
3.5
 20
10.700000000000001
 10
3.6
 20
10.700000000000001
 10
3.7
 20
10.700000000000001
 10
3.8000000000000003
 20
10.600000000000001
 10
3.9000000000000004
 20
10.600000000000001
 10
4.0
 20
10.600000000000001
 10
4.1000000000000005
 20
10.600000000000001
 10
4.2
 20
10.600000000000001
 10
4.3
 20
10.600000000000001
 10
4.4
 20
10.600000000000001
 10
4.5
 20
10.600000000000001
 10
4.6000000000000005
 20
10.700000000000001
 10
4.7
 20
10.700000000000001
 10
4.800000000000001
 20
10.8
 10
4.9
 20
10.8
 10
5.0
 20
10.9
 10
5.1000000000000005
 20
10.8
 10
5.1000000000000005
 20
10.700000000000001
 10
5.1000000000000005
 20
10.600000000000001
 10
5.1000000000000005
 20
10.5
 10
5.1000000000000005
 20
10.4
 10
5.1000000000000005
 20
10.3
 10
5.1000000000000005
 20
10.200000000000001
 10
5.0
 20
10.100000000000001
 10
5.0
 20
10.0
 10
4.9
 20
9.9
 10
4.800000000000001
 20
9.9
 10
4.7
 20
9.9
 10
4.6000000000000005
 20
9.9
 10
4.5
 20
9.9
 10
4.4
 20
9.9
 10
4.3
 20
10.0
 10
4.2
 20
10.100000000000001
 10
4.2
 20
10.200000000000001
 10
4.1000000000000005
 20
10.200000000000001
 10
4.0
 20
10.200000000000001
 10
3.9000000000000004
 20
10.200000000000001
 10
3.8000000000000003
 20
10.200000000000001
 10
3.7
 20
10.200000000000001
 10
3.6
 20
10.200000000000001
 10
3.5
 20
10.200000000000001
 10
3.4000000000000004
 20
10.200000000000001
 10
3.3000000000000003
 20
10.200000000000001
 10
3.2
 20
10.200000000000001
 10
3.1
 20
10.200000000000001
 10
3.0
 20
10.200000000000001
 10
2.9000000000000004
 20
10.200000000000001
 10
2.8000000000000003
 20
10.200000000000001
 10
2.7
 20
10.200000000000001
 10
2.7
 20
10.100000000000001
 10
2.8000000000000003
 20
10.0
 10
2.8000000000000003
 20
9.9
 10
2.8000000000000003
 20
9.8
 10
2.8000000000000003
 20
9.700000000000001
 10
2.9000000000000004
 20
9.600000000000001
 10
3.0
 20
9.5
 10
3.0
 20
9.4
 10
3.1
 20
9.3
 10
3.2
 20
9.200000000000001
 10
3.3000000000000003
 20
9.1
 10
3.4000000000000004
 20
9.1
 10
3.5
 20
9.0
 10
3.6
 20
9.0
 10
3.7
 20
8.9
 10
3.8000000000000003
 20
8.9
 10
3.9000000000000004
 20
8.9
 10
4.0
 20
8.8
 10
4.1000000000000005
 20
8.8
 10
4.2
 20
8.8
 10
4.3
 20
8.8
 10
4.4
 20
8.8
 10
4.5
 20
8.8
 10
4.6000000000000005
 20
8.8
 10
4.7
 20
8.8
 10
4.800000000000001
 20
8.8
 10
4.9
 20
8.8
 10
5.0
 20
8.8
 10
5.1000000000000005
 20
8.8
 10
5.2
 20
8.8
 10
5.300000000000001
 20
8.8
 10
5.4
 20
8.9
 10
5.5
 20
8.9
 10
5.6000000000000005
 20
8.9
 10
5.7
 20
9.0
 10
5.800000000000001
 20
9.0
 10
5.9
 20
9.1
 10
6.0
 20
9.200000000000001
 10
6.1000000000000005
 20
9.3
 10
6.2
 20
9.4
 10
6.300000000000001
 20
9.5
 10
6.300000000000001
 20
9.600000000000001
 10
6.300000000000001
 20
9.700000000000001
 10
6.4
 20
9.8
 10
6.4
 20
9.9
 10
6.4
 20
10.0
 10
6.4
 20
10.100000000000001
 10
6.5
 20
10.200000000000001
 10
6.5
 20
10.3
 10
6.5
 20
10.4
 10
6.5
 20
10.5
 10
6.5
 20
10.600000000000001
 10
6.5
 20
10.700000000000001
 10
6.5
 20
10.8
 10
6.5
 20
10.9
 10
6.5
 20
11.0
 10
6.5
 20
11.100000000000001
 10
6.5
 20
11.200000000000001
 10
6.5
 20
11.3
 10
6.5
 20
11.4
 10
6.5
 20
11.5
 10
6.5
 20
11.600000000000001
 10
6.5
 20
11.700000000000001
 10
6.5
 20
11.8
 10
6.5
 20
11.9
 10
6.5
 20
12.0
 10
6.5
 20
12.100000000000001
 10
6.5
 20
12.200000000000001
 10
6.5
 20
12.3
 10
6.5
 20
12.4
 10
6.5
 20
12.5
 10
6.5
 20
12.600000000000001
 10
6.5
 20
12.700000000000001
 10
6.5
 20
12.8
 10
6.5
 20
12.9
 10
6.5
 20
13.0
 10
6.5
 20
13.100000000000001
 10
6.5
 20
13.200000000000001
 10
6.5
 20
13.3
 10
6.5
 20
13.4
 10
6.5
 20
13.5
 10
6.5
 20
13.600000000000001
 10
6.5
 20
13.700000000000001
 10
6.5
 20
13.8
 10
6.5
 20
13.9
 10
6.5
 20
14.0
 10
6.5
 20
14.100000000000001
 10
6.5
 20
14.200000000000001
 10
6.5
 20
14.3
 10
6.5
 20
14.4
 10
6.5
 20
14.5
 10
6.5
 20
14.600000000000001
 10
6.5
 20
14.700000000000001
 10
6.5
 20
14.8
 10
6.5
 20
14.9
 10
6.5
 20
15.0
 10
6.5
 20
15.100000000000001
 10
6.4
 20
15.100000000000001
 10
6.300000000000001
 20
15.100000000000001
 10
6.2
 20
15.100000000000001
 10
6.1000000000000005
 20
15.100000000000001
 10
6.0
 20
15.100000000000001
 10
5.9
 20
15.100000000000001
 10
5.800000000000001
 20
15.100000000000001
 10
5.7
 20
15.100000000000001
 10
5.6000000000000005
 20
15.100000000000001
 10
5.5
 20
15.100000000000001
 10
5.4
 20
15.100000000000001
 10
5.300000000000001
 20
15.100000000000001
 10
5.2
 20
15.100000000000001
 10
5.2
 20
15.0
 10
5.2
 20
14.9
 10
5.1000000000000005
 20
14.8
 10
5.0
 20
14.9
 10
4.9
 20
15.0
 10
4.800000000000001
 20
15.100000000000001
 10
4.7
 20
15.100000000000001
 10
4.6000000000000005
 20
15.200000000000001
 10
4.5
 20
15.200000000000001
 10
4.4
 20
15.200000000000001
 10
4.3
 20
15.200000000000001
 10
4.2
 20
15.200000000000001
 10
4.1000000000000005
 20
15.200000000000001
 10
4.0
 20
15.200000000000001
 10
3.9000000000000004
 20
15.200000000000001
 10
3.8000000000000003
 20
15.200000000000001
 10
3.7
 20
15.200000000000001
  0
LWPOLYLINE
  5
61
330
17
100
AcDbEntity
  8
0
100
AcDbPolyline
 90
47
 70
0
 10
4.4
 20
13.8
 10
4.5
 20
13.9
 10
4.6000000000000005
 20
13.9
 10
4.7
 20
13.8
 10
4.800000000000001
 20
13.8
 10
4.9
 20
13.700000000000001
 10
5.0
 20
13.600000000000001
 10
5.0
 20
13.5
 10
5.1000000000000005
 20
13.4
 10
5.1000000000000005
 20
13.3
 10
5.1000000000000005
 20
13.200000000000001
 10
5.1000000000000005
 20
13.100000000000001
 10
5.1000000000000005
 20
13.0
 10
5.1000000000000005
 20
12.9
 10
5.1000000000000005
 20
12.8
 10
5.1000000000000005
 20
12.700000000000001
 10
5.1000000000000005
 20
12.600000000000001
 10
5.1000000000000005
 20
12.5
 10
5.1000000000000005
 20
12.4
 10
5.0
 20
12.3
 10
5.0
 20
12.200000000000001
 10
4.9
 20
12.100000000000001
 10
4.800000000000001
 20
12.0
 10
4.7
 20
11.9
 10
4.6000000000000005
 20
11.9
 10
4.5
 20
11.9
 10
4.4
 20
12.0
 10
4.3
 20
12.0
 10
4.2
 20
12.100000000000001
 10
4.2
 20
12.200000000000001
 10
4.1000000000000005
 20
12.3
 10
4.1000000000000005
 20
12.4
 10
4.1000000000000005
 20
12.5
 10
4.0
 20
12.600000000000001
 10
4.0
 20
12.700000000000001
 10
4.0
 20
12.8
 10
4.0
 20
12.9
 10
4.0
 20
13.0
 10
4.0
 20
13.100000000000001
 10
4.0
 20
13.200000000000001
 10
4.1000000000000005
 20
13.3
 10
4.1000000000000005
 20
13.4
 10
4.1000000000000005
 20
13.5
 10
4.2
 20
13.600000000000001
 10
4.2
 20
13.700000000000001
 10
4.3
 20
13.8
 10
4.4
 20
13.8
  0
LWPOLYLINE
  5
62
330
17
100
AcDbEntity
  8
0
100
AcDbPolyline
 90
172
 70
0
 10
45.400000000000006
 20
16.400000000000002
 10
45.400000000000006
 20
16.3
 10
45.400000000000006
 20
16.2
 10
45.400000000000006
 20
16.1
 10
45.400000000000006
 20
16.0
 10
45.400000000000006
 20
15.9
 10
45.400000000000006
 20
15.8
 10
45.400000000000006
 20
15.700000000000001
 10
45.400000000000006
 20
15.600000000000001
 10
45.5
 20
15.5
 10
45.5
 20
15.4
 10
45.5
 20
15.3
 10
45.5
 20
15.200000000000001
 10
45.5
 20
15.100000000000001
 10
45.6
 20
15.0
 10
45.6
 20
14.9
 10
45.6
 20
14.8
 10
45.7
 20
14.700000000000001
 10
45.7
 20
14.600000000000001
 10
45.800000000000004
 20
14.5
 10
45.800000000000004
 20
14.4
 10
45.800000000000004
 20
14.3
 10
45.900000000000006
 20
14.200000000000001
 10
45.900000000000006
 20
14.100000000000001
 10
46.0
 20
14.0
 10
46.1
 20
13.9
 10
46.1
 20
13.8
 10
46.2
 20
13.700000000000001
 10
46.2
 20
13.600000000000001
 10
46.300000000000004
 20
13.5
 10
46.400000000000006
 20
13.4
 10
46.5
 20
13.3
 10
46.5
 20
13.200000000000001
 10
46.6
 20
13.100000000000001
 10
46.7
 20
13.0
 10
46.800000000000004
 20
12.9
 10
46.900000000000006
 20
12.8
 10
47.0
 20
12.700000000000001
 10
47.1
 20
12.600000000000001
 10
47.2
 20
12.600000000000001
 10
47.300000000000004
 20
12.5
 10
47.400000000000006
 20
12.4
 10
47.5
 20
12.3
 10
47.6
 20
12.3
 10
47.7
 20
12.200000000000001
 10
47.800000000000004
 20
12.100000000000001
 10
47.900000000000006
 20
12.100000000000001
 10
48.0
 20
12.0
 10
48.1
 20
12.0
 10
48.2
 20
11.9
 10
48.300000000000004
 20
11.9
 10
48.400000000000006
 20
11.8
 10
48.5
 20
11.8
 10
48.6
 20
11.8
 10
48.7
 20
11.700000000000001
 10
48.800000000000004
 20
11.700000000000001
 10
48.900000000000006
 20
11.700000000000001
 10
49.0
 20
11.600000000000001
 10
49.1
 20
11.600000000000001
 10
49.2
 20
11.600000000000001
 10
49.300000000000004
 20
11.5
 10
49.400000000000006
 20
11.5
 10
49.5
 20
11.5
 10
49.6
 20
11.5
 10
49.7
 20
11.5
 10
49.800000000000004
 20
11.5
 10
49.900000000000006
 20
11.5
 10
50.0
 20
11.5
 10
50.1
 20
11.4
 10
50.2
 20
11.4
 10
50.300000000000004
 20
11.4
 10
50.400000000000006
 20
11.4
 10
50.400000000000006
 20
11.5
 10
50.400000000000006
 20
11.600000000000001
 10
50.400000000000006
 20
11.700000000000001
 10
50.400000000000006
 20
11.8
 10
50.400000000000006
 20
11.9
 10
50.400000000000006
 20
12.0
 10
50.400000000000006
 20
12.100000000000001
 10
50.400000000000006
 20
12.200000000000001
 10
50.400000000000006
 20
12.3
 10
50.400000000000006
 20
12.4
 10
50.400000000000006
 20
12.5
 10
50.400000000000006
 20
12.600000000000001
 10
50.400000000000006
 20
12.700000000000001
 10
50.400000000000006
 20
12.8
 10
50.400000000000006
 20
12.9
 10
50.400000000000006
 20
13.0
 10
50.400000000000006
 20
13.100000000000001
 10
50.400000000000006
 20
13.200000000000001
 10
50.400000000000006
 20
13.3
 10
50.400000000000006
 20
13.4
 10
50.400000000000006
 20
13.5
 10
50.400000000000006
 20
13.600000000000001
 10
50.400000000000006
 20
13.700000000000001
 10
50.400000000000006
 20
13.8
 10
50.400000000000006
 20
13.9
 10
50.400000000000006
 20
14.0
 10
50.400000000000006
 20
14.100000000000001
 10
50.400000000000006
 20
14.200000000000001
 10
50.400000000000006
 20
14.3
 10
50.400000000000006
 20
14.4
 10
50.400000000000006
 20
14.5
 10
50.400000000000006
 20
14.600000000000001
 10
50.400000000000006
 20
14.700000000000001
 10
50.400000000000006
 20
14.8
 10
50.400000000000006
 20
14.9
 10
50.400000000000006
 20
15.0
 10
50.400000000000006
 20
15.100000000000001
 10
50.400000000000006
 20
15.200000000000001
 10
50.400000000000006
 20
15.3
 10
50.400000000000006
 20
15.4
 10
50.400000000000006
 20
15.5
 10
50.400000000000006
 20
15.600000000000001
 10
50.400000000000006
 20
15.700000000000001
 10
50.400000000000006
 20
15.8
 10
50.400000000000006
 20
15.9
 10
50.400000000000006
 20
16.0
 10
50.400000000000006
 20
16.1
 10
50.400000000000006
 20
16.2
 10
50.400000000000006
 20
16.3
 10
50.400000000000006
 20
16.400000000000002
 10
50.300000000000004
 20
16.400000000000002
 10
50.2
 20
16.400000000000002
 10
50.1
 20
16.400000000000002
 10
50.0
 20
16.400000000000002
 10
49.900000000000006
 20
16.400000000000002
 10
49.800000000000004
 20
16.400000000000002
 10
49.7
 20
16.400000000000002
 10
49.6
 20
16.400000000000002
 10
49.5
 20
16.400000000000002
 10
49.400000000000006
 20
16.400000000000002
 10
49.300000000000004
 20
16.400000000000002
 10
49.2
 20
16.400000000000002
 10
49.1
 20
16.400000000000002
 10
49.0
 20
16.400000000000002
 10
48.900000000000006
 20
16.400000000000002
 10
48.800000000000004
 20
16.400000000000002
 10
48.7
 20
16.400000000000002
 10
48.6
 20
16.400000000000002
 10
48.5
 20
16.400000000000002
 10
48.400000000000006
 20
16.400000000000002
 10
48.300000000000004
 20
16.400000000000002
 10
48.2
 20
16.400000000000002
 10
48.1
 20
16.400000000000002
 10
48.0
 20
16.400000000000002
 10
47.900000000000006
 20
16.400000000000002
 10
47.800000000000004
 20
16.400000000000002
 10
47.7
 20
16.400000000000002
 10
47.6
 20
16.400000000000002
 10
47.5
 20
16.400000000000002
 10
47.400000000000006
 20
16.400000000000002
 10
47.300000000000004
 20
16.400000000000002
 10
47.2
 20
16.400000000000002
 10
47.1
 20
16.400000000000002
 10
47.0
 20
16.400000000000002
 10
46.900000000000006
 20
16.400000000000002
 10
46.800000000000004
 20
16.400000000000002
 10
46.7
 20
16.400000000000002
 10
46.6
 20
16.400000000000002
 10
46.5
 20
16.400000000000002
 10
46.400000000000006
 20
16.400000000000002
 10
46.300000000000004
 20
16.400000000000002
 10
46.2
 20
16.400000000000002
 10
46.1
 20
16.400000000000002
 10
46.0
 20
16.400000000000002
 10
45.900000000000006
 20
16.400000000000002
 10
45.800000000000004
 20
16.400000000000002
 10
45.7
 20
16.400000000000002
 10
45.6
 20
16.400000000000002
 10
45.5
 20
16.400000000000002
 10
45.400000000000006
 20
16.400000000000002
  0
LWPOLYLINE
  5
63
330
17
100
AcDbEntity
  8
0
100
AcDbPolyline
 90
454
 70
0
 10
50.900000000000006
 20
21.900000000000002
 10
50.800000000000004
 20
21.8
 10
50.800000000000004
 20
21.700000000000003
 10
50.800000000000004
 20
21.6
 10
50.800000000000004
 20
21.5
 10
50.800000000000004
 20
21.400000000000002
 10
50.800000000000004
 20
21.3
 10
50.800000000000004
 20
21.200000000000003
 10
50.800000000000004
 20
21.1
 10
50.800000000000004
 20
21.0
 10
50.800000000000004
 20
20.900000000000002
 10
50.800000000000004
 20
20.8
 10
50.800000000000004
 20
20.700000000000003
 10
50.800000000000004
 20
20.6
 10
50.800000000000004
 20
20.5
 10
50.800000000000004
 20
20.400000000000002
 10
50.800000000000004
 20
20.3
 10
50.800000000000004
 20
20.200000000000003
 10
50.800000000000004
 20
20.1
 10
50.800000000000004
 20
20.0
 10
50.800000000000004
 20
19.900000000000002
 10
50.800000000000004
 20
19.8
 10
50.800000000000004
 20
19.700000000000003
 10
50.800000000000004
 20
19.6
 10
50.800000000000004
 20
19.5
 10
50.800000000000004
 20
19.400000000000002
 10
50.800000000000004
 20
19.3
 10
50.800000000000004
 20
19.200000000000003
 10
50.800000000000004
 20
19.1
 10
50.800000000000004
 20
19.0
 10
50.800000000000004
 20
18.900000000000002
 10
50.800000000000004
 20
18.8
 10
50.800000000000004
 20
18.7
 10
50.800000000000004
 20
18.6
 10
50.800000000000004
 20
18.5
 10
50.800000000000004
 20
18.400000000000002
 10
50.800000000000004
 20
18.3
 10
50.800000000000004
 20
18.2
 10
50.800000000000004
 20
18.1
 10
50.800000000000004
 20
18.0
 10
50.800000000000004
 20
17.900000000000002
 10
50.800000000000004
 20
17.8
 10
50.800000000000004
 20
17.7
 10
50.800000000000004
 20
17.6
 10
50.800000000000004
 20
17.5
 10
50.800000000000004
 20
17.400000000000002
 10
50.800000000000004
 20
17.3
 10
50.800000000000004
 20
17.2
 10
50.800000000000004
 20
17.1
 10
50.800000000000004
 20
17.0
 10
50.800000000000004
 20
16.900000000000002
 10
50.900000000000006
 20
16.900000000000002
 10
51.0
 20
16.900000000000002
 10
51.1
 20
16.900000000000002
 10
51.2
 20
16.900000000000002
 10
51.300000000000004
 20
16.900000000000002
 10
51.400000000000006
 20
16.900000000000002
 10
51.5
 20
16.900000000000002
 10
51.6
 20
16.900000000000002
 10
51.7
 20
16.900000000000002
 10
51.800000000000004
 20
16.900000000000002
 10
51.900000000000006
 20
16.900000000000002
 10
52.0
 20
16.900000000000002
 10
52.1
 20
16.900000000000002
 10
52.2
 20
16.900000000000002
 10
52.300000000000004
 20
16.900000000000002
 10
52.400000000000006
 20
16.900000000000002
 10
52.5
 20
16.900000000000002
 10
52.6
 20
16.900000000000002
 10
52.7
 20
16.900000000000002
 10
52.800000000000004
 20
16.900000000000002
 10
52.900000000000006
 20
16.900000000000002
 10
53.0
 20
16.900000000000002
 10
53.1
 20
16.8
 10
53.0
 20
16.7
 10
52.900000000000006
 20
16.6
 10
52.800000000000004
 20
16.5
 10
52.7
 20
16.400000000000002
 10
52.6
 20
16.400000000000002
 10
52.5
 20
16.400000000000002
 10
52.400000000000006
 20
16.400000000000002
 10
52.300000000000004
 20
16.400000000000002
 10
52.2
 20
16.400000000000002
 10
52.1
 20
16.400000000000002
 10
52.0
 20
16.400000000000002
 10
51.900000000000006
 20
16.400000000000002
 10
51.800000000000004
 20
16.400000000000002
 10
51.7
 20
16.400000000000002
 10
51.6
 20
16.400000000000002
 10
51.5
 20
16.400000000000002
 10
51.400000000000006
 20
16.400000000000002
 10
51.300000000000004
 20
16.400000000000002
 10
51.2
 20
16.400000000000002
 10
51.1
 20
16.400000000000002
 10
51.0
 20
16.400000000000002
 10
50.900000000000006
 20
16.400000000000002
 10
50.800000000000004
 20
16.400000000000002
 10
50.800000000000004
 20
16.3
 10
50.800000000000004
 20
16.2
 10
50.800000000000004
 20
16.1
 10
50.800000000000004
 20
16.0
 10
50.800000000000004
 20
15.9
 10
50.800000000000004
 20
15.8
 10
50.800000000000004
 20
15.700000000000001
 10
50.800000000000004
 20
15.600000000000001
 10
50.800000000000004
 20
15.5
 10
50.800000000000004
 20
15.4
 10
50.800000000000004
 20
15.3
 10
50.800000000000004
 20
15.200000000000001
 10
50.800000000000004
 20
15.100000000000001
 10
50.800000000000004
 20
15.0
 10
50.800000000000004
 20
14.9
 10
50.800000000000004
 20
14.8
 10
50.800000000000004
 20
14.700000000000001
 10
50.800000000000004
 20
14.600000000000001
 10
50.800000000000004
 20
14.5
 10
50.800000000000004
 20
14.4
 10
50.800000000000004
 20
14.3
 10
50.800000000000004
 20
14.200000000000001
 10
50.800000000000004
 20
14.100000000000001
 10
50.800000000000004
 20
14.0
 10
50.800000000000004
 20
13.9
 10
50.800000000000004
 20
13.8
 10
50.800000000000004
 20
13.700000000000001
 10
50.800000000000004
 20
13.600000000000001
 10
50.800000000000004
 20
13.5
 10
50.800000000000004
 20
13.4
 10
50.800000000000004
 20
13.3
 10
50.800000000000004
 20
13.200000000000001
 10
50.800000000000004
 20
13.100000000000001
 10
50.800000000000004
 20
13.0
 10
50.800000000000004
 20
12.9
 10
50.800000000000004
 20
12.8
 10
50.800000000000004
 20
12.700000000000001
 10
50.800000000000004
 20
12.600000000000001
 10
50.800000000000004
 20
12.5
 10
50.800000000000004
 20
12.4
 10
50.800000000000004
 20
12.3
 10
50.800000000000004
 20
12.200000000000001
 10
50.800000000000004
 20
12.100000000000001
 10
50.800000000000004
 20
12.0
 10
50.800000000000004
 20
11.9
 10
50.800000000000004
 20
11.8
 10
50.800000000000004
 20
11.700000000000001
 10
50.800000000000004
 20
11.600000000000001
 10
50.800000000000004
 20
11.5
 10
50.800000000000004
 20
11.4
 10
50.900000000000006
 20
11.3
 10
51.0
 20
11.3
 10
51.1
 20
11.3
 10
51.2
 20
11.3
 10
51.300000000000004
 20
11.3
 10
51.400000000000006
 20
11.3
 10
51.5
 20
11.4
 10
51.6
 20
11.4
 10
51.7
 20
11.4
 10
51.800000000000004
 20
11.4
 10
51.900000000000006
 20
11.4
 10
52.0
 20
11.4
 10
52.1
 20
11.4
 10
52.2
 20
11.4
 10
52.300000000000004
 20
11.4
 10
52.400000000000006
 20
11.4
 10
52.5
 20
11.4
 10
52.6
 20
11.4
 10
52.7
 20
11.4
 10
52.800000000000004
 20
11.4
 10
52.900000000000006
 20
11.4
 10
53.0
 20
11.4
 10
53.1
 20
11.4
 10
53.2
 20
11.4
 10
53.300000000000004
 20
11.4
 10
53.400000000000006
 20
11.4
 10
53.5
 20
11.4
 10
53.6
 20
11.4
 10
53.7
 20
11.4
 10
53.800000000000004
 20
11.4
 10
53.900000000000006
 20
11.4
 10
54.0
 20
11.4
 10
54.1
 20
11.4
 10
54.2
 20
11.4
 10
54.300000000000004
 20
11.4
 10
54.400000000000006
 20
11.4
 10
54.5
 20
11.4
 10
54.6
 20
11.4
 10
54.7
 20
11.4
 10
54.800000000000004
 20
11.4
 10
54.900000000000006
 20
11.4
 10
55.0
 20
11.4
 10
55.1
 20
11.4
 10
55.2
 20
11.4
 10
55.300000000000004
 20
11.4
 10
55.400000000000006
 20
11.4
 10
55.5
 20
11.4
 10
55.6
 20
11.4
 10
55.7
 20
11.4
 10
55.800000000000004
 20
11.4
 10
55.800000000000004
 20
11.5
 10
55.800000000000004
 20
11.600000000000001
 10
55.800000000000004
 20
11.700000000000001
 10
55.800000000000004
 20
11.8
 10
55.800000000000004
 20
11.9
 10
55.800000000000004
 20
12.0
 10
55.800000000000004
 20
12.100000000000001
 10
55.800000000000004
 20
12.200000000000001
 10
55.800000000000004
 20
12.3
 10
55.800000000000004
 20
12.4
 10
55.800000000000004
 20
12.5
 10
55.800000000000004
 20
12.600000000000001
 10
55.800000000000004
 20
12.700000000000001
 10
55.800000000000004
 20
12.8
 10
55.800000000000004
 20
12.9
 10
55.800000000000004
 20
13.0
 10
55.800000000000004
 20
13.100000000000001
 10
55.800000000000004
 20
13.200000000000001
 10
55.800000000000004
 20
13.3
 10
55.800000000000004
 20
13.4
 10
55.800000000000004
 20
13.5
 10
55.800000000000004
 20
13.600000000000001
 10
55.900000000000006
 20
13.700000000000001
 10
56.0
 20
13.8
 10
56.1
 20
13.9
 10
56.2
 20
14.0
 10
56.300000000000004
 20
13.9
 10
56.300000000000004
 20
13.8
 10
56.300000000000004
 20
13.700000000000001
 10
56.300000000000004
 20
13.600000000000001
 10
56.300000000000004
 20
13.5
 10
56.300000000000004
 20
13.4
 10
56.300000000000004
 20
13.3
 10
56.300000000000004
 20
13.200000000000001
 10
56.300000000000004
 20
13.100000000000001
 10
56.300000000000004
 20
13.0
 10
56.300000000000004
 20
12.9
 10
56.300000000000004
 20
12.8
 10
56.300000000000004
 20
12.700000000000001
 10
56.300000000000004
 20
12.600000000000001
 10
56.300000000000004
 20
12.5
 10
56.300000000000004
 20
12.4
 10
56.300000000000004
 20
12.3
 10
56.300000000000004
 20
12.200000000000001
 10
56.300000000000004
 20
12.100000000000001
 10
56.300000000000004
 20
12.0
 10
56.300000000000004
 20
11.9
 10
56.300000000000004
 20
11.8
 10
56.300000000000004
 20
11.700000000000001
 10
56.300000000000004
 20
11.600000000000001
 10
56.300000000000004
 20
11.5
 10
56.400000000000006
 20
11.5
 10
56.5
 20
11.5
 10
56.6
 20
11.5
 10
56.7
 20
11.5
 10
56.800000000000004
 20
11.5
 10
56.900000000000006
 20
11.5
 10
57.0
 20
11.5
 10
57.1
 20
11.5
 10
57.2
 20
11.5
 10
57.300000000000004
 20
11.600000000000001
 10
57.400000000000006
 20
11.600000000000001
 10
57.5
 20
11.600000000000001
 10
57.6
 20
11.600000000000001
 10
57.7
 20
11.700000000000001
 10
57.800000000000004
 20
11.700000000000001
 10
57.900000000000006
 20
11.700000000000001
 10
58.0
 20
11.8
 10
58.1
 20
11.8
 10
58.2
 20
11.8
 10
58.300000000000004
 20
11.9
 10
58.400000000000006
 20
11.9
 10
58.5
 20
12.0
 10
58.6
 20
12.0
 10
58.7
 20
12.100000000000001
 10
58.800000000000004
 20
12.100000000000001
 10
58.900000000000006
 20
12.200000000000001
 10
59.0
 20
12.3
 10
59.1
 20
12.3
 10
59.2
 20
12.4
 10
59.300000000000004
 20
12.5
 10
59.400000000000006
 20
12.5
 10
59.5
 20
12.600000000000001
 10
59.6
 20
12.700000000000001
 10
59.7
 20
12.8
 10
59.800000000000004
 20
12.9
 10
59.900000000000006
 20
13.0
 10
60.0
 20
13.100000000000001
 10
60.1
 20
13.200000000000001
 10
60.2
 20
13.3
 10
60.2
 20
13.4
 10
60.300000000000004
 20
13.5
 10
60.400000000000006
 20
13.600000000000001
 10
60.5
 20
13.700000000000001
 10
60.5
 20
13.8
 10
60.6
 20
13.9
 10
60.6
 20
14.0
 10
60.7
 20
14.100000000000001
 10
60.7
 20
14.200000000000001
 10
60.800000000000004
 20
14.3
 10
60.800000000000004
 20
14.4
 10
60.900000000000006
 20
14.5
 10
60.900000000000006
 20
14.600000000000001
 10
61.0
 20
14.700000000000001
 10
61.0
 20
14.8
 10
61.0
 20
14.9
 10
61.1
 20
15.0
 10
61.1
 20
15.100000000000001
 10
61.1
 20
15.200000000000001
 10
61.1
 20
15.3
 10
61.2
 20
15.4
 10
61.2
 20
15.5
 10
61.2
 20
15.600000000000001
 10
61.2
 20
15.700000000000001
 10
61.2
 20
15.8
 10
61.2
 20
15.9
 10
61.2
 20
16.0
 10
61.2
 20
16.1
 10
61.300000000000004
 20
16.2
 10
61.300000000000004
 20
16.3
 10
61.300000000000004
 20
16.400000000000002
 10
61.2
 20
16.5
 10
61.1
 20
16.5
 10
61.0
 20
16.5
 10
60.900000000000006
 20
16.5
 10
60.800000000000004
 20
16.5
 10
60.7
 20
16.5
 10
60.6
 20
16.5
 10
60.5
 20
16.5
 10
60.400000000000006
 20
16.5
 10
60.300000000000004
 20
16.5
 10
60.2
 20
16.5
 10
60.1
 20
16.5
 10
60.0
 20
16.5
 10
59.900000000000006
 20
16.5
 10
59.800000000000004
 20
16.5
 10
59.7
 20
16.5
 10
59.6
 20
16.5
 10
59.5
 20
16.5
 10
59.400000000000006
 20
16.5
 10
59.300000000000004
 20
16.5
 10
59.2
 20
16.5
 10
59.1
 20
16.5
 10
59.0
 20
16.400000000000002
 10
58.900000000000006
 20
16.400000000000002
 10
58.800000000000004
 20
16.400000000000002
 10
58.7
 20
16.400000000000002
 10
58.6
 20
16.400000000000002
 10
58.5
 20
16.400000000000002
 10
58.400000000000006
 20
16.400000000000002
 10
58.300000000000004
 20
16.400000000000002
 10
58.2
 20
16.400000000000002
 10
58.1
 20
16.400000000000002
 10
58.0
 20
16.400000000000002
 10
57.900000000000006
 20
16.400000000000002
 10
57.800000000000004
 20
16.400000000000002
 10
57.7
 20
16.400000000000002
 10
57.6
 20
16.400000000000002
 10
57.5
 20
16.5
 10
57.5
 20
16.6
 10
57.6
 20
16.7
 10
57.6
 20
16.8
 10
57.6
 20
16.900000000000002
 10
57.6
 20
17.0
 10
57.7
 20
17.1
 10
57.7
 20
17.2
 10
57.7
 20
17.3
 10
57.7
 20
17.400000000000002
 10
57.7
 20
17.5
 10
57.800000000000004
 20
17.6
 10
57.800000000000004
 20
17.7
 10
57.800000000000004
 20
17.8
 10
57.800000000000004
 20
17.900000000000002
 10
57.800000000000004
 20
18.0
 10
57.800000000000004
 20
18.1
 10
57.800000000000004
 20
18.2
 10
57.800000000000004
 20
18.3
 10
57.800000000000004
 20
18.400000000000002
 10
57.800000000000004
 20
18.5
 10
57.800000000000004
 20
18.6
 10
57.800000000000004
 20
18.7
 10
57.7
 20
18.7
 10
57.6
 20
18.7
 10
57.5
 20
18.7
 10
57.400000000000006
 20
18.7
 10
57.300000000000004
 20
18.7
 10
57.2
 20
18.7
 10
57.1
 20
18.7
 10
57.0
 20
18.7
 10
56.900000000000006
 20
18.6
 10
56.800000000000004
 20
18.6
 10
56.7
 20
18.6
 10
56.6
 20
18.6
 10
56.5
 20
18.6
 10
56.400000000000006
 20
18.6
 10
56.300000000000004
 20
18.5
 10
56.2
 20
18.5
 10
56.1
 20
18.5
 10
56.0
 20
18.5
 10
55.900000000000006
 20
18.400000000000002
 10
55.800000000000004
 20
18.400000000000002
 10
55.7
 20
18.400000000000002
 10
55.6
 20
18.5
 10
55.5
 20
18.6
 10
55.5
 20
18.7
 10
55.400000000000006
 20
18.8
 10
55.400000000000006
 20
18.900000000000002
 10
55.400000000000006
 20
19.0
 10
55.300000000000004
 20
19.1
 10
55.300000000000004
 20
19.200000000000003
 10
55.2
 20
19.3
 10
55.1
 20
19.400000000000002
 10
55.1
 20
19.5
 10
55.0
 20
19.6
 10
55.0
 20
19.700000000000003
 10
54.900000000000006
 20
19.8
 10
54.800000000000004
 20
19.900000000000002
 10
54.7
 20
20.0
 10
54.7
 20
20.1
 10
54.6
 20
20.200000000000003
 10
54.5
 20
20.3
 10
54.400000000000006
 20
20.400000000000002
 10
54.300000000000004
 20
20.5
 10
54.2
 20
20.6
 10
54.1
 20
20.700000000000003
 10
54.0
 20
20.700000000000003
 10
53.900000000000006
 20
20.8
 10
53.800000000000004
 20
20.900000000000002
 10
53.7
 20
21.0
 10
53.6
 20
21.0
 10
53.5
 20
21.1
 10
53.400000000000006
 20
21.200000000000003
 10
53.300000000000004
 20
21.200000000000003
 10
53.2
 20
21.3
 10
53.1
 20
21.3
 10
53.0
 20
21.400000000000002
 10
52.900000000000006
 20
21.400000000000002
 10
52.800000000000004
 20
21.5
 10
52.7
 20
21.5
 10
52.6
 20
21.5
 10
52.5
 20
21.6
 10
52.400000000000006
 20
21.6
 10
52.300000000000004
 20
21.6
 10
52.2
 20
21.700000000000003
 10
52.1
 20
21.700000000000003
 10
52.0
 20
21.700000000000003
 10
51.900000000000006
 20
21.700000000000003
 10
51.800000000000004
 20
21.8
 10
51.7
 20
21.8
 10
51.6
 20
21.8
 10
51.5
 20
21.8
 10
51.400000000000006
 20
21.8
 10
51.300000000000004
 20
21.8
 10
51.2
 20
21.8
 10
51.1
 20
21.8
 10
51.0
 20
21.8
 10
50.900000000000006
 20
21.900000000000002
  0
LWPOLYLINE
  5
64
330
17
100
AcDbEntity
  8
0
100
AcDbPolyline
 90
171
 70
0
 10
50.300000000000004
 20
21.900000000000002
 10
50.2
 20
21.8
 10
50.1
 20
21.8
 10
50.0
 20
21.8
 10
49.900000000000006
 20
21.8
 10
49.800000000000004
 20
21.8
 10
49.7
 20
21.8
 10
49.6
 20
21.8
 10
49.5
 20
21.8
 10
49.400000000000006
 20
21.8
 10
49.300000000000004
 20
21.700000000000003
 10
49.2
 20
21.700000000000003
 10
49.1
 20
21.700000000000003
 10
49.0
 20
21.700000000000003
 10
48.900000000000006
 20
21.6
 10
48.800000000000004
 20
21.6
 10
48.7
 20
21.6
 10
48.6
 20
21.5
 10
48.5
 20
21.5
 10
48.400000000000006
 20
21.5
 10
48.300000000000004
 20
21.400000000000002
 10
48.2
 20
21.400000000000002
 10
48.1
 20
21.3
 10
48.0
 20
21.3
 10
47.900000000000006
 20
21.200000000000003
 10
47.800000000000004
 20
21.200000000000003
 10
47.7
 20
21.1
 10
47.6
 20
21.0
 10
47.5
 20
21.0
 10
47.400000000000006
 20
20.900000000000002
 10
47.300000000000004
 20
20.8
 10
47.2
 20
20.700000000000003
 10
47.1
 20
20.700000000000003
 10
47.0
 20
20.6
 10
46.900000000000006
 20
20.5
 10
46.800000000000004
 20
20.400000000000002
 10
46.7
 20
20.3
 10
46.6
 20
20.200000000000003
 10
46.5
 20
20.1
 10
46.5
 20
20.0
 10
46.400000000000006
 20
19.900000000000002
 10
46.300000000000004
 20
19.8
 10
46.2
 20
19.700000000000003
 10
46.2
 20
19.6
 10
46.1
 20
19.5
 10
46.0
 20
19.400000000000002
 10
46.0
 20
19.3
 10
45.900000000000006
 20
19.200000000000003
 10
45.900000000000006
 20
19.1
 10
45.800000000000004
 20
19.0
 10
45.800000000000004
 20
18.900000000000002
 10
45.800000000000004
 20
18.8
 10
45.7
 20
18.7
 10
45.7
 20
18.6
 10
45.6
 20
18.5
 10
45.6
 20
18.400000000000002
 10
45.6
 20
18.3
 10
45.5
 20
18.2
 10
45.5
 20
18.1
 10
45.5
 20
18.0
 10
45.5
 20
17.900000000000002
 10
45.5
 20
17.8
 10
45.400000000000006
 20
17.7
 10
45.400000000000006
 20
17.6
 10
45.400000000000006
 20
17.5
 10
45.400000000000006
 20
17.400000000000002
 10
45.400000000000006
 20
17.3
 10
45.400000000000006
 20
17.2
 10
45.400000000000006
 20
17.1
 10
45.400000000000006
 20
17.0
 10
45.400000000000006
 20
16.900000000000002
 10
45.5
 20
16.900000000000002
 10
45.6
 20
16.900000000000002
 10
45.7
 20
16.900000000000002
 10
45.800000000000004
 20
16.900000000000002
 10
45.900000000000006
 20
16.900000000000002
 10
46.0
 20
16.900000000000002
 10
46.1
 20
16.900000000000002
 10
46.2
 20
16.900000000000002
 10
46.300000000000004
 20
16.900000000000002
 10
46.400000000000006
 20
16.900000000000002
 10
46.5
 20
16.900000000000002
 10
46.6
 20
16.900000000000002
 10
46.7
 20
16.900000000000002
 10
46.800000000000004
 20
16.900000000000002
 10
46.900000000000006
 20
16.900000000000002
 10
47.0
 20
16.900000000000002
 10
47.1
 20
16.900000000000002
 10
47.2
 20
16.900000000000002
 10
47.300000000000004
 20
16.900000000000002
 10
47.400000000000006
 20
16.900000000000002
 10
47.5
 20
16.900000000000002
 10
47.6
 20
16.900000000000002
 10
47.7
 20
16.900000000000002
 10
47.800000000000004
 20
16.900000000000002
 10
47.900000000000006
 20
16.900000000000002
 10
48.0
 20
16.900000000000002
 10
48.1
 20
16.900000000000002
 10
48.2
 20
16.900000000000002
 10
48.300000000000004
 20
16.900000000000002
 10
48.400000000000006
 20
16.900000000000002
 10
48.5
 20
16.900000000000002
 10
48.6
 20
16.900000000000002
 10
48.7
 20
16.900000000000002
 10
48.800000000000004
 20
16.900000000000002
 10
48.900000000000006
 20
16.900000000000002
 10
49.0
 20
16.900000000000002
 10
49.1
 20
16.900000000000002
 10
49.2
 20
16.900000000000002
 10
49.300000000000004
 20
16.900000000000002
 10
49.400000000000006
 20
16.900000000000002
 10
49.5
 20
16.900000000000002
 10
49.6
 20
16.900000000000002
 10
49.7
 20
16.900000000000002
 10
49.800000000000004
 20
16.900000000000002
 10
49.900000000000006
 20
16.900000000000002
 10
50.0
 20
16.900000000000002
 10
50.1
 20
16.900000000000002
 10
50.2
 20
16.900000000000002
 10
50.300000000000004
 20
16.900000000000002
 10
50.400000000000006
 20
16.900000000000002
 10
50.400000000000006
 20
17.0
 10
50.400000000000006
 20
17.1
 10
50.400000000000006
 20
17.2
 10
50.400000000000006
 20
17.3
 10
50.400000000000006
 20
17.400000000000002
 10
50.400000000000006
 20
17.5
 10
50.400000000000006
 20
17.6
 10
50.400000000000006
 20
17.7
 10
50.400000000000006
 20
17.8
 10
50.400000000000006
 20
17.900000000000002
 10
50.400000000000006
 20
18.0
 10
50.400000000000006
 20
18.1
 10
50.400000000000006
 20
18.2
 10
50.400000000000006
 20
18.3
 10
50.400000000000006
 20
18.400000000000002
 10
50.400000000000006
 20
18.5
 10
50.400000000000006
 20
18.6
 10
50.400000000000006
 20
18.7
 10
50.400000000000006
 20
18.8
 10
50.400000000000006
 20
18.900000000000002
 10
50.400000000000006
 20
19.0
 10
50.400000000000006
 20
19.1
 10
50.400000000000006
 20
19.200000000000003
 10
50.400000000000006
 20
19.3
 10
50.400000000000006
 20
19.400000000000002
 10
50.400000000000006
 20
19.5
 10
50.400000000000006
 20
19.6
 10
50.400000000000006
 20
19.700000000000003
 10
50.400000000000006
 20
19.8
 10
50.400000000000006
 20
19.900000000000002
 10
50.400000000000006
 20
20.0
 10
50.400000000000006
 20
20.1
 10
50.400000000000006
 20
20.200000000000003
 10
50.400000000000006
 20
20.3
 10
50.400000000000006
 20
20.400000000000002
 10
50.400000000000006
 20
20.5
 10
50.400000000000006
 20
20.6
 10
50.400000000000006
 20
20.700000000000003
 10
50.400000000000006
 20
20.8
 10
50.400000000000006
 20
20.900000000000002
 10
50.400000000000006
 20
21.0
 10
50.400000000000006
 20
21.1
 10
50.400000000000006
 20
21.200000000000003
 10
50.400000000000006
 20
21.3
 10
50.400000000000006
 20
21.400000000000002
 10
50.400000000000006
 20
21.5
 10
50.400000000000006
 20
21.6
 10
50.400000000000006
 20
21.700000000000003
 10
50.400000000000006
 20
21.8
 10
50.300000000000004
 20
21.900000000000002
  0
ENDSEC
  0
SECTION
  2
OBJECTS
  0
DICTIONARY
  5
A
330
0
100
AcDbDictionary
280
0
281
1
  3
ACAD_COLOR
350
B
  3
ACAD_GROUP
350
C
  3
ACAD_LAYOUT
350
D
  3
ACAD_MATERIAL
350
E
  3
ACAD_MLEADERSTYLE
350
F
  3
ACAD_MLINESTYLE
350
10
  3
ACAD_PLOTSETTINGS
350
11
  3
ACAD_PLOTSTYLENAME
350
12
  3
ACAD_SCALELIST
350
14
  3
ACAD_TABLESTYLE
350
15
  3
ACAD_VISUALSTYLE
350
16
  3
EZDXF_META
350
2D
  0
DICTIONARY
  5
B
330
A
100
AcDbDictionary
280
0
281
1
  0
DICTIONARY
  5
C
330
A
100
AcDbDictionary
280
0
281
1
  0
DICTIONARY
  5
D
330
A
100
AcDbDictionary
280
0
281
1
  3
Model
350
1A
  3
Layout1
350
1E
  0
DICTIONARY
  5
E
330
A
100
AcDbDictionary
280
0
281
1
  3
ByBlock
350
1F
  3
ByLayer
350
20
  3
Global
350
21
  0
DICTIONARY
  5
F
330
A
100
AcDbDictionary
280
0
281
1
  3
Standard
350
2C
  0
DICTIONARY
  5
10
330
A
100
AcDbDictionary
280
0
281
1
  3
Standard
350
22
  0
DICTIONARY
  5
11
330
A
100
AcDbDictionary
280
0
281
1
  0
ACDBDICTIONARYWDFLT
  5
12
330
A
100
AcDbDictionary
280
0
281
1
  3
Normal
350
13
100
AcDbDictionaryWithDefault
340
13
  0
ACDBPLACEHOLDER
  5
13
330
12
  0
DICTIONARY
  5
14
330
A
100
AcDbDictionary
280
0
281
1
  0
DICTIONARY
  5
15
330
A
100
AcDbDictionary
280
0
281
1
  0
DICTIONARY
  5
16
330
A
100
AcDbDictionary
280
0
281
1
  0
LAYOUT
  5
1A
330
D
100
AcDbPlotSettings
  1

  4
A3
  6

 40
7.5
 41
20.0
 42
7.5
 43
20.0
 44
420.0
 45
297.0
 46
0.0
 47
0.0
 48
0.0
 49
0.0
140
0.0
141
0.0
142
1.0
143
1.0
 70
1024
 72
1
 73
0
 74
5
  7

 75
16
 76
0
 77
2
 78
300
147
1.0
148
0.0
149
0.0
100
AcDbLayout
  1
Model
 70
1
 71
0
 10
0.0
 20
0.0
 11
420.0
 21
297.0
 12
0.0
 22
0.0
 32
0.0
 14
1e+20
 24
1e+20
 34
1e+20
 15
-1e+20
 25
-1e+20
 35
-1e+20
146
0.0
 13
0.0
 23
0.0
 33
0.0
 16
1.0
 26
0.0
 36
0.0
 17
0.0
 27
1.0
 37
0.0
 76
1
330
17
  0
LAYOUT
  5
1E
330
D
100
AcDbPlotSettings
  1

  4
A3
  6

 40
7.5
 41
20.0
 42
7.5
 43
20.0
 44
420.0
 45
297.0
 46
0.0
 47
0.0
 48
0.0
 49
0.0
140
0.0
141
0.0
142
1.0
143
1.0
 70
0
 72
1
 73
0
 74
5
  7

 75
16
 76
0
 77
2
 78
300
147
1.0
148
0.0
149
0.0
100
AcDbLayout
  1
Layout1
 70
1
 71
1
 10
0.0
 20
0.0
 11
420.0
 21
297.0
 12
0.0
 22
0.0
 32
0.0
 14
1e+20
 24
1e+20
 34
1e+20
 15
-1e+20
 25
-1e+20
 35
-1e+20
146
0.0
 13
0.0
 23
0.0
 33
0.0
 16
1.0
 26
0.0
 36
0.0
 17
0.0
 27
1.0
 37
0.0
 76
1
330
1B
  0
MATERIAL
  5
1F
102
{ACAD_REACTORS
330
E
102
}
330
E
100
AcDbMaterial
  1
ByBlock
  2

 70
0
 40
1.0
 71
1
 41
1.0
 91
-1023410177
 42
1.0
 72
1
  3

 73
1
 74
1
 75
1
 44
0.5
 73
0
 45
1.0
 46
1.0
 77
1
  4

 78
1
 79
1
170
1
 48
1.0
171
1
  6

172
1
173
1
174
1
140
1.0
141
1.0
175
1
  7

176
1
177
1
178
1
143
1.0
179
1
  8

270
1
271
1
272
1
145
1.0
146
1.0
273
1
  9

274
1
275
1
276
1
 42
1.0
 72
1
  3

 73
1
 74
1
 75
1
 94
63
  0
MATERIAL
  5
20
102
{ACAD_REACTORS
330
E
102
}
330
E
100
AcDbMaterial
  1
ByLayer
  2

 70
0
 40
1.0
 71
1
 41
1.0
 91
-1023410177
 42
1.0
 72
1
  3

 73
1
 74
1
 75
1
 44
0.5
 73
0
 45
1.0
 46
1.0
 77
1
  4

 78
1
 79
1
170
1
 48
1.0
171
1
  6

172
1
173
1
174
1
140
1.0
141
1.0
175
1
  7

176
1
177
1
178
1
143
1.0
179
1
  8

270
1
271
1
272
1
145
1.0
146
1.0
273
1
  9

274
1
275
1
276
1
 42
1.0
 72
1
  3

 73
1
 74
1
 75
1
 94
63
  0
MATERIAL
  5
21
102
{ACAD_REACTORS
330
E
102
}
330
E
100
AcDbMaterial
  1
Global
  2

 70
0
 40
1.0
 71
1
 41
1.0
 91
-1023410177
 42
1.0
 72
1
  3

 73
1
 74
1
 75
1
 44
0.5
 73
0
 45
1.0
 46
1.0
 77
1
  4

 78
1
 79
1
170
1
 48
1.0
171
1
  6

172
1
173
1
174
1
140
1.0
141
1.0
175
1
  7

176
1
177
1
178
1
143
1.0
179
1
  8

270
1
271
1
272
1
145
1.0
146
1.0
273
1
  9

274
1
275
1
276
1
 42
1.0
 72
1
  3

 73
1
 74
1
 75
1
 94
63
  0
MLINESTYLE
  5
22
102
{ACAD_REACTORS
330
10
102
}
330
10
100
AcDbMlineStyle
  2
Standard
 70
0
  3

 62
256
 51
90.0
 52
90.0
 71
2
 49
0.5
 62
256
  6
BYLAYER
 49
-0.5
 62
256
  6
BYLAYER
  0
MLEADERSTYLE
  5
2C
102
{ACAD_REACTORS
330
F
102
}
330
F
100
AcDbMLeaderStyle
179
2
170
2
171
1
172
0
 90
2
 40
0.0
 41
0.0
173
1
 91
-1056964608
 92
-2
290
1
 42
2.0
291
1
 43
8.0
  3
Standard
 44
4.0
300

342
29
174
1
175
1
176
0
178
1
 93
-1056964608
 45
4.0
292
0
297
0
 46
4.0
 94
-1056964608
 47
1.0
 49
1.0
140
1.0
294
1
141
0.0
177
0
142
1.0
295
0
296
0
143
3.75
271
0
272
9
273
9
  0
DICTIONARY
  5
2D
330
A
100
AcDbDictionary
281
1
  3
CREATED_BY_EZDXF
350
2E
  3
WRITTEN_BY_EZDXF
350
67
  0
DICTIONARYVAR
  5
2E
330
2D
100
DictionaryVariables
280
0
  1
1.3.3 @ 2024-10-13T11:16:16.089847+00:00
  0
DICTIONARYVAR
  5
67
330
2D
100
DictionaryVariables
280
0
  1
1.3.3 @ 2024-10-13T11:16:16.122731+00:00
  0
ENDSEC
  0
EOF
